<svg width="80" height="81" viewBox="0 0 80 81" fill="none" xmlns="http://www.w3.org/2000/svg">
<circle cx="44" cy="30.5" r="30" fill="url(#paint0_linear_103_4956)"/>
<path d="M22.305 17.5C23.0719 17.5 23.8388 17.5 24.6065 17.5C24.88 17.5607 25.1525 17.624 25.4259 17.6829C29.8876 18.6408 32.8573 22.2931 32.8799 26.9169C32.9025 31.6584 32.9125 36.4007 32.8645 41.1422C32.8536 42.2242 33.0619 43.1205 33.7626 43.9688C34.5621 44.9385 35.2402 46.0087 35.9953 47.0698C36.9251 45.7624 37.7988 44.5048 38.7078 43.2744C39.0012 42.8769 39.1116 42.4804 39.1107 41.9924C39.0972 36.9476 39.0845 31.9037 39.1089 26.8589C39.1297 22.4959 41.8903 18.9115 46.0288 17.8078C46.4742 17.6892 46.9278 17.6023 47.3769 17.5C48.1437 17.5 48.9106 17.5 49.6783 17.5C49.8341 17.5362 49.988 17.5896 50.1455 17.6068C57.729 18.4398 63.6692 24.8101 63.8566 32.4334C63.9553 36.4279 63.9037 40.427 63.8738 44.4233C63.8675 45.2309 64.0775 45.8674 64.5366 46.5338C66.3428 49.1558 66.5058 51.9362 64.8652 54.6623C64.2369 55.7053 63.2283 56.5319 62.3365 57.3984C61.9707 57.7533 61.8096 58.0792 61.8105 58.5898C61.8249 62.9701 61.8738 67.3521 61.786 71.7305C61.71 75.5395 58.6253 78.9329 54.858 79.3756C53.1632 79.5748 51.4348 79.506 49.7209 79.5087C44.7449 79.5186 41.1804 75.9478 41.1723 70.9673C41.1669 67.4146 41.1641 63.8619 41.1804 60.3091C41.1822 59.8854 41.041 59.6138 40.7359 59.3259C39.1433 57.8239 37.309 56.5726 36.0306 54.7818C35.4675 55.3857 34.9523 56.0013 34.3711 56.5464C33.3706 57.4853 32.3412 58.3952 31.2982 59.287C30.9442 59.5894 30.8048 59.9026 30.8057 60.3716C30.8183 64.1661 30.869 67.9632 30.7794 71.7559C30.6898 75.5576 27.607 78.9356 23.8261 79.3783C22.1511 79.5748 20.4427 79.505 18.7496 79.5087C13.7302 79.5195 10.172 75.9605 10.1657 70.942C10.1603 66.7835 10.1584 62.6251 10.1738 58.4667C10.1756 58.0457 10.038 57.775 9.73835 57.4816C8.84926 56.6098 7.86331 55.7868 7.17612 54.7691C5.5066 52.2983 5.63969 49.0209 7.41514 46.5899C7.92216 45.8955 8.11862 45.2128 8.11138 44.3663C8.0815 40.4098 8.04529 36.4523 8.12405 32.4976C8.25171 26.0866 12.5124 20.3583 18.6057 18.3538C19.8026 17.9599 21.0701 17.7807 22.305 17.5018V17.5ZM50.4697 37.2437C50.3185 37.4456 50.1953 37.604 50.0785 37.767C47.3705 41.5596 44.6634 45.3522 41.9563 49.1458C40.9994 50.4867 41.1225 51.4808 42.3665 52.5799C43.4557 53.5423 44.5557 54.4921 45.6177 55.4835C46.6191 56.4187 46.9224 57.7795 46.4217 58.9746C45.892 60.2376 44.9233 60.8804 43.5453 60.894C43.452 60.894 43.3597 60.9239 43.2483 60.9429C43.2483 64.483 43.2103 67.994 43.2601 71.5042C43.3008 74.4195 45.5408 76.9727 48.4362 77.3222C50.0097 77.5123 51.6168 77.4408 53.2093 77.4453C57.1115 77.4544 59.7462 74.8233 59.7534 70.9247C59.7598 67.4327 59.7552 63.9415 59.7534 60.4495C59.7534 60.2584 59.7353 60.0674 59.7208 59.7931C59.4519 60.0086 59.2591 60.1761 59.0527 60.3254C57.5697 61.3974 55.4963 60.9112 54.638 59.2942C53.9554 58.0077 54.2487 56.4423 55.4049 55.3857C56.4624 54.4187 57.5425 53.4762 58.6145 52.5265C59.7842 51.4898 59.9028 50.4586 58.9893 49.1757C56.2858 45.3803 53.5805 41.5859 50.8744 37.7914C50.7494 37.6158 50.6181 37.4446 50.4697 37.2437ZM28.7477 60.9447C28.2896 60.8841 27.9012 60.8795 27.5409 60.7763C25.1959 60.1045 24.5694 57.1675 26.4137 55.44C27.4739 54.4468 28.5784 53.5016 29.6658 52.5374C30.8437 51.4916 30.9686 50.4622 30.0605 49.1902C28.0922 46.4306 26.1221 43.6737 24.1529 40.915C23.2865 39.7018 22.4218 38.4867 21.5427 37.2536C21.4612 37.3405 21.4006 37.3921 21.3562 37.4546C18.5097 41.4455 15.6586 45.4337 12.8248 49.4328C12.1286 50.416 12.2626 51.4962 13.1507 52.3228C13.904 53.0235 14.6881 53.6917 15.4558 54.3771C15.8922 54.7664 16.3476 55.1385 16.756 55.5568C17.9755 56.8062 18.0235 58.7148 16.8872 59.9361C15.741 61.1684 13.9864 61.2163 12.6003 60.0538C12.5133 59.9814 12.4219 59.9135 12.2843 59.8058C12.258 59.9452 12.2336 60.0167 12.2336 60.0891C12.2372 63.9642 12.1946 67.8401 12.2644 71.7142C12.3133 74.434 14.6102 76.9863 17.3372 77.3104C18.9705 77.5051 20.6382 77.4408 22.2915 77.4435C26.0741 77.4498 28.7251 74.7998 28.7459 71.0171C28.755 69.3421 28.7477 67.6663 28.7477 65.9913C28.7477 64.3173 28.7477 62.6432 28.7477 60.9447ZM41.1705 39.5596C41.2121 39.5723 41.2529 39.585 41.2945 39.5985C41.424 39.4256 41.558 39.2563 41.6838 39.0807C43.2275 36.9123 44.7268 34.7104 46.3321 32.5882C47.1216 31.5443 47.6539 30.5022 47.4439 29.1677C47.4104 28.954 47.4556 28.7249 47.4819 28.5049C47.6666 26.9567 48.9559 25.7679 50.4524 25.7607C51.9708 25.7535 53.2953 26.9694 53.4402 28.5457C53.4972 29.1667 53.4384 29.7978 53.4954 30.4189C53.5262 30.7602 53.6113 31.1432 53.8033 31.4157C56.3257 34.992 58.8707 38.551 61.4121 42.1137C61.5081 42.2477 61.6249 42.3672 61.7887 42.561C61.8059 42.3563 61.8213 42.2586 61.8213 42.1608C61.8195 39.0137 61.9101 35.862 61.7933 32.7195C61.5877 27.1776 58.8897 23.1786 53.9128 20.7766C51.7127 19.7146 49.3434 19.2483 46.9088 19.7345C43.4837 20.418 41.1985 23.3198 41.1768 26.9187C41.1542 30.8127 41.1714 34.7068 41.1714 38.6008C41.1714 38.9204 41.1714 39.2409 41.1714 39.5605L41.1705 39.5596ZM30.7975 39.6882C30.7975 35.1703 30.8274 30.7937 30.7839 26.418C30.7649 24.4705 29.9274 22.8273 28.5087 21.5045C26.5268 19.6575 24.1393 19.2981 21.5717 19.7155C14.9461 20.7929 10.239 26.2587 10.1702 32.9757C10.1394 36.0015 10.1639 39.0282 10.1666 42.0548C10.1666 42.1997 10.1992 42.3437 10.2273 42.5754C10.3984 42.35 10.5097 42.2097 10.6139 42.0639C12.8963 38.8625 15.1453 35.6348 17.4803 32.4714C18.2245 31.4637 18.6998 30.4678 18.5124 29.2066C18.4807 28.9911 18.5169 28.7629 18.5387 28.5429C18.6944 27.0047 19.971 25.7978 21.4748 25.7616C22.9551 25.7263 24.3096 26.906 24.487 28.4488C24.5676 29.1468 24.5178 29.8594 24.5613 30.5628C24.5766 30.8109 24.6319 31.0943 24.7704 31.2899C26.6871 34.0096 28.6219 36.7167 30.5531 39.4256C30.5956 39.4854 30.6536 39.5343 30.7975 39.6873V39.6882ZM8.08965 50.8606C8.08603 52.3952 8.68992 53.7678 9.85243 54.8289C10.5822 55.4952 11.3255 56.148 12.0634 56.8062C12.7261 57.3974 13.3825 57.995 14.0561 58.5735C14.4165 58.8832 14.8366 58.9203 15.2277 58.6405C15.6378 58.3472 15.7591 57.9189 15.5455 57.4635C15.4223 57.2001 15.2232 56.9529 15.0059 56.7555C13.9764 55.8185 12.928 54.9022 11.8895 53.9742C10.0797 52.3554 9.81802 50.0892 11.225 48.1109C14.2997 43.7887 17.3798 39.47 20.4599 35.1513C21.1815 34.1391 21.8605 34.1445 22.5902 35.1667C25.6378 39.4338 28.6853 43.7017 31.7301 47.9706C33.2683 50.1263 33.0021 52.3581 31.0121 54.1091C29.9519 55.0416 28.8908 55.9742 27.8487 56.9285C27.3 57.4309 27.2548 58.091 27.6839 58.5355C28.0787 58.9438 28.6282 58.9031 29.1796 58.4133C30.4616 57.2743 31.7427 56.1335 33.022 54.9909C35.2783 52.9756 35.5942 50.0747 33.8296 47.5958C30.3204 42.6669 26.8238 37.7289 23.2856 32.8209C22.7134 32.0278 22.3594 31.2464 22.4698 30.2613C22.5187 29.8231 22.4906 29.3732 22.4626 28.9313C22.4209 28.2768 22.0497 27.8512 21.5472 27.8358C21.0248 27.8204 20.6156 28.2722 20.5875 28.9458C20.5622 29.5506 20.5495 30.1581 20.5839 30.7611C20.6183 31.3804 20.4219 31.882 20.0624 32.3827C16.4219 37.4655 12.8013 42.5628 9.16615 47.6501C8.47625 48.6161 8.08331 49.6682 8.08874 50.8606H8.08965ZM51.4022 30.0875C51.4022 29.7045 51.4194 29.3198 51.3986 28.9377C51.3633 28.2903 50.9948 27.8585 50.4914 27.8376C49.9654 27.8159 49.5561 28.2586 49.5235 28.9395C49.4946 29.5434 49.4855 30.1509 49.5163 30.7548C49.548 31.3704 49.3633 31.8747 49.0029 32.3781C45.3633 37.4618 41.7409 42.5582 38.1166 47.6528C36.3774 50.0974 36.716 52.981 38.9686 54.9882C39.5861 55.5387 40.1999 56.0928 40.8174 56.6442C41.5245 57.2761 42.2262 57.9135 42.9441 58.5328C43.3787 58.9076 43.902 58.9167 44.256 58.5717C44.6607 58.177 44.6779 57.7134 44.4018 57.2471C44.2913 57.0615 44.1193 56.9067 43.9554 56.7591C42.9188 55.8302 41.8731 54.9113 40.8364 53.9814C39.0012 52.3364 38.7513 50.0856 40.1872 48.0702C43.2538 43.7669 46.3239 39.4664 49.395 35.1658C50.1256 34.1427 50.8037 34.1373 51.5253 35.1486C54.5828 39.4338 57.6403 43.7189 60.6932 48.0068C62.2034 50.1281 61.9254 52.3699 59.9599 54.0964C58.8843 55.0425 57.806 55.9869 56.7548 56.9592C56.2406 57.4346 56.2134 58.1045 56.619 58.5265C57.0147 58.9375 57.5678 58.8995 58.1156 58.4133C59.413 57.2607 60.7095 56.1082 62.0015 54.9493C64.1998 52.9774 64.5266 50.0503 62.8127 47.6429C59.3152 42.7303 55.8277 37.8104 52.3003 32.9196C51.6711 32.0468 51.194 31.193 51.4013 30.0866L51.4022 30.0875Z" fill="#0C88E0"/>
<defs>
<linearGradient id="paint0_linear_103_4956" x1="44" y1="60.5" x2="44" y2="-10.2143" gradientUnits="userSpaceOnUse">
<stop stop-color="#0C88E0" stop-opacity="0.17"/>
<stop offset="1" stop-color="#0C88E0" stop-opacity="0"/>
</linearGradient>
</defs>
</svg>
