<svg width="80" height="81" viewBox="0 0 80 81" fill="none" xmlns="http://www.w3.org/2000/svg">
<circle cx="40" cy="35.5" r="30" fill="url(#paint0_linear_103_4944)"/>
<path d="M43.2164 75.7658C42.9079 75.4925 42.5656 75.2495 42.2958 74.9424C35.1289 66.7641 27.9754 58.5745 20.7966 50.4067C20.2148 49.7446 19.9527 49.0825 20.007 48.1999C20.5557 39.2707 24.4283 32.2821 32.1368 27.6079C36.1221 25.1913 40.5201 24.1446 45.1689 24.6066C54.8257 25.5667 61.334 30.8318 65.146 39.6004C66.3462 42.3622 66.8442 45.2952 66.9921 48.3056C67.0344 49.1663 66.7759 49.7362 66.2413 50.3447C58.9786 58.6167 51.7357 66.9057 44.4828 75.1854C44.2906 75.4045 44.0405 75.5736 43.8172 75.7658H43.2164ZM50.9841 47.3463C52.7774 45.3987 54.8785 44.066 57.5361 43.7892C60.2028 43.511 62.5131 44.3978 64.5945 46.0657C64.6114 45.965 64.6304 45.9185 64.6241 45.8762C63.7549 40.0892 61.1945 35.2178 56.6648 31.472C52.1231 27.7164 46.884 26.1506 41.0195 26.8219C37.042 27.2769 33.5152 28.8448 30.421 31.3748C26.9562 34.2078 24.5804 37.7916 23.2287 42.0431C22.823 43.3201 22.592 44.6528 22.2807 45.9601C27.3344 42.4481 31.8614 43.144 36.0411 47.3188C40.2792 42.5996 46.6164 42.5052 50.9841 47.3477V47.3463ZM43.4763 70.8276C43.5735 70.5522 43.6355 70.4014 43.6806 70.2458C45.564 63.7903 47.4475 57.3341 49.3274 50.8772C49.8282 49.1586 49.8409 49.1389 48.4893 47.9358C46.6755 46.3214 44.5913 45.5325 42.1394 46.027C40.2419 46.4095 38.7817 47.497 37.5209 48.9128C37.2681 49.1966 37.2216 49.4375 37.3286 49.7988C38.3035 53.0861 39.2579 56.3797 40.2186 59.6719C41.2914 63.3465 42.3648 67.0212 43.4763 70.8276ZM45.9275 70.1641L46.0134 70.1957C52.1808 63.1465 58.3482 56.0979 64.5705 48.9853C64.1064 48.5528 63.7084 48.1478 63.2759 47.7844C61.696 46.4559 59.9119 45.7178 57.8044 45.9164C55.9773 46.0883 54.4728 46.9257 53.1817 48.1739C52.5886 48.7465 51.9878 49.3114 51.742 50.1693C50.4446 54.6998 49.119 59.2225 47.8018 63.748C47.1791 65.8879 46.5516 68.0263 45.9268 70.1648L45.9275 70.1641ZM22.4645 49.0388C28.6439 56.1001 34.7901 63.1247 40.9371 70.1493C40.9948 69.9802 40.9695 69.8689 40.9371 69.7597C39.1121 63.4944 37.2631 57.2369 35.4839 50.9589C35.155 49.7974 34.5929 48.8712 33.723 48.0823C32.1164 46.625 30.2907 45.7445 28.0656 45.9051C25.7327 46.0735 23.988 47.2998 22.4645 49.0395V49.0388Z" fill="#0C88E0"/>
<defs>
<linearGradient id="paint0_linear_103_4944" x1="40" y1="65.5" x2="40" y2="-5.21428" gradientUnits="userSpaceOnUse">
<stop stop-color="#0C88E0" stop-opacity="0.17"/>
<stop offset="1" stop-color="#0C88E0" stop-opacity="0"/>
</linearGradient>
</defs>
</svg>
