<svg width="80" height="81" viewBox="0 0 80 81" fill="none" xmlns="http://www.w3.org/2000/svg">
<path d="M66.1088 72.9088C65.7973 73.3806 65.3635 73.5255 64.8003 73.5246C55.759 73.5119 46.7168 73.5155 37.6755 73.5146C36.7573 73.5146 36.5092 73.31 36.3715 72.4125C35.7956 68.6589 35.226 64.9044 34.6518 61.1508C34.6183 60.9289 34.5676 60.7107 34.4399 60.4816C34.2298 61.8354 34.0188 63.1892 33.8105 64.544C33.4085 67.1611 33.0136 69.78 32.6061 72.3962C32.4612 73.3272 32.2194 73.5155 31.2541 73.5155C25.6649 73.5155 20.0757 73.5155 14.4864 73.5155C11.096 73.5155 7.70549 73.5155 4.31501 73.5155C3.19753 73.5155 2.90412 73.1515 3.02547 72.0358C3.47282 67.9118 3.90388 63.786 4.34127 59.6611C4.81579 55.1894 5.29303 50.7167 5.76574 46.245C6.19589 42.1808 6.56627 38.1102 7.06887 34.055C7.45464 30.9408 7.3994 27.8247 7.40936 24.7041C7.4157 22.662 8.57665 21.5037 10.6269 21.5037C17.7574 21.5028 24.8879 21.5037 32.0184 21.5037C32.2231 21.5037 32.4386 21.4838 32.6306 21.5373C33.0978 21.6658 33.3695 21.9783 33.3369 22.4845C33.3052 22.9853 33.0145 23.2696 32.5255 23.3384C32.3236 23.3665 32.1153 23.352 31.9097 23.352C24.8616 23.352 17.8135 23.352 10.7645 23.352C9.56192 23.352 9.25946 23.6491 9.25855 24.8281C9.25765 26.287 9.25764 27.7459 9.25945 29.2048C9.25945 29.4049 9.27666 29.6059 9.28662 29.835H26.8231C27.1047 28.7918 27.3828 27.7486 27.6698 26.7072C27.7242 26.5107 27.7866 26.306 27.8962 26.1376C28.1625 25.7292 28.5473 25.5644 29.0119 25.7627C29.49 25.9673 29.692 26.3531 29.5543 26.8629C29.2926 27.831 29.0101 28.7927 28.7185 29.8215H40.2419C40.0038 28.953 39.7864 28.1018 39.5365 27.2605C39.2875 26.4228 39.4369 25.9157 40.0309 25.7265C40.6087 25.5417 41.057 25.8695 41.306 26.7226C41.6048 27.7432 41.8656 28.7755 42.1518 29.8369H59.6702C59.6856 29.6567 59.7118 29.481 59.7127 29.3053C59.7164 27.764 59.7173 26.2227 59.7127 24.6814C59.71 23.6989 59.3614 23.352 58.3725 23.352C51.3452 23.3502 44.317 23.352 37.2898 23.3511C37.105 23.3511 36.9194 23.3547 36.7346 23.3493C36.0727 23.3312 35.6552 22.9663 35.6634 22.4175C35.6715 21.8696 36.0881 21.5056 36.7573 21.5037C39.6542 21.4974 42.5521 21.501 45.4499 21.501C49.7451 21.501 54.0393 21.501 58.3345 21.501C60.4146 21.501 61.5601 22.6538 61.5637 24.7484C61.5655 25.5707 61.5954 26.3939 61.5583 27.2143C61.4152 30.392 61.8843 33.5253 62.223 36.6685C62.6477 40.6087 63.086 44.5479 63.518 48.4872C63.9952 52.8349 64.467 57.1835 64.9533 61.5302C65.0665 62.5418 64.8374 63.0561 64.1727 63.1249C63.5633 63.1883 63.2354 62.7745 63.1204 61.7621C62.8795 59.6403 62.6477 57.5167 62.4105 55.3949C62.3951 55.2573 62.3606 55.1224 62.3353 54.9883C61.7919 54.9883 61.2794 54.9684 60.7714 55.001C60.6274 55.0101 60.4472 55.1459 60.3638 55.2763C59.1205 57.2034 57.3329 58.0655 55.1015 57.6906C52.8367 57.3093 51.4503 55.8704 50.9232 53.6155C50.8834 53.4452 50.6787 53.2469 50.5067 53.1844C48.5579 52.4835 47.3299 51.1315 47.0175 49.093C46.6887 46.9513 47.4947 45.238 49.2805 43.9856C49.4453 43.8706 49.5775 43.6062 49.5956 43.4006C49.9479 39.3291 54.1588 37.2155 57.5928 39.3916C57.7485 39.4903 57.9695 39.5845 58.1343 39.5519C58.9321 39.3961 59.7209 39.196 60.6056 38.9904C60.5169 38.1455 60.4182 37.1956 60.315 36.2085H42.4787C42.0911 37.8874 41.7153 39.5211 41.3368 41.1538C41.3042 41.2933 41.258 41.4301 41.2091 41.565C40.9927 42.1627 40.539 42.428 40.0319 42.2587C39.5084 42.0839 39.3074 41.6338 39.4505 41.0207C39.7756 39.6234 40.0907 38.2243 40.4022 36.8243C40.4457 36.6305 40.4475 36.4276 40.4711 36.1985H28.407C28.7076 37.5714 28.9911 38.8872 29.2854 40.2003C29.3524 40.5 29.471 40.7871 29.5453 41.0859C29.6838 41.6401 29.442 42.0966 28.9385 42.2605C28.4513 42.4189 27.9379 42.1799 27.7903 41.6148C27.4226 40.2075 27.1047 38.7876 26.7815 37.3685C26.6963 36.9936 26.6674 36.6051 26.6094 36.1985H8.68623C8.51326 37.8268 8.34211 39.4296 8.16824 41.0696C8.94522 41.0696 9.68598 40.989 10.3996 41.0923C11.1204 41.1964 11.8394 41.7044 12.5123 41.6266C13.1851 41.5487 13.7674 40.8813 14.4457 40.6177C18.6956 38.9669 23.2298 42.0341 23.3113 46.5964C23.3176 46.9369 23.4018 47.1361 23.7079 47.329C25.9981 48.7779 27.1192 50.8888 26.8412 53.5738C26.5496 56.3965 24.9214 58.2665 22.2282 59.1585C21.7908 59.3034 21.6369 59.4809 21.5572 59.9328C21.0754 62.6703 18.9455 64.7269 16.1491 65.2195C13.5691 65.6741 10.8207 64.3538 9.48404 61.9821C9.283 61.6262 9.09826 61.5221 8.67808 61.5529C7.80691 61.6163 6.92669 61.5719 6.00119 61.5719C5.64621 64.9207 5.29394 68.2433 4.93623 71.6165H30.8511C31.0087 70.6186 31.1744 69.5935 31.3302 68.5675C32.0501 63.8394 32.7691 59.1105 33.4836 54.3816C33.5298 54.0782 33.5552 53.7694 33.557 53.4633C33.5642 51.6966 33.5561 49.9289 33.5633 48.1621C33.566 47.4911 33.9255 47.0808 34.4789 47.0763C35.0358 47.0718 35.398 47.4793 35.408 48.1467C35.417 48.7634 35.4406 49.381 35.4053 49.9959C35.2269 53.0758 35.7195 56.094 36.1985 59.1169C36.8189 63.0299 37.3993 66.9483 37.9979 70.8649C38.0351 71.1076 38.0812 71.3494 38.1292 71.6256H41.9462C41.8792 70.6276 41.651 69.6188 41.7805 68.658C42.0785 66.4575 43.7239 64.9261 45.9607 64.5757C46.3156 64.5204 46.5294 64.4063 46.7232 64.0921C48.6828 60.9072 53.2442 60.957 55.1577 64.1827C55.3424 64.4942 55.5335 64.6264 55.9039 64.6798C58.9964 65.1254 60.8628 68.1636 59.9029 71.1429C59.854 71.296 59.8069 71.449 59.749 71.6355H64.1474C64.0387 70.5887 63.9336 69.5754 63.8286 68.562C63.7634 67.929 63.6846 67.2969 63.6366 66.6621C63.5805 65.9186 63.8721 65.4939 64.4399 65.4387C64.9977 65.3844 65.4007 65.7864 65.4749 66.4919C65.6515 68.1663 65.8199 69.8416 65.9974 71.516C66.0119 71.6528 66.0699 71.7859 66.1079 71.9199V72.9061L66.1088 72.9088ZM6.21129 59.6321C7.2527 59.9744 8.21804 59.8368 9.17886 59.5805C10.146 59.3224 10.3905 59.4546 10.7645 60.3838C11.489 62.1831 12.8202 63.2544 14.7536 63.4075C17.5654 63.6303 19.7234 61.6081 19.8366 58.7483C19.8701 57.9106 20.0467 57.7295 20.8599 57.5719C21.3398 57.4787 21.8379 57.3854 22.2762 57.1807C24.0611 56.3458 25.0228 54.9041 25.031 52.9435C25.0382 50.9558 24.0629 49.5105 22.2626 48.6475C21.4902 48.2771 21.3317 48.0562 21.4213 47.3561C21.6822 45.3258 20.7177 43.4567 18.9355 42.5376C17.1679 41.6257 15.0425 41.9272 13.5609 43.301C12.8818 43.9303 12.7197 43.9421 11.8902 43.4866C10.8261 42.9025 9.70138 42.6906 8.50239 42.9722C8.1293 43.0601 7.93188 43.2204 7.88841 43.665C7.59953 46.6072 7.26628 49.544 6.95476 52.4844C6.70392 54.8507 6.46304 57.2179 6.2131 59.633L6.21129 59.6321ZM62.1659 53.1935C62.0654 52.2372 61.9894 51.4838 61.9079 50.7312C61.5746 47.6704 61.235 44.6104 60.9135 41.5487C60.8701 41.1339 60.6871 40.9238 60.2923 41.0017C59.6964 41.1194 59.0807 41.22 58.5292 41.4572C57.7476 41.7932 57.5946 41.8213 56.9453 41.2399C55.8885 40.2936 54.4604 40.1016 53.2243 40.7409C52.0027 41.373 51.3135 42.6662 51.4937 44.0689C51.5716 44.6747 51.3434 45.0342 50.8082 45.2887C49.3104 45.9978 48.6131 47.2665 48.8341 48.8196C49.0351 50.2304 50.1281 51.2719 51.6966 51.549C52.4373 51.6803 52.6483 51.9112 52.6837 52.6329C52.7679 54.3236 53.8292 55.6159 55.3506 55.8803C56.9725 56.162 58.3861 55.3316 59.0553 53.7042C59.3387 53.0142 59.6484 52.8856 60.4037 53.0223C60.9543 53.1219 61.5212 53.1346 62.1659 53.1935ZM46.9477 71.6627C46.8336 68.591 48.931 67.2661 50.628 67.143C51.6051 67.0724 52.5035 67.3286 53.2886 67.9164C54.5229 68.8391 54.9748 70.1278 54.9041 71.6645C55.6612 71.6645 56.3594 71.7008 57.0494 71.6455C57.3084 71.6247 57.6435 71.4562 57.7839 71.2471C58.4431 70.2681 58.5147 69.2104 57.9668 68.1581C57.4099 67.0877 56.5007 66.472 55.2899 66.5073C54.4631 66.5308 54.0339 66.2691 53.7305 65.4767C53.2614 64.2533 52.2562 63.6121 50.9504 63.594C49.6717 63.5759 48.6493 64.1618 48.1558 65.3509C47.8243 66.1487 47.3897 66.4185 46.5375 66.4004C45.3068 66.3751 44.3759 67.0162 43.8425 68.1255C43.3209 69.2104 43.4305 70.2817 44.1332 71.267C44.2518 71.4336 44.4619 71.6337 44.6403 71.6437C45.392 71.6854 46.1481 71.6618 46.9468 71.6618L46.9477 71.6627ZM42.4624 31.7485V34.2896H60.0976C60.0025 33.4266 59.912 32.6007 59.8187 31.7485H42.4624ZM9.15531 31.7485C9.06476 32.6315 8.97963 33.4546 8.89632 34.2697H26.5514V31.7485H9.15622H9.15531ZM40.5181 31.7494H28.4486V34.2887H40.5181V31.7494ZM52.9825 71.6374C53.1428 70.5362 52.7842 69.7212 51.9773 69.2639C51.213 68.8301 50.3047 68.8971 49.6101 69.4377C48.9228 69.9729 48.6647 70.7771 48.9201 71.6374H52.9825Z" fill="#0C88E0"/>
<path d="M9.01666 52.0706C9.03025 49.2588 11.3132 46.9985 14.1332 47.0039C16.9703 47.0093 19.2642 49.3177 19.2451 52.1494C19.227 54.9359 16.8888 57.2532 14.1169 57.2333C11.2752 57.2134 9.00308 54.9132 9.01666 52.0706ZM10.8658 52.0815C10.8577 53.8881 12.2876 55.357 14.0806 55.3832C15.8809 55.4095 17.3978 53.9108 17.396 52.1087C17.3941 50.3138 15.9407 48.8613 14.1377 48.8531C12.3329 48.845 10.8731 50.2839 10.8658 52.0815Z" fill="#0C88E0"/>
<path d="M56.6872 51.4764C54.5926 51.4673 52.9037 49.7558 52.92 47.6585C52.9363 45.5611 54.6461 43.8867 56.7524 43.9039C58.8498 43.9202 60.5522 45.6436 60.526 47.7237C60.4997 49.8201 58.7954 51.4854 56.6863 51.4764H56.6872ZM56.69 49.6263C57.783 49.6344 58.6759 48.7714 58.6777 47.7055C58.6795 46.6343 57.7993 45.7586 56.718 45.7568C55.6313 45.7549 54.7638 46.6252 54.7701 47.7092C54.7774 48.7624 55.635 49.619 56.69 49.6272V49.6263Z" fill="#0C88E0"/>
<circle cx="46" cy="36.5" r="30" fill="url(#paint0_linear_103_5092)"/>
<defs>
<linearGradient id="paint0_linear_103_5092" x1="46" y1="66.5" x2="46" y2="-4.21428" gradientUnits="userSpaceOnUse">
<stop stop-color="#0C88E0" stop-opacity="0.17"/>
<stop offset="1" stop-color="#0C88E0" stop-opacity="0"/>
</linearGradient>
</defs>
</svg>
