<svg width="80" height="80" viewBox="0 0 80 80" fill="none" xmlns="http://www.w3.org/2000/svg">
    <mask id="mask0_104_1060" style="mask-type:alpha" maskUnits="userSpaceOnUse" x="6" y="6" width="69" height="68">
        <ellipse cx="40.5" cy="40" rx="34.5" ry="34" fill="url(#paint0_linear_104_1060)"/>
    </mask>
    <g mask="url(#mask0_104_1060)">
        <path d="M50.2619 56.1721V55.8107C50.3016 51.9761 50.6984 48.9245 51.4524 46.6558C52.2063 44.3872 53.2778 42.5502 54.6667 41.1448C56.0556 39.7395 57.7222 38.4446 59.6667 37.26C60.8373 36.5373 61.8889 35.684 62.8214 34.7003C63.754 33.6965 64.4881 32.5421 65.0238 31.2371C65.5794 29.9321 65.8571 28.4866 65.8571 26.9006C65.8571 24.9331 65.4008 23.2266 64.4881 21.7811C63.5754 20.3356 62.3552 19.2213 60.8274 18.4383C59.2996 17.6554 57.6032 17.2639 55.7381 17.2639C54.1111 17.2639 52.5437 17.6052 51.0357 18.2878C49.5278 18.9704 48.2679 20.0445 47.256 21.51C46.244 22.9756 45.6587 24.8929 45.5 27.262H38C38.1587 23.8489 39.0317 20.9278 40.619 18.4986C42.2262 16.0693 44.3393 14.2122 46.9583 12.9273C49.5972 11.6424 52.5238 11 55.7381 11C59.2302 11 62.2659 11.7027 64.8452 13.108C67.4444 14.5134 69.4484 16.4407 70.8571 18.8901C72.2857 21.3394 73 24.13 73 27.262C73 29.4704 72.6627 31.468 71.9881 33.2548C71.3333 35.0416 70.381 36.6377 69.131 38.043C67.9008 39.4484 66.4127 40.6931 64.6667 41.7772C62.9206 42.8815 61.5218 44.0459 60.4702 45.2706C59.4186 46.4751 58.6548 47.9106 58.1786 49.577C57.7024 51.2433 57.4444 53.3212 57.4048 55.8107V56.1721H50.2619ZM54.0714 74C52.6032 74 51.3433 73.468 50.2917 72.4039C49.2401 71.3399 48.7143 70.065 48.7143 68.5794C48.7143 67.0937 49.2401 65.8188 50.2917 64.7548C51.3433 63.6907 52.6032 63.1587 54.0714 63.1587C55.5397 63.1587 56.7996 63.6907 57.8512 64.7548C58.9028 65.8188 59.4286 67.0937 59.4286 68.5794C59.4286 69.5631 59.1806 70.4665 58.6845 71.2897C58.2083 72.1128 57.5635 72.7753 56.75 73.2772C55.9563 73.7591 55.0635 74 54.0714 74Z" fill="#0C88E0"/>
    </g>
    <ellipse cx="40.5" cy="40" rx="34.5" ry="34" fill="url(#paint1_linear_104_1060)"/>
    <defs>
        <linearGradient id="paint0_linear_104_1060" x1="40.5" y1="74" x2="40.5" y2="-6.14285" gradientUnits="userSpaceOnUse">
            <stop stop-color="#0C88E0" stop-opacity="0.17"/>
            <stop offset="1" stop-color="#0C88E0" stop-opacity="0"/>
        </linearGradient>
        <linearGradient id="paint1_linear_104_1060" x1="40.5" y1="74" x2="40.5" y2="-6.14285" gradientUnits="userSpaceOnUse">
            <stop stop-color="#0C88E0" stop-opacity="0.17"/>
            <stop offset="1" stop-color="#0C88E0" stop-opacity="0"/>
        </linearGradient>
    </defs>
</svg>
