<svg width="80" height="80" viewBox="0 0 80 80" fill="none" xmlns="http://www.w3.org/2000/svg">
    <path d="M75 35C75 51.5685 61.5685 65 45 65C28.4315 65 15 51.5685 15 35C15 18.4315 28.4315 5 45 5C61.5685 5 75 18.4315 75 35Z" fill="url(#paint0_linear_103_4706)"/>
    <path d="M30.2997 42.3764C30.2997 42.3764 28.3284 44.0868 23.3274 45.6126C18.3003 47.0539 15.7161 46.6913 15.7161 46.6913C14.7072 45.7857 15.8713 45.4411 15.8713 45.4411C18.6182 45.6476 22.9453 44.3201 22.9453 44.3201C22.9453 44.3201 27.2976 43.0788 29.4901 41.4107C29.4901 41.4107 30.6542 41.066 30.3005 42.3748L30.2997 42.3764Z" fill="#0C88E0"/>
    <mask id="mask0_103_4706" style="mask-type:luminance" maskUnits="userSpaceOnUse" x="15" y="41" width="16" height="6">
        <path d="M30.3007 42.3764C30.3007 42.3764 28.3294 44.0868 23.3283 45.6126C18.3013 47.0539 15.717 46.6913 15.717 46.6913C14.7082 45.7857 15.8723 45.4411 15.8723 45.4411C18.6191 45.6476 22.9463 44.3201 22.9463 44.3201C22.9463 44.3201 27.2986 43.0788 29.491 41.4107C29.491 41.4107 30.6551 41.066 30.3015 42.3748L30.3007 42.3764Z" fill="white"/>
    </mask>
    <g mask="url(#mask0_103_4706)">
        <path d="M15.1249 45.6621L16.9669 47.4944L15.3541 47.9724L14.707 45.7865L15.1249 45.6621Z" fill="#0C88E0"/>
        <path d="M22.5485 43.4653L24.3906 45.2976L16.9671 47.4941L15.125 45.6618L22.5485 43.4653Z" fill="#0C88E0"/>
        <path d="M29.9723 41.269L30.7828 42.0746L28.905 43.9622L24.3909 45.2978L22.5488 43.4655L29.9723 41.269Z" fill="#0C88E0"/>
        <path d="M30.9122 41.9437L30.7822 42.0746L29.9717 41.269L30.6529 41.0674L30.9122 41.9437Z" fill="#0C88E0"/>
    </g>
    <path d="M20.2574 27.3591C20.1127 27.6875 19.6265 28.5598 18.4218 28.9614C18.408 28.9663 18.3942 28.9703 18.3803 28.9736C17.1512 29.2922 16.2692 28.8248 15.9684 28.6281C15.8953 28.5801 15.8375 28.5126 15.7993 28.4346C15.7896 28.4151 15.7806 28.3956 15.7717 28.3769C15.5977 28.003 15.944 27.5957 16.3407 27.7079C17.1951 27.9493 18.0178 27.6762 18.0178 27.6762C18.0178 27.6762 18.8567 27.4567 19.442 26.7901C19.7135 26.4804 20.2265 26.634 20.2834 27.0421C20.2866 27.0624 20.2891 27.0835 20.2915 27.1055C20.3021 27.1917 20.2907 27.2803 20.2549 27.3599L20.2574 27.3591Z" fill="#0C88E0"/>
    <mask id="mask1_103_4706" style="mask-type:luminance" maskUnits="userSpaceOnUse" x="15" y="26" width="6" height="4">
        <path d="M20.2574 27.3591C20.1127 27.6875 19.6265 28.5598 18.4218 28.9614C18.408 28.9663 18.3942 28.9703 18.3803 28.9736C17.1512 29.2922 16.2692 28.8248 15.9684 28.6281C15.8953 28.5801 15.8375 28.5126 15.7993 28.4346C15.7896 28.4151 15.7806 28.3956 15.7717 28.3769C15.5977 28.003 15.944 27.5957 16.3407 27.7079C17.1951 27.9493 18.0178 27.6762 18.0178 27.6762C18.0178 27.6762 18.8567 27.4567 19.442 26.7901C19.7135 26.4804 20.2265 26.634 20.2834 27.0421C20.2866 27.0624 20.2891 27.0835 20.2915 27.1055C20.3021 27.1917 20.2907 27.2803 20.2549 27.3599L20.2574 27.3591Z" fill="white"/>
    </mask>
    <g mask="url(#mask1_103_4706)">
        <path d="M15.6543 28.1924L16.885 29.4166L16.0868 29.6524L15.6543 28.1924Z" fill="#0C88E0"/>
        <path d="M15.543 27.8161L15.686 27.6731L17.5427 27.1235L19.1686 28.7404L16.8851 29.4168L15.6543 28.1925L15.543 27.8161Z" fill="#0C88E0"/>
        <path d="M19.8268 26.4468L20.3161 26.9337L20.5706 27.7946L19.8211 28.5473L19.1683 28.74L17.5425 27.1231L19.8268 26.4468Z" fill="#0C88E0"/>
        <path d="M20.3165 26.9339L19.8271 26.447L20.1442 26.3535L20.3165 26.9339Z" fill="#0C88E0"/>
    </g>
    <path d="M16.0341 52.9303C15.0911 52.8807 14.3977 52.1581 14.2628 52.0077C14.0384 51.7744 11.3217 48.9113 8.71627 44.7329C7.14653 42.2161 5.94911 39.7465 5.15733 37.3931C4.15583 34.4162 3.8014 31.6125 4.10542 29.0608V29.0526C4.98987 22.2981 8.76585 17.2605 14.2075 15.5754C16.7966 14.7738 19.5995 14.8104 22.3114 15.681C25.1534 16.5931 27.8669 18.4279 30.1568 20.9853L30.1617 20.991C31.855 22.9241 33.1476 25.4368 34.0036 28.4592C34.6807 30.8484 35.0888 33.5619 35.2164 36.5257C35.4286 41.4447 34.8059 45.341 34.7522 45.6613C34.7214 45.897 34.4986 47.2318 33.3467 47.687C32.3558 48.0781 30.9681 47.8399 30.8129 47.8114C26.9385 47.0993 21.5164 48.7788 18.7257 51.5549L18.698 51.5817C18.4647 51.8077 17.5307 52.6637 16.5641 52.8848C16.3796 52.9271 16.2016 52.9401 16.0317 52.9311L16.0341 52.9303ZM5.51989 29.2323C4.88745 34.5569 7.55868 40.1765 9.91044 43.9541C12.4931 48.1016 15.2716 50.9997 15.2992 51.0281L15.3244 51.0558C15.4472 51.1931 15.887 51.576 16.2479 51.4939C16.7901 51.3704 17.4949 50.7655 17.7225 50.542C19.2232 49.0495 21.4335 47.7992 23.9462 47.0213C26.4589 46.2433 28.9895 46.0254 31.0722 46.4083C31.5038 46.4864 32.3623 46.5425 32.824 46.3604C33.1687 46.2246 33.3158 45.6596 33.3394 45.4719L33.3443 45.4393C33.3508 45.4003 34.0052 41.439 33.7914 36.5583C33.5971 32.1124 32.6232 25.9676 29.0919 21.9323C24.9314 17.2882 19.5248 15.4209 14.6286 16.937C9.73485 18.4514 6.33037 23.0485 5.51989 29.2331V29.2323ZM20.3612 41.5455C19.7491 41.5138 19.1516 41.3699 18.5964 41.1171C17.36 40.5529 16.4389 39.4969 15.9317 38.063L15.9227 38.0361C15.1058 35.3999 16.5861 32.5913 19.2232 31.7743C21.8594 30.9581 24.6689 32.4392 25.485 35.0747L25.4932 35.1023C25.885 36.5721 25.7216 37.9646 25.0201 39.1287C24.3957 40.1643 23.3861 40.9415 22.1773 41.3154C21.5782 41.5008 20.9628 41.5772 20.3612 41.5455ZM17.2811 37.6012C18.1095 39.9262 20.1239 40.4586 21.7554 39.953C23.3869 39.4482 24.7485 37.8703 24.1193 35.4828C23.53 33.6058 21.5253 32.553 19.6451 33.1351C17.764 33.7179 16.7064 35.7193 17.2811 37.6004V37.6012Z" fill="#0C88E0"/>
    <mask id="mask2_103_4706" style="mask-type:luminance" maskUnits="userSpaceOnUse" x="4" y="15" width="32" height="38">
        <path d="M16.0341 52.9303C15.0911 52.8807 14.3977 52.1581 14.2628 52.0077C14.0384 51.7744 11.3217 48.9113 8.71627 44.7329C7.14653 42.2161 5.94911 39.7465 5.15733 37.3931C4.15583 34.4162 3.8014 31.6125 4.10542 29.0608V29.0526C4.98987 22.2981 8.76585 17.2605 14.2075 15.5754C16.7966 14.7738 19.5995 14.8104 22.3114 15.681C25.1534 16.5931 27.8669 18.4279 30.1568 20.9853L30.1617 20.991C31.855 22.9241 33.1476 25.4368 34.0036 28.4592C34.6807 30.8484 35.0888 33.5619 35.2164 36.5257C35.4286 41.4447 34.8059 45.341 34.7522 45.6613C34.7214 45.897 34.4986 47.2318 33.3467 47.687C32.3558 48.0781 30.9681 47.8399 30.8129 47.8114C26.9385 47.0993 21.5164 48.7788 18.7257 51.5549L18.698 51.5817C18.4647 51.8077 17.5307 52.6637 16.5641 52.8848C16.3796 52.9271 16.2016 52.9401 16.0317 52.9311L16.0341 52.9303ZM5.51989 29.2323C4.88745 34.5569 7.55868 40.1765 9.91044 43.9541C12.4931 48.1016 15.2716 50.9997 15.2992 51.0281L15.3244 51.0558C15.4472 51.1931 15.887 51.576 16.2479 51.4939C16.7901 51.3704 17.4949 50.7655 17.7225 50.542C19.2232 49.0495 21.4335 47.7992 23.9462 47.0213C26.4589 46.2433 28.9895 46.0254 31.0722 46.4083C31.5038 46.4864 32.3623 46.5425 32.824 46.3604C33.1687 46.2246 33.3158 45.6596 33.3394 45.4719L33.3443 45.4393C33.3508 45.4003 34.0052 41.439 33.7914 36.5583C33.5971 32.1124 32.6232 25.9676 29.0919 21.9323C24.9314 17.2882 19.5248 15.4209 14.6286 16.937C9.73485 18.4514 6.33037 23.0485 5.51989 29.2331V29.2323ZM20.3612 41.5455C19.7491 41.5138 19.1516 41.3699 18.5964 41.1171C17.36 40.5529 16.4389 39.4969 15.9317 38.063L15.9227 38.0361C15.1058 35.3999 16.5861 32.5913 19.2232 31.7743C21.8594 30.9581 24.6689 32.4392 25.485 35.0747L25.4932 35.1023C25.885 36.5721 25.7216 37.9646 25.0201 39.1287C24.3957 40.1643 23.3861 40.9415 22.1773 41.3154C21.5782 41.5008 20.9628 41.5772 20.3612 41.5455ZM17.2811 37.6012C18.1095 39.9262 20.1239 40.4586 21.7554 39.953C23.3869 39.4482 24.7485 37.8703 24.1193 35.4828C23.53 33.6058 21.5253 32.553 19.6451 33.1351C17.764 33.7179 16.7064 35.7193 17.2811 37.6004V37.6012Z" fill="white"/>
    </mask>
    <g mask="url(#mask2_103_4706)">
        <path d="M20.9124 32.7358L16.8299 36.1387L16.2324 34.1202L20.9124 32.7358Z" fill="#0C88E0"/>
        <path d="M22.5644 32.2466L23.4895 33.3562L25.1511 38.971L18.7282 40.8716L17.956 39.9449L16.8301 36.1388L20.9125 32.736L22.5644 32.2466Z" fill="#0C88E0"/>
        <path d="M23.2574 30.5439L23.3737 30.683L15.6226 37.1448L14.4414 33.1534L23.2574 30.5439Z" fill="#0C88E0"/>
        <path d="M23.3742 30.6831L24.6326 32.1927L26.9193 39.9202L18.6601 42.3647L16.3457 39.5869L15.623 37.145L23.3742 30.6831Z" fill="#0C88E0"/>
        <path d="M10.3231 18.144L2.06639 25.0262L0.858398 20.9445L10.3231 18.144Z" fill="#0C88E0"/>
        <path d="M23.1143 14.3594L31.25 24.1184L8.28763 43.2592L7.0081 41.7245L2.06641 25.0264L10.3232 18.1443L23.1143 14.3594Z" fill="#0C88E0"/>
        <path d="M31.2504 24.1182L32.53 25.6538L37.4708 42.351L32.0788 46.8456L15.3929 51.7832L8.28809 43.259L31.2504 24.1182Z" fill="#0C88E0"/>
        <path d="M32.0791 46.8457L37.4712 42.3511L38.2597 45.0166L32.0791 46.8457Z" fill="#0C88E0"/>
        <path d="M13.0306 15.8872L1.51248 25.4877L-0.171875 19.7941L13.0306 15.8872Z" fill="#0C88E0"/>
        <path d="M23.5613 12.7715L32.2945 23.2483L7.19821 44.167L6.95352 43.8735L1.5127 25.4879L13.0309 15.8874L23.5613 12.7715Z" fill="#0C88E0"/>
        <path d="M32.2945 23.2485L32.6131 23.6306L38.0182 41.8959L29.2656 49.1918L14.9242 53.4352L7.19824 44.1672L32.2945 23.2485Z" fill="#0C88E0"/>
        <path d="M29.2656 49.1914L38.0183 41.8955L39.2986 46.2218L29.2656 49.1914Z" fill="#0C88E0"/>
    </g>
    <path d="M27.8596 33.3449C27.341 33.4985 26.7939 33.201 26.641 32.6824C26.4874 32.1637 26.7849 31.6166 27.3036 31.4638C27.8222 31.3102 28.3693 31.6077 28.5221 32.1263C28.6758 32.645 28.3782 33.1921 27.8596 33.3449ZM27.3767 31.7125C26.9955 31.8255 26.7768 32.2279 26.8898 32.6092C27.0028 32.9904 27.4052 33.2091 27.7864 33.0961C28.1677 32.9831 28.3864 32.5807 28.2734 32.1995C28.1604 31.8182 27.758 31.5996 27.3767 31.7125Z" fill="#0C88E0"/>
    <path d="M29.3821 31.5002C28.8634 31.6538 28.3163 31.3563 28.1635 30.8376C28.0099 30.319 28.3074 29.7719 28.826 29.6191C29.3447 29.4654 29.8918 29.763 30.0446 30.2816C30.1974 30.8002 29.9007 31.3473 29.3821 31.501V31.5002ZM28.8992 29.8678C28.5179 29.9808 28.2993 30.3832 28.4123 30.7645C28.5253 31.1457 28.9276 31.3644 29.3089 31.2514C29.6902 31.1384 29.9088 30.736 29.7958 30.3548C29.6828 29.9735 29.2804 29.7548 28.8992 29.8678Z" fill="#0C88E0"/>
    <path d="M30.1408 34.0641C29.6222 34.2178 29.0751 33.9202 28.9223 33.4016C28.7687 32.883 29.0662 32.3359 29.5848 32.183C30.1035 32.0294 30.6505 32.3269 30.8034 32.8456C30.957 33.3642 30.6595 33.9113 30.1408 34.0649V34.0641ZM29.658 32.4318C29.2767 32.5448 29.058 32.9472 29.171 33.3284C29.284 33.7097 29.6864 33.9284 30.0677 33.8154C30.4489 33.7024 30.6676 33.3 30.5546 32.9187C30.4416 32.5375 30.0392 32.3188 29.658 32.4318Z" fill="#0C88E0"/>
    <path d="M12.0313 38.029C11.5127 38.1826 10.9656 37.8851 10.8119 37.3664C10.6583 36.8478 10.9558 36.3007 11.4745 36.1479C11.9931 35.9942 12.5402 36.2918 12.693 36.8104C12.8467 37.329 12.5491 37.8761 12.0305 38.029H12.0313ZM11.5484 36.3966C11.1672 36.5096 10.9485 36.912 11.0615 37.2933C11.1745 37.6745 11.5769 37.8932 11.9581 37.7802C12.3394 37.6672 12.5581 37.2648 12.4451 36.8836C12.3321 36.5023 11.9297 36.2836 11.5484 36.3966Z" fill="#0C88E0"/>
    <path d="M10.509 39.8732C9.99038 40.0268 9.44328 39.7293 9.29046 39.2107C9.13682 38.692 9.43434 38.1449 9.95298 37.9921C10.4716 37.8385 11.0187 38.136 11.1715 38.6546C11.3252 39.1733 11.0277 39.7204 10.509 39.874V39.8732ZM10.0261 38.2409C9.64489 38.3539 9.42621 38.7563 9.53921 39.1375C9.6522 39.5188 10.0546 39.7374 10.4359 39.6244C10.8171 39.5115 11.0358 39.1091 10.9228 38.7278C10.8098 38.3465 10.4074 38.1279 10.0261 38.2409Z" fill="#0C88E0"/>
    <path d="M9.75023 37.3092C9.23159 37.4629 8.6845 37.1653 8.53167 36.6467C8.37803 36.1281 8.67555 35.581 9.19419 35.4282C9.71283 35.2745 10.2599 35.572 10.4128 36.0907C10.5664 36.6093 10.2689 37.1564 9.75023 37.31V37.3092ZM9.26735 35.6769C8.8861 35.7899 8.66742 36.1923 8.78042 36.5735C8.89341 36.9548 9.29581 37.1735 9.67706 37.0605C10.0583 36.9475 10.277 36.5451 10.164 36.1638C10.051 35.7826 9.64861 35.5639 9.26735 35.6769Z" fill="#0C88E0"/>
    <path d="M47.4564 69.4307C47.4564 69.4307 44.8802 69.0153 40.5011 66.1571C36.1715 63.2249 34.792 61.0098 34.792 61.0098C34.84 59.6546 35.8504 60.3269 35.8504 60.3269C37.4543 62.5665 41.2473 65.0353 41.2473 65.0353C41.2473 65.0353 44.9916 67.5781 47.6767 68.1902C47.6767 68.1902 48.6871 68.8625 47.4564 69.4307Z" fill="#0C88E0"/>
    <mask id="mask3_103_4706" style="mask-type:luminance" maskUnits="userSpaceOnUse" x="34" y="60" width="15" height="10">
        <path d="M47.4564 69.4307C47.4564 69.4307 44.8802 69.0153 40.5011 66.1571C36.1715 63.2249 34.792 61.0098 34.792 61.0098C34.84 59.6546 35.8504 60.3269 35.8504 60.3269C37.4543 62.5665 41.2473 65.0353 41.2473 65.0353C41.2473 65.0353 44.9916 67.5781 47.6767 68.1902C47.6767 68.1902 48.6871 68.8625 47.4564 69.4307Z" fill="white"/>
    </mask>
    <g mask="url(#mask3_103_4706)">
        <path d="M35.204 59.8962L34.9788 62.4845L33.5781 61.5529L34.8406 59.6548L35.204 59.8962Z" fill="#0C88E0"/>
        <path d="M41.6501 64.183L41.4257 66.7713L34.9785 62.4848L35.2037 59.8965L41.6501 64.183Z" fill="#0C88E0"/>
        <path d="M48.0965 68.4691L47.9982 69.6072L45.3456 69.3771L41.4258 66.7709L41.6501 64.1826L48.0965 68.4691Z" fill="#0C88E0"/>
        <path d="M48.1818 69.6236L47.998 69.6073L48.0964 68.4692L48.6882 68.8627L48.1818 69.6236Z" fill="#0C88E0"/>
    </g>
    <path d="M52.5374 52.0944C52.1927 52.1936 51.2115 52.3805 50.1311 51.7139C50.119 51.7066 50.1068 51.6985 50.0946 51.6896C49.0614 50.9514 48.8541 49.9743 48.8126 49.6182C48.8028 49.5321 48.8167 49.4435 48.8533 49.3646C48.8622 49.3451 48.8711 49.3256 48.8801 49.3069C49.0557 48.9338 49.5898 48.9387 49.7588 49.3142C50.1222 50.1247 50.8587 50.5807 50.8587 50.5807C50.8587 50.5807 51.5643 51.0839 52.452 51.1051C52.8642 51.1148 53.0747 51.6066 52.7991 51.9123C52.7853 51.9277 52.7707 51.9432 52.756 51.9594C52.6967 52.0237 52.6211 52.0708 52.5374 52.0952V52.0944Z" fill="#0C88E0"/>
    <mask id="mask4_103_4706" style="mask-type:luminance" maskUnits="userSpaceOnUse" x="48" y="49" width="5" height="4">
        <path d="M52.5374 52.0944C52.1927 52.1936 51.2115 52.3805 50.1311 51.7139C50.119 51.7066 50.1068 51.6985 50.0946 51.6896C49.0614 50.9514 48.8541 49.9743 48.8126 49.6182C48.8028 49.5321 48.8167 49.4435 48.8533 49.3646C48.8622 49.3451 48.8711 49.3256 48.8801 49.3069C49.0557 48.9338 49.5898 48.9387 49.7588 49.3142C50.1222 50.1247 50.8587 50.5807 50.8587 50.5807C50.8587 50.5807 51.5643 51.0839 52.452 51.1051C52.8642 51.1148 53.0747 51.6066 52.7991 51.9123C52.7853 51.9277 52.7707 51.9432 52.756 51.9594C52.6967 52.0237 52.6211 52.0708 52.5374 52.0952V52.0944Z" fill="white"/>
    </mask>
    <g mask="url(#mask4_103_4706)">
        <path d="M48.9465 49.0972L48.7961 50.827L48.1035 50.3661L48.9465 49.0972Z" fill="#0C88E0"/>
        <path d="M49.1633 48.7705L49.3649 48.7884L50.9778 49.8606L50.7794 52.1457L48.7959 50.8272L48.9463 49.0973L49.1633 48.7705Z" fill="#0C88E0"/>
        <path d="M52.9612 51.1802L52.9018 51.8671L52.4043 52.615L51.3459 52.5231L50.7793 52.1459L50.9776 49.8608L52.9612 51.1802Z" fill="#0C88E0"/>
        <path d="M52.9023 51.8671L52.9617 51.1802L53.2373 51.3631L52.9023 51.8671Z" fill="#0C88E0"/>
    </g>
    <path d="M30.2096 65.2547C29.643 64.4995 29.7527 63.5037 29.782 63.3037C29.8177 62.9818 30.2713 59.0611 31.8061 54.3828C32.7304 51.5644 33.8571 49.0615 35.1553 46.9446C36.7966 44.2661 38.7208 42.1964 40.8734 40.7933L40.8807 40.7885C46.6296 37.1344 52.9167 36.8003 57.699 39.8951C59.9752 41.3681 61.7441 43.541 62.8155 46.1797C63.9381 48.9452 64.2714 52.2034 63.778 55.6014V55.6095C63.3797 58.1482 62.2806 60.752 60.5109 63.3476C59.1119 65.3994 57.2918 67.4528 55.0993 69.4518C51.4615 72.7693 48.0725 74.7902 47.7921 74.9552C47.5913 75.0828 46.4247 75.7681 45.3362 75.1763C44.4006 74.6674 43.6934 73.4497 43.6161 73.3123C41.6773 69.8826 36.9112 66.8 32.9914 66.4399L32.9531 66.4359C32.6296 66.4017 31.3745 66.2343 30.5851 65.6343C30.4347 65.5197 30.3104 65.3921 30.2079 65.2555L30.2096 65.2547ZM41.6481 41.9891C37.1575 44.9189 34.5587 50.5727 33.1694 54.7998C31.6435 59.4416 31.2021 63.4313 31.1981 63.4712L31.1932 63.5078C31.1664 63.6898 31.155 64.2735 31.4493 64.4971C31.8915 64.8336 32.8084 64.9872 33.1247 65.0181C35.2317 65.2124 37.6087 66.1058 39.8174 67.5349C42.0261 68.964 43.8161 70.7654 44.8583 72.6091C45.0753 72.9904 45.5826 73.6854 46.0191 73.9228C46.3443 74.1 46.8718 73.8504 47.0312 73.7488L47.0588 73.7318C47.093 73.7114 50.5511 71.6726 54.1596 68.3787C57.4454 65.3783 61.536 60.6902 62.3676 55.3924C63.2618 49.2216 61.2271 43.8759 56.9243 41.0917C52.6232 38.3091 46.9133 38.6448 41.6489 41.9891H41.6481ZM41.7196 61.2731C41.3522 60.7829 41.0782 60.2325 40.9164 59.6448C40.5563 58.3344 40.7758 56.95 41.5505 55.642L41.5651 55.6184C43.0642 53.3016 46.1687 52.635 48.4863 54.134C50.8031 55.6331 51.4689 58.7384 49.9699 61.056L49.9536 61.0796C49.0773 62.3233 47.9042 63.0907 46.5605 63.2988C45.3655 63.4842 44.1218 63.2078 43.0593 62.5201C42.5325 62.1794 42.0797 61.7559 41.718 61.2739L41.7196 61.2731ZM42.7707 56.3801C41.518 58.5067 42.4024 60.3943 43.8356 61.3218C45.2696 62.2502 47.3531 62.2827 48.7814 60.2683C49.843 58.6124 49.3659 56.3996 47.7124 55.3298C46.0589 54.2609 43.8454 54.7324 42.7707 56.3801Z" fill="#0C88E0"/>
    <mask id="mask5_103_4706" style="mask-type:luminance" maskUnits="userSpaceOnUse" x="29" y="37" width="35" height="39">
        <path d="M30.2096 65.2547C29.643 64.4995 29.7527 63.5037 29.782 63.3037C29.8177 62.9818 30.2713 59.0611 31.8061 54.3828C32.7304 51.5644 33.8571 49.0615 35.1553 46.9446C36.7966 44.2661 38.7208 42.1964 40.8734 40.7933L40.8807 40.7885C46.6296 37.1344 52.9167 36.8003 57.699 39.8951C59.9752 41.3681 61.7441 43.541 62.8155 46.1797C63.9381 48.9452 64.2714 52.2034 63.778 55.6014V55.6095C63.3797 58.1482 62.2806 60.752 60.5109 63.3476C59.1119 65.3994 57.2918 67.4528 55.0993 69.4518C51.4615 72.7693 48.0725 74.7902 47.7921 74.9552C47.5913 75.0828 46.4247 75.7681 45.3362 75.1763C44.4006 74.6674 43.6934 73.4497 43.6161 73.3123C41.6773 69.8826 36.9112 66.8 32.9914 66.4399L32.9531 66.4359C32.6296 66.4017 31.3745 66.2343 30.5851 65.6343C30.4347 65.5197 30.3104 65.3921 30.2079 65.2555L30.2096 65.2547ZM41.6481 41.9891C37.1575 44.9189 34.5587 50.5727 33.1694 54.7998C31.6435 59.4416 31.2021 63.4313 31.1981 63.4712L31.1932 63.5078C31.1664 63.6898 31.155 64.2735 31.4493 64.4971C31.8915 64.8336 32.8084 64.9872 33.1247 65.0181C35.2317 65.2124 37.6087 66.1058 39.8174 67.5349C42.0261 68.964 43.8161 70.7654 44.8583 72.6091C45.0753 72.9904 45.5826 73.6854 46.0191 73.9228C46.3443 74.1 46.8718 73.8504 47.0312 73.7488L47.0588 73.7318C47.093 73.7114 50.5511 71.6726 54.1596 68.3787C57.4454 65.3783 61.536 60.6902 62.3676 55.3924C63.2618 49.2216 61.2271 43.8759 56.9243 41.0917C52.6232 38.3091 46.9133 38.6448 41.6489 41.9891H41.6481ZM41.7196 61.2731C41.3522 60.7829 41.0782 60.2325 40.9164 59.6448C40.5563 58.3344 40.7758 56.95 41.5505 55.642L41.5651 55.6184C43.0642 53.3016 46.1687 52.635 48.4863 54.134C50.8031 55.6331 51.4689 58.7384 49.9699 61.056L49.9536 61.0796C49.0773 62.3233 47.9042 63.0907 46.5605 63.2988C45.3655 63.4842 44.1218 63.2078 43.0593 62.5201C42.5325 62.1794 42.0797 61.7559 41.718 61.2739L41.7196 61.2731ZM42.7707 56.3801C41.518 58.5067 42.4024 60.3943 43.8356 61.3218C45.2696 62.2502 47.3531 62.2827 48.7814 60.2683C49.843 58.6124 49.3659 56.3996 47.7124 55.3298C46.0589 54.2609 43.8454 54.7324 42.7707 56.3801Z" fill="white"/>
    </mask>
    <g mask="url(#mask5_103_4706)">
        <path d="M48.8345 56.0464L43.605 55.0969L44.7707 53.3442L48.8345 56.0464Z" fill="#0C88E0"/>
        <path d="M50.2687 56.9997L50.0102 58.4215L46.7683 63.2973L41.1909 59.5888L41.4063 58.402L43.6045 55.0967L48.8339 56.0462L50.2687 56.9997Z" fill="#0C88E0"/>
        <path d="M52.0195 56.4404L51.987 56.6184L42.0581 54.8154L44.3627 51.3491L52.0195 56.4404Z" fill="#0C88E0"/>
        <path d="M51.9871 56.6185L51.6359 58.5524L47.1738 65.263L40.0015 60.4936L40.6477 56.9363L42.0581 54.8154L51.9871 56.6185Z" fill="#0C88E0"/>
        <path d="M53.2371 38.563L42.6611 36.6429L45.0186 33.0986L53.2371 38.563Z" fill="#0C88E0"/>
        <path d="M64.3459 45.9496L62.0754 58.4506L32.6626 53.1089L33.0195 51.1433L42.6614 36.6426L53.2374 38.5627L64.3459 45.9496Z" fill="#0C88E0"/>
        <path d="M62.0752 58.4505L61.7183 60.417L52.0764 74.9169L45.169 73.6626L30.6797 64.0279L32.6624 53.1089L62.0752 58.4505Z" fill="#0C88E0"/>
        <path d="M45.1689 73.6626L52.0763 74.9169L50.5366 77.2321L45.1689 73.6626Z" fill="#0C88E0"/>
        <path d="M56.7052 39.1928L41.9517 36.5135L45.2399 31.5693L56.7052 39.1928Z" fill="#0C88E0"/>
        <path d="M65.8495 45.2736L63.4124 58.694L31.2666 52.8565L31.3349 52.4801L41.9515 36.5137L56.7051 39.193L65.8495 45.2736Z" fill="#0C88E0"/>
        <path d="M63.4125 58.694L63.3231 59.1833L52.7764 75.0449L41.5655 73.0086L29.1108 64.7274L31.2667 52.8564L63.4125 58.694Z" fill="#0C88E0"/>
        <path d="M41.5654 73.0083L52.7763 75.0446L50.2782 78.8019L41.5654 73.0083Z" fill="#0C88E0"/>
    </g>
    <path d="M52.8213 61.7658C52.3709 61.4666 52.2482 60.8561 52.5473 60.4058C52.8465 59.9554 53.457 59.8327 53.9074 60.1318C54.3577 60.431 54.4805 61.0415 54.1813 61.4918C53.8822 61.9422 53.2717 62.0649 52.8213 61.7658ZM53.7643 60.3481C53.4326 60.1278 52.9839 60.218 52.7636 60.5497C52.5433 60.8813 52.6335 61.3301 52.9652 61.5504C53.2969 61.7707 53.7456 61.6804 53.9659 61.3488C54.1862 61.0171 54.0959 60.5684 53.7643 60.3481Z" fill="#0C88E0"/>
    <path d="M55.2129 61.7511C54.7625 61.452 54.6398 60.8415 54.939 60.3911C55.2381 59.9408 55.8486 59.818 56.299 60.1172C56.7493 60.4163 56.8721 61.0268 56.5729 61.4772C56.2738 61.9275 55.6633 62.0503 55.2129 61.7511ZM56.1559 60.3334C55.8242 60.1131 55.3755 60.2033 55.1552 60.535C54.9349 60.8667 55.0251 61.3154 55.3568 61.5357C55.6885 61.756 56.1372 61.6658 56.3575 61.3341C56.5778 61.0024 56.4875 60.5537 56.1559 60.3334Z" fill="#0C88E0"/>
    <path d="M53.7324 63.9777C53.2821 63.6785 53.1593 63.068 53.4585 62.6177C53.7576 62.1673 54.3681 62.0446 54.8185 62.3437C55.2688 62.6429 55.3916 63.2534 55.0924 63.7037C54.7933 64.1541 54.1828 64.2768 53.7324 63.9777ZM54.6754 62.56C54.3437 62.3397 53.895 62.4299 53.6747 62.7616C53.4544 63.0932 53.5446 63.542 53.8763 63.7623C54.208 63.9826 54.6567 63.8923 54.877 63.5607C55.0973 63.229 55.0071 62.7803 54.6754 62.56Z" fill="#0C88E0"/>
    <path d="M39.0762 52.6261C38.6258 52.327 38.5031 51.7165 38.8022 51.2661C39.1014 50.8158 39.7119 50.693 40.1622 50.9922C40.6126 51.2913 40.7353 51.9018 40.4362 52.3522C40.137 52.8025 39.5265 52.9253 39.0762 52.6261ZM40.0192 51.2084C39.6875 50.9881 39.2388 51.0783 39.0185 51.41C38.7982 51.7417 38.8884 52.1904 39.2201 52.4107C39.5517 52.631 40.0005 52.5408 40.2208 52.2091C40.4411 51.8774 40.3508 51.4287 40.0192 51.2084Z" fill="#0C88E0"/>
    <path d="M36.6836 52.6418C36.2333 52.3426 36.1105 51.7321 36.4097 51.2817C36.7088 50.8314 37.3193 50.7086 37.7697 51.0078C38.22 51.307 38.3428 51.9174 38.0436 52.3678C37.7445 52.8182 37.134 52.9409 36.6836 52.6418ZM37.6266 51.224C37.2949 51.0037 36.8462 51.094 36.6259 51.4256C36.4056 51.7573 36.4958 52.206 36.8275 52.4263C37.1592 52.6466 37.6079 52.5564 37.8282 52.2247C38.0485 51.8931 37.9583 51.4443 37.6266 51.224Z" fill="#0C88E0"/>
    <path d="M38.1651 50.4152C37.7147 50.116 37.5919 49.5055 37.8911 49.0552C38.1903 48.6048 38.8007 48.4821 39.2511 48.7812C39.7015 49.0804 39.8242 49.6909 39.5251 50.1412C39.2259 50.5916 38.6154 50.7143 38.1651 50.4152ZM39.108 48.9975C38.7764 48.7772 38.3276 48.8674 38.1073 49.1991C37.887 49.5307 37.9773 49.9795 38.3089 50.1998C38.6406 50.4201 39.0893 50.3298 39.3096 49.9982C39.5299 49.6665 39.4397 49.2178 39.108 48.9975Z" fill="#0C88E0"/>
    <defs>
        <linearGradient id="paint0_linear_103_4706" x1="32.5" y1="65" x2="32.5" y2="-5.71428" gradientUnits="userSpaceOnUse">
            <stop stop-color="#0C88E0" stop-opacity="0.17"/>
            <stop offset="1" stop-color="#0C88E0" stop-opacity="0"/>
        </linearGradient>
    </defs>
</svg>
