<svg width="80" height="80" viewBox="0 0 80 80" fill="none" xmlns="http://www.w3.org/2000/svg">
    <ellipse cx="45.5" cy="40" rx="34.5" ry="34" fill="url(#paint0_linear_104_984)"/>
    <path d="M13.702 55.0861L13.6569 55.0826C13.164 55.0453 12.6834 54.9863 12.2266 54.9048C10.7766 54.6471 9.49723 54.1612 8.42451 53.4619C7.52646 52.8762 6.75636 52.1327 6.13881 51.2494C5.74268 50.6829 5.40643 50.0582 5.13661 49.3858C5.06772 49.214 5.00211 49.0405 4.94224 48.8635C4.92501 48.814 4.90943 48.7646 4.89385 48.716C4.66995 48.0184 4.52151 47.2627 4.41653 46.2936C4.41489 46.2762 4.41325 46.2597 4.41079 46.2424C4.40095 46.1521 4.38127 45.9673 4.27137 45.7799C4.17296 45.6133 4.04748 45.5196 3.97777 45.4676C3.85557 45.3765 3.73337 45.2732 3.60871 45.1552L3.60707 45.1535C3.42582 44.9834 3.23801 44.7804 3.03544 44.5375C2.88289 44.3544 2.73281 44.1627 2.59421 43.9822C2.57289 43.9544 2.54992 43.9267 2.52696 43.898C2.50481 43.8694 2.47611 43.8338 2.45069 43.8017C2.48677 43.7297 2.53762 43.6499 2.59503 43.5614L2.63357 43.5007C2.66392 43.453 2.74429 43.3272 2.7689 43.1423C2.79022 42.9844 2.76069 42.8578 2.75003 42.8109C2.58191 42.1012 2.54254 41.3967 2.63029 40.6583C2.66474 40.372 2.71149 40.0883 2.76316 39.7864L2.77628 39.7031C2.82466 39.4159 2.84107 39.1868 2.82302 38.9404C2.82302 38.93 2.8222 38.9187 2.82138 38.9083C3.24047 38.7548 3.65874 38.5995 4.06716 38.4468C4.31238 38.3557 4.55842 38.2646 4.80282 38.1735C5.05213 38.0815 5.21124 37.875 5.36952 37.6043C5.41791 37.5219 5.46712 37.4325 5.51797 37.3388C5.55241 37.2772 5.60244 37.1852 5.62376 37.1523C6.01415 36.6464 6.51196 36.1857 7.09754 35.7788C6.09042 35.9558 5.20878 36.151 4.50675 36.3237C4.45426 36.4044 4.40095 36.5015 4.3378 36.6161C4.3009 36.6846 4.24185 36.7913 4.1951 36.8703C4.00155 36.9414 3.808 37.0134 3.61445 37.0855C3.08382 37.2833 2.53516 37.4872 1.99551 37.6832C1.95123 37.698 1.83641 37.7414 1.72241 37.8446C1.61251 37.9453 1.53214 38.0763 1.48539 38.2342C1.42388 38.4355 1.40912 38.6524 1.44111 38.8606C1.47637 39.0775 1.47391 39.2103 1.43373 39.4506L1.41978 39.533C1.36894 39.8393 1.31481 40.156 1.27708 40.4779C1.17867 41.3082 1.20819 42.1029 1.37058 42.9038C1.3025 43.0148 1.23443 43.138 1.17702 43.2803C1.11305 43.4365 1.03186 43.6785 1.06631 43.9657C1.11388 44.3657 1.33859 44.6459 1.48703 44.8316C1.50508 44.8533 1.5223 44.875 1.53788 44.8958C1.68633 45.0876 1.84625 45.2932 2.01356 45.4927C2.20957 45.7279 2.3982 45.9344 2.58109 46.1166C2.58109 46.1174 2.58191 46.1174 2.58273 46.1183C2.74593 46.2823 2.9075 46.4263 3.07152 46.5565C3.08301 46.6614 3.09531 46.7647 3.10925 46.8662C3.23227 47.8267 3.40614 48.6093 3.65956 49.3537C3.67104 49.3866 3.6817 49.4196 3.69482 49.4535C5.20878 51.495 8.16698 54.4996 13.3174 56.3303C13.3674 56.3476 14.204 56.6357 15.5432 56.6357C16.1518 56.6357 16.8645 56.5758 17.6534 56.4049C18.5802 56.2036 19.6939 55.8262 20.911 55.1364C18.5662 55.4566 16.1026 55.2709 13.702 55.0913V55.0861Z" fill="#0C88E0"/>
    <path d="M31.067 46.9212V46.972C31.0752 52.0103 26.9327 55.0249 23.3717 56.0776C21.6584 56.5838 19.8451 56.7396 18.0532 56.7396C16.5326 56.7396 15.0252 56.6277 13.6056 56.5218L13.5605 56.5192C13.0249 56.4788 12.5001 56.4142 12.0014 56.3256C10.3776 56.0389 8.93332 55.4923 7.70887 54.7012C6.66156 54.0246 5.76516 53.1621 5.04345 52.1394C4.48576 51.3501 4.03223 50.4634 3.69434 49.5036C5.20829 51.5291 8.1665 54.5101 13.3169 56.3264C13.3669 56.3436 14.2035 56.6294 15.5427 56.6294C16.1513 56.6294 16.864 56.57 17.6529 56.4004C18.5797 56.2007 19.6934 55.8263 20.9105 55.1419C21.6199 55.0464 22.3186 54.9044 23.001 54.7021C26.0141 53.8128 29.5063 51.357 29.6941 47.3283C29.7014 47.1984 29.7039 47.0667 29.7031 46.9341C29.7006 46.5364 29.6793 46.1749 29.644 45.846C29.5309 44.764 29.2783 44.0512 29.0954 43.6561C28.983 43.4134 28.8985 43.2903 28.8879 43.2765C28.6894 43.02 28.5828 42.6937 28.4893 42.4054C28.4491 42.2814 28.4073 42.1531 28.3728 42.0817C28.3056 41.9405 28.2351 41.8002 28.1612 41.6616C27.8012 40.9799 27.3657 40.3144 26.863 39.6783C23.8014 35.7995 18.2664 33.6001 12.7617 34.0753C10.5465 34.2664 8.55278 34.9352 7.09623 35.9389C6.08911 36.1145 5.20747 36.3082 4.50544 36.4795C4.52267 36.4528 4.54071 36.4279 4.55793 36.4055C6.15226 34.3533 9.1769 32.9493 12.6493 32.6498C15.4517 32.4079 18.3279 32.8073 20.9671 33.805C23.7932 34.8741 26.1954 36.5897 27.9127 38.7658C28.5844 39.6155 29.1487 40.5167 29.5907 41.4404C29.667 41.5996 29.7236 41.7735 29.7785 41.9422C29.8236 42.0791 29.8975 42.3089 29.945 42.3735C29.9581 42.3916 30.0049 42.4518 30.0705 42.5586C30.2427 42.8358 30.5495 43.4254 30.7775 44.3732C30.8595 44.7132 30.9316 45.1006 30.9825 45.5361C31.0325 45.9536 31.0629 46.415 31.067 46.9238V46.9212Z" fill="#0C88E0"/>
    <path d="M13.7029 55.0874L13.6578 55.0839C13.1649 55.0466 12.6843 54.9876 12.2275 54.906C10.7775 54.6484 9.49812 54.1625 8.42539 53.4632C7.52735 52.8775 6.75724 52.134 6.13969 51.2507C5.74356 50.6842 5.40731 50.0595 5.13749 49.3871C5.72634 50.0456 6.3275 50.6555 6.92537 51.2021C7.65282 51.8676 8.35978 52.4264 9.08395 52.9131C9.28652 53.0485 9.49155 53.1786 9.69249 53.3001C10.643 53.8718 11.6452 54.2883 12.6794 54.5477C9.31441 53.1508 7.10006 51.2282 5.79851 49.8001C5.4516 49.4192 5.15143 49.0539 4.89473 48.7173C3.99341 47.5373 3.61451 46.6913 3.61041 46.6818L3.59073 46.6376L3.5653 46.5968C3.17738 45.9521 2.40154 44.5379 1.8824 43.2148C1.57403 42.4304 1.3567 41.6808 1.36326 41.1411C1.37884 39.8926 2.66808 38.6198 3.26432 38.1504C3.5325 38.0697 4.28784 37.8502 5.37041 37.6038C5.41879 37.5214 5.468 37.432 5.51885 37.3383C5.5533 37.2767 5.60332 37.1847 5.62465 37.1518C6.01503 36.6459 6.51285 36.1852 7.09842 35.7783C6.0913 35.9553 5.20966 36.1505 4.50763 36.3232C3.48575 36.5731 2.84769 36.7752 2.76404 36.8021L2.6607 36.8351L2.57213 36.8993C2.46797 36.9756 0.0280868 38.7968 0.000202375 41.1229C-0.0235814 43.2026 2.05627 46.7686 2.39334 47.3334C2.49093 47.5477 2.88788 48.3624 3.6957 49.4521C5.20966 51.4937 8.16787 54.4983 13.3183 56.329C13.3683 56.3463 14.2048 56.6344 15.5441 56.6344C16.1526 56.6344 16.8653 56.5745 17.6543 56.4036C18.581 56.2023 19.6948 55.8249 20.9118 55.1351C18.5671 55.4552 16.1034 55.2696 13.7029 55.09V55.0874ZM34.5112 46.851L34.2488 46.903L34.8024 47.0158V46.8093C34.6195 46.8302 34.5161 46.8501 34.5112 46.851Z" fill="#0C88E0"/>
    <path d="M29.6462 45.8158C29.2779 45.9279 28.8998 46.0662 28.5185 46.2366C27.8566 46.5009 27.1784 47.0774 26.6396 47.6251C26.8536 47.0304 26.8815 46.3444 26.9012 45.841V45.8175C26.9201 45.3758 26.9004 44.9332 26.8454 44.5011C26.8413 44.4689 26.8364 44.4229 26.8298 44.369C26.788 43.9699 26.7421 43.6125 26.6543 43.3186C26.6535 43.3169 26.6535 43.316 26.6527 43.3143C26.9701 43.4778 27.3588 43.636 27.8206 43.7508L28.2511 43.8577L28.6292 43.3299C28.7629 43.4143 28.9187 43.5073 29.0967 43.6047C28.9843 43.3595 28.8998 43.2352 28.8892 43.2213C28.6907 42.9622 28.5841 42.6326 28.4906 42.3414C28.4504 42.2162 28.4086 42.0866 28.3741 42.0144C28.3069 41.8718 28.2364 41.7301 28.1625 41.5901L27.7139 42.217C27.0792 41.9866 26.7011 41.6693 26.6051 41.5823C26.1606 40.9789 22.5414 36.3177 16.2805 35.4639C13.0205 35.0196 9.65552 35.3569 7.09835 35.8082C6.5136 36.2159 6.01578 36.6768 5.62458 37.1845C5.60326 37.2176 5.55323 37.3097 5.51879 37.3715C5.46794 37.4654 5.41873 37.5549 5.37034 37.6375C7.87502 37.068 12.1257 36.3559 16.1067 36.8976C20.6904 37.5228 23.788 40.4703 24.9927 41.824C21.9123 39.819 19.2313 38.4992 16.6406 37.7062C14.1244 36.9359 11.4582 37.1158 9.18066 37.3932C8.16206 37.5167 7.10984 37.721 6.05187 38.001C5.52781 38.1383 4.98898 38.2975 4.40177 38.487C4.2238 38.5444 4.04173 38.5939 3.849 38.6479C3.51275 38.74 3.16748 38.8357 2.82302 38.9765C2.84106 39.2234 2.82466 39.453 2.77627 39.7408L2.76315 39.8242C2.7123 40.1259 2.66474 40.4111 2.63029 40.6981C2.54254 41.4388 2.5819 42.144 2.75003 42.8552C2.76069 42.903 2.79022 43.0291 2.76889 43.1873C2.74511 43.3725 2.66392 43.4986 2.63357 43.5464L2.59503 43.6073C2.53762 43.6969 2.48677 43.776 2.45068 43.8481C2.47611 43.8803 2.50481 43.9168 2.52695 43.9447C2.54992 43.9733 2.57288 44.002 2.59421 44.029C2.73281 44.2098 2.88371 44.402 3.03544 44.5855C3.23801 44.8289 3.42582 45.0324 3.60706 45.2028C3.57754 45.1593 3.54802 45.1167 3.51849 45.0724C3.37169 44.8576 3.23063 44.6524 3.10843 44.4463L3.11171 44.4263C3.26835 43.3882 3.3315 42.324 3.39301 41.2945C3.41269 40.9563 3.4332 40.6102 3.4578 40.2668C3.68908 40.1833 3.9343 40.1155 4.19018 40.0442C4.38783 39.9903 4.59204 39.9338 4.79707 39.8677C5.36132 39.686 5.87882 39.5338 6.3791 39.4017C7.38048 39.1374 8.37448 38.9443 9.33485 38.827C11.477 38.5661 13.976 38.394 16.2608 39.093C19.0263 39.9399 21.9214 41.4302 25.3626 43.7768C25.3987 43.9134 25.4364 44.1655 25.475 44.5298C25.4824 44.5976 25.4873 44.6533 25.493 44.6933C25.5381 45.0411 25.5529 45.3975 25.539 45.7549V45.7784C25.5209 46.2192 25.4881 47.0374 25.2544 47.3217C25.2232 47.3599 25.1674 47.4086 25.1084 47.4625L25.0469 47.5173C24.5646 47.952 24.1956 48.4615 23.8396 48.9519C23.5911 49.2936 23.3574 49.6153 23.0974 49.9005C19.666 53.6497 14.4311 54.5574 10.3682 52.1081C10.1853 51.9977 9.99997 51.8794 9.81626 51.756C9.14786 51.3064 8.49421 50.7874 7.81679 50.1683C7.23614 49.6362 6.65056 49.038 6.07565 48.3902C5.5967 47.8503 5.12184 47.2712 4.66339 46.6696C4.58138 46.5618 4.49937 46.4531 4.41899 46.3444C4.52397 47.3147 4.67241 48.0729 4.89631 48.7719C5.15301 49.1102 5.45318 49.4753 5.80009 49.857C7.10163 51.2882 9.31598 53.2149 12.681 54.6148C11.6468 54.3548 10.6438 53.9366 9.69406 53.3645C9.49313 53.2428 9.2881 53.1132 9.08553 52.9767C8.36053 52.4889 7.6544 51.9281 6.92695 51.2621C6.32989 50.7152 5.72792 50.104 5.13907 49.4432C5.40889 50.117 5.74514 50.743 6.14126 51.3108C6.75964 52.1959 7.52892 52.941 8.42696 53.5279C9.49969 54.2287 10.7791 54.7156 12.2291 54.9739C12.6859 55.0556 13.1673 55.1156 13.6594 55.1521L13.7045 55.1556C16.105 55.3364 18.5679 55.5225 20.9134 55.2008C22.6898 54.1913 24.686 52.5141 26.6412 49.7492C27.0168 49.2528 28.1535 47.9164 29.0065 47.5834L29.0352 47.5712C29.2574 47.4721 29.478 47.3851 29.6962 47.3095C29.7036 47.1782 29.706 47.0452 29.7052 46.9113C29.7028 46.5096 29.6814 46.1444 29.6462 45.8123V45.8158ZM17.4648 55.0417C15.2759 55.5381 13.7627 55.0339 13.7521 55.0304C13.3838 54.8982 13.0287 54.7617 12.6843 54.6174C13.5306 54.8321 14.3983 54.9391 15.2791 54.9391C15.9418 54.9391 16.6119 54.8782 17.2827 54.7548C18.9935 54.44 20.6477 53.7157 22.11 52.6593C20.6288 53.8722 19.0649 54.6791 17.4648 55.0417Z" fill="#0C88E0"/>
    <path d="M38.4328 42.086C38.2614 42.4228 37.9547 43.1359 37.7267 44.2828C37.6447 44.6946 37.5725 45.1638 37.5217 45.6914C37.4716 46.197 37.4413 46.7559 37.4372 47.372V47.4336C36.2505 47.1812 35.268 47.2574 34.8021 47.323C34.6192 47.3481 34.5159 47.372 34.511 47.3731L34.2485 47.4356L33.9918 47.3731C33.9877 47.372 33.8852 47.3481 33.704 47.323C33.239 47.2584 32.2556 47.1792 31.0673 47.4336V47.372C31.064 46.7559 31.0328 46.197 30.9828 45.6914C30.9319 45.1638 30.8598 44.6946 30.7778 44.2828C30.5506 43.1349 30.243 42.4207 30.0708 42.085C30.9688 42.6063 32.354 43.1776 34.1255 43.1974H34.3781C36.1488 43.1776 37.5332 42.6063 38.432 42.086H38.4328Z" fill="#0C88E0"/>
    <path d="M5.79796 49.8253C5.45104 49.4374 5.15088 49.0654 4.89418 48.7226C4.67028 48.0121 4.52184 47.2425 4.41686 46.2555C4.14868 45.8888 3.89034 45.5186 3.64348 45.1484C3.632 45.1307 3.62052 45.113 3.60821 45.0954L3.60657 45.0936C3.42533 44.9204 3.23752 44.7136 3.03494 44.4662C2.8824 44.2798 2.73232 44.0845 2.59371 43.9007C2.57239 43.8725 2.54943 43.8442 2.52646 43.815C2.50432 43.7859 2.47562 43.7496 2.45019 43.7169C2.48628 43.6436 2.53713 43.5623 2.59454 43.4722L2.63308 43.4103C2.66342 43.3617 2.7438 43.2336 2.7684 43.0454C2.78973 42.8846 2.7602 42.7556 2.74954 42.7079C2.58141 41.9851 2.54205 41.2676 2.6298 40.5156C2.66425 40.2241 2.71099 39.9351 2.76266 39.6276L2.77578 39.5428C2.82417 39.2503 2.84057 39.0171 2.82253 38.7661C2.79465 38.7767 2.76676 38.7882 2.73888 38.8006L2.72576 38.8068C2.61258 38.8509 2.31487 38.9711 2.18201 39.3228C2.14182 39.4279 2.13116 39.5181 2.12542 39.5852C2.08852 40.0659 2.05981 40.5572 2.03193 41.0308C1.99092 41.7209 1.94991 42.426 1.88184 43.1179C1.84986 43.4421 1.81131 43.7611 1.76456 44.0766L1.75882 44.111C1.73258 44.2745 1.67927 44.6129 1.85724 44.9372C2.02947 45.2535 2.22466 45.5442 2.41411 45.8252C2.45429 45.8862 2.4953 45.9463 2.53466 46.0064C2.55025 46.0284 2.56501 46.0514 2.58059 46.0735C2.58059 46.0744 2.58141 46.0744 2.58223 46.0753C2.75118 46.3289 2.92833 46.5842 3.10876 46.8369C3.26868 47.0632 3.43271 47.2867 3.60001 47.5094C4.07979 48.1491 4.57843 48.7659 5.07953 49.3411L5.13611 49.4047C5.72497 50.0754 6.32612 50.6965 6.924 51.2532C7.65145 51.9309 8.3584 52.5 9.08258 52.9957C9.28515 53.1335 9.49018 53.266 9.69111 53.3897C10.6416 53.972 11.6438 54.3962 12.678 54.6604C9.31303 53.2378 7.09868 51.2797 5.79714 49.8253H5.79796Z" fill="#0C88E0"/>
    <path d="M67.3285 43.2775C67.2711 43.1352 67.203 43.012 67.135 42.9009C67.2965 42.1018 67.3269 41.3053 67.2285 40.475C67.1907 40.1531 67.1374 39.8364 67.0858 39.5301L67.0718 39.4477C67.0316 39.2074 67.03 39.0746 67.0644 38.8577C67.0964 38.6495 67.0825 38.4326 67.0201 38.2313C66.9726 38.0734 66.893 37.9424 66.7839 37.8426C66.6691 37.7385 66.5535 37.696 66.51 37.6803C65.9712 37.4843 65.4217 37.2804 64.8911 37.0825C64.6975 37.0105 64.504 36.9385 64.3104 36.8674C64.2637 36.7884 64.2046 36.6817 64.1677 36.6131C64.1038 36.4986 64.0513 36.4006 63.9988 36.3208C63.2976 36.1481 62.4151 35.9529 61.408 35.7759C61.9928 36.1828 62.4906 36.6426 62.8818 37.1493C62.9031 37.1823 62.9531 37.2743 62.9876 37.3359C63.0384 37.4296 63.0876 37.519 63.136 37.6014C63.2943 37.8721 63.4542 38.0786 63.7027 38.1706C63.9471 38.2617 64.1923 38.3528 64.4384 38.4439C64.846 38.5957 65.2651 38.7519 65.6842 38.9054C65.6833 38.9159 65.6825 38.9271 65.6825 38.9375C65.6645 39.184 65.6809 39.413 65.7293 39.7002L65.7424 39.7835C65.7932 40.0846 65.8408 40.3691 65.8752 40.6555C65.963 41.3947 65.9236 42.0983 65.7555 42.8081C65.7448 42.8558 65.7153 42.9816 65.7358 43.1386C65.7612 43.3243 65.8416 43.4501 65.872 43.4978L65.9105 43.5586C65.9679 43.6479 66.0188 43.726 66.054 43.7989C66.0302 43.831 66.0015 43.8674 65.9786 43.8952C65.9556 43.9238 65.9327 43.9525 65.9121 43.9794C65.7727 44.1598 65.6218 44.3516 65.4693 44.5347C65.2667 44.7776 65.0789 44.9806 64.8977 45.1507L64.896 45.1524C64.7697 45.2721 64.6467 45.3763 64.5245 45.4674C64.4572 45.5177 64.3318 45.6114 64.2333 45.778C64.1235 45.9654 64.1038 46.1502 64.0939 46.2404C64.0923 46.2578 64.0906 46.2743 64.0882 46.2916C63.9832 47.2599 63.8348 48.0165 63.6109 48.7141C63.5953 48.7635 63.5797 48.813 63.5625 48.8616C63.5026 49.0386 63.437 49.2121 63.3681 49.3839C63.0983 50.0563 62.762 50.681 62.3659 51.2476C61.7475 52.1308 60.9783 52.8744 60.0802 53.46C59.0075 54.1593 57.7281 54.6452 56.2781 54.9029C55.8213 54.9845 55.3399 55.0443 54.8478 55.0808L54.8027 55.0842C52.4022 55.2647 49.9393 55.4504 47.5938 55.1294C48.8108 55.8191 49.9246 56.1974 50.8513 56.3978C51.6403 56.5696 52.3521 56.6286 52.9615 56.6286C54.3008 56.6286 55.1381 56.3406 55.1881 56.3224C60.3386 54.4925 63.2959 51.4879 64.8099 49.4463C64.8222 49.4134 64.8329 49.3804 64.8452 49.3466C65.0986 48.6021 65.2724 47.8204 65.3955 46.8591C65.4086 46.7575 65.4217 46.6543 65.4332 46.5493C65.5964 46.4192 65.7571 46.2751 65.922 46.112C66.1065 45.9289 66.2943 45.7216 66.492 45.4856C66.6593 45.286 66.8192 45.0804 66.9677 44.8887C66.9841 44.8678 67.0005 44.8461 67.0185 44.8245C67.1669 44.6388 67.3917 44.3585 67.4392 43.9585C67.4737 43.6714 67.3917 43.4302 67.3285 43.2731V43.2775Z" fill="#0C88E0"/>
    <path d="M65.9103 43.6571L65.8717 43.5968C65.8414 43.5495 65.761 43.4246 65.7356 43.2404C65.7151 43.0846 65.7446 42.959 65.7553 42.9125C65.9234 42.2083 65.9628 41.5094 65.875 40.7768C65.8406 40.4927 65.7938 40.2113 65.7421 39.9117L65.729 39.8291C65.6806 39.5441 65.6642 39.3169 65.6823 39.0724C65.3362 38.9321 64.9917 38.8383 64.6563 38.747C64.4636 38.6945 64.2815 38.6446 64.1035 38.5878C63.5171 38.4001 62.9775 38.2426 62.4534 38.1066C61.3955 37.8294 60.3432 37.6271 59.3246 37.5049C57.0479 37.2303 54.3809 37.0529 51.8647 37.8148C49.2731 38.5998 46.5913 39.9065 43.5101 41.8924C44.7149 40.5521 47.8141 37.6323 52.3986 37.0142C56.3795 36.4771 60.6303 37.1829 63.1349 37.7468C63.0866 37.665 63.0374 37.5763 62.9865 37.4834C62.9521 37.4222 62.902 37.331 62.8807 37.2983C62.4903 36.7964 61.9925 36.3393 61.4069 35.9356C58.8498 35.488 55.4856 35.154 52.2248 35.5947C45.968 36.4392 42.3488 41.0497 41.901 41.6514C41.7985 41.7426 41.422 42.0534 40.7914 42.2806L40.3419 41.6626C40.7011 40.98 41.1374 40.3137 41.641 39.6758C44.7025 35.797 50.2376 33.5977 55.7423 34.0728C57.9575 34.2639 59.9512 34.9328 61.4078 35.9365C62.4149 36.1121 63.2965 36.3058 63.9985 36.4771C63.9813 36.4504 63.9633 36.4254 63.9461 36.403C62.3517 34.3509 59.3271 32.9469 55.8547 32.6473C53.0523 32.4054 50.1761 32.8049 47.5369 33.8025C44.7107 34.8717 42.3086 36.5872 40.5912 38.7634C39.9196 39.613 39.3553 40.5143 38.9133 41.4379C38.837 41.5972 38.7804 41.771 38.7254 41.9398C38.6803 42.0758 38.6073 42.3047 38.5598 42.3702C38.5598 42.3702 38.5595 42.3704 38.559 42.371C38.5458 42.3891 38.4991 42.4502 38.4327 42.557C38.2613 42.835 37.9545 43.4238 37.7265 44.3707C37.6445 44.7107 37.5723 45.0981 37.5215 45.5336C37.4715 45.9511 37.4411 46.4125 37.437 46.9212V46.972C37.4288 52.0103 41.5713 55.0249 45.1323 56.0777C46.8464 56.5838 48.6588 56.7396 50.4508 56.7396C51.9722 56.7396 53.4788 56.6277 54.8984 56.5218L54.9435 56.5193C55.479 56.4788 56.0039 56.4142 56.5026 56.3256C58.1264 56.0389 59.5707 55.4923 60.7951 54.7012C61.8424 54.0246 62.7388 53.1621 63.4605 52.1395C64.0182 51.3501 64.4718 50.4635 64.8097 49.5037C63.2957 51.5292 60.3383 54.5101 55.1879 56.3256C55.1379 56.3437 54.3005 56.6294 52.9612 56.6294C52.3519 56.6294 51.64 56.57 50.8511 56.4005C49.9243 56.2008 48.8106 55.8263 47.5935 55.142C46.8841 55.0464 46.1853 54.9044 45.503 54.7021C42.4898 53.8129 38.9977 51.357 38.8099 47.3284C39.0281 47.4033 39.2487 47.4902 39.4709 47.5875L39.4997 47.5996C40.3534 47.9301 41.4909 49.2523 41.8649 49.7438C43.8201 52.4812 45.8171 54.1417 47.5927 55.1411C49.9374 55.4587 52.4011 55.2745 54.8016 55.0963L54.8467 55.0929C55.3396 55.0559 55.8202 54.9974 56.277 54.9164C57.727 54.6608 59.0064 54.1787 60.0791 53.4849C60.9772 52.9039 61.7473 52.1662 62.3648 51.2899C62.761 50.7277 63.0972 50.108 63.367 49.4408C62.7782 50.0942 62.177 50.6993 61.5792 51.2416C60.8517 51.9019 60.1448 52.4562 59.4206 52.9392C59.218 53.0734 59.013 53.2026 58.8112 53.3231C57.8623 53.8886 56.8618 54.3027 55.8284 54.5601C59.1901 53.1742 61.4045 51.2675 62.706 49.8506C63.0529 49.4727 63.3531 49.1103 63.6098 48.7763C63.8337 48.0842 63.9821 47.3344 64.0871 46.3729C64.0067 46.4797 63.9247 46.5873 63.8427 46.6949C63.3843 47.2905 62.9094 47.8638 62.4305 48.3984C61.8555 49.0397 61.27 49.6319 60.6893 50.1588C60.0119 50.7716 59.3583 51.2864 58.6898 51.7306C58.5061 51.8528 58.3208 51.9708 58.1379 52.0792C54.075 54.5041 48.8401 53.6054 45.4087 49.8928C45.1479 49.6113 44.9141 49.2928 44.6665 48.9545C44.3097 48.4681 43.9406 47.9645 43.4592 47.5341L43.3977 47.4799C43.3387 47.4274 43.2829 47.3783 43.2517 47.3405C43.018 47.059 42.9852 46.249 42.968 45.8125V45.7893C42.9524 45.4355 42.968 45.0826 43.0131 44.7391C43.0188 44.6986 43.0237 44.6436 43.0311 44.5764C43.0697 44.2157 43.1074 43.9661 43.1435 43.831C46.5839 41.5076 49.4798 40.0331 52.2453 39.1938C54.5302 38.5017 57.0283 38.6721 59.1713 38.9304C60.1316 39.0457 61.1256 39.2377 62.127 39.4994C62.6265 39.6302 63.1448 39.7817 63.709 39.9608C63.9141 40.0262 64.1183 40.0821 64.3159 40.1355C64.5718 40.2061 64.8179 40.2724 65.0483 40.3559C65.0721 40.695 65.0934 41.0385 65.1131 41.3733C65.1746 42.3925 65.2378 43.4462 65.3944 44.4714L65.3977 44.4938C65.2747 44.6978 65.1344 44.9009 64.9876 45.1136C64.9581 45.1566 64.9286 45.1988 64.899 45.2427C65.0803 45.074 65.2681 44.8725 65.4707 44.6315C65.6232 44.4499 65.7733 44.2596 65.9135 44.0806C65.934 44.053 65.9562 44.0255 65.98 43.9971C66.0021 43.9687 66.0308 43.9334 66.0554 43.9015C66.0202 43.8292 65.9693 43.7509 65.9119 43.6631L65.9103 43.6571ZM39.9884 46.2601C39.6071 46.0923 39.229 45.9546 38.8608 45.8427C38.9739 44.7615 39.2265 44.0487 39.4094 43.6536C39.5874 43.5581 39.7432 43.466 39.8769 43.3816L40.255 43.9041L40.6856 43.7982C41.1481 43.6846 41.5369 43.5271 41.8534 43.3661C41.7648 43.6579 41.7181 44.0143 41.6763 44.4103C41.6697 44.4636 41.6656 44.5093 41.6607 44.5411C41.6057 44.9689 41.5861 45.4071 41.6041 45.8444V45.8676C41.6246 46.366 41.6525 47.0452 41.8665 47.634C41.3277 47.0917 40.6495 46.521 39.9876 46.2593L39.9884 46.2601ZM51.2242 54.6944C51.8959 54.8166 52.5651 54.8768 53.2278 54.8768C54.1094 54.8768 54.9788 54.7692 55.826 54.5583C55.4823 54.7004 55.1272 54.8364 54.759 54.9664C54.7434 54.9707 53.2319 55.4699 51.0421 54.9784C49.4421 54.6195 47.8781 53.8198 46.3969 52.6198C47.8584 53.6665 49.5134 54.3836 51.2242 54.6944Z" fill="#0C88E0"/>
    <path d="M65.9353 36.8978L65.8467 36.8336L65.7434 36.8007C65.6589 36.7738 65.0217 36.5725 63.9998 36.3217C63.2986 36.1491 62.4162 35.9539 61.409 35.7769C61.9938 36.1838 62.4916 36.6436 62.8828 37.1503C62.9041 37.1833 62.9542 37.2753 62.9886 37.3369C63.0394 37.4306 63.0887 37.5199 63.137 37.6024C64.2188 37.8488 64.975 38.0683 65.2423 38.149C65.8394 38.6192 67.1286 39.8912 67.1442 41.1397C67.1508 41.6776 66.9326 42.4281 66.625 43.2125C66.1059 44.5348 65.3301 45.9507 64.9421 46.5954L64.9167 46.637L64.8979 46.6787C64.8938 46.69 64.5132 47.5359 63.6127 48.7159C63.356 49.0534 63.0558 49.4178 62.7089 49.7987C61.4074 51.2268 59.193 53.1486 55.8313 54.5455C56.8647 54.2861 57.8653 53.8688 58.8141 53.2987C59.0159 53.1772 59.2209 53.048 59.4235 52.9118C60.1485 52.425 60.8546 51.8654 61.5821 51.2008C62.1791 50.655 62.7811 50.0451 63.37 49.3857C63.1001 50.0581 62.7639 50.6828 62.3678 51.2494C61.7494 52.1326 60.9801 52.8762 60.0821 53.4618C59.0093 54.1611 57.7299 54.647 56.2799 54.9047C55.8231 54.9863 55.3417 55.0461 54.8496 55.0826L54.8045 55.086C52.404 55.2665 49.9412 55.4522 47.5956 55.1312C48.8127 55.8209 49.9264 56.1992 50.8532 56.3996C51.6421 56.5714 52.354 56.6304 52.9633 56.6304C54.3026 56.6304 55.14 56.3424 55.19 56.3242C60.3404 54.4943 63.2978 51.4897 64.8117 49.4482C65.6196 48.3584 66.0165 47.5437 66.1141 47.3294C66.452 46.7646 68.5318 43.1986 68.5072 41.1189C68.4794 38.7928 66.0395 36.9725 65.9353 36.8952V36.8978ZM33.9929 46.8505C33.9888 46.8496 33.8863 46.8296 33.7051 46.8088V47.0118L34.2496 46.9025L33.9929 46.8505Z" fill="#0C88E0"/>
    <path d="M66.7457 44.1098L66.7391 44.0735C66.6924 43.7599 66.6546 43.4409 66.6227 43.1175C66.5546 42.4256 66.5136 41.7205 66.4726 41.0304C66.4447 40.5568 66.416 40.0655 66.3791 39.5848C66.3733 39.5177 66.3627 39.4275 66.3225 39.3224C66.1896 38.9698 65.8919 38.8505 65.7788 38.8064L65.7673 38.8019C65.7386 38.7896 65.7107 38.7781 65.682 38.7666C65.6639 39.0175 65.6803 39.2508 65.7287 39.5433L65.7418 39.6281C65.7927 39.9347 65.8403 40.2246 65.8747 40.5161C65.9625 41.269 65.9231 41.9856 65.755 42.7084C65.7443 42.757 65.7148 42.8851 65.7353 43.045C65.7607 43.2341 65.8411 43.3622 65.8714 43.4108L65.91 43.4727C65.9674 43.5637 66.0182 43.6432 66.0535 43.7174C66.0297 43.7501 66.001 43.7873 65.978 43.8155C65.9551 43.8447 65.9321 43.8738 65.9116 43.9012C65.7722 44.085 65.6213 44.2803 65.4687 44.4668C65.2662 44.7142 65.0784 44.9209 64.8971 45.0941L64.8955 45.0959C64.884 45.1135 64.8725 45.1312 64.8602 45.1489C64.6142 45.5182 64.355 45.8894 64.0868 46.2561C63.9818 47.2422 63.8334 48.0127 63.6095 48.7231C63.3528 49.0668 63.0526 49.4379 62.7057 49.8258C61.4042 51.2802 59.1898 53.2374 55.8281 54.66C56.8615 54.3958 57.862 53.9708 58.8109 53.3903C59.0127 53.2666 59.2177 53.1349 59.4203 52.9962C60.1453 52.5005 60.8514 51.9306 61.5789 51.2537C62.1759 50.6979 62.7779 50.0768 63.3668 49.4052L63.4233 49.3416C63.9253 48.7664 64.4231 48.1496 64.9029 47.5099C65.0693 47.2872 65.2334 47.0628 65.3941 46.8375C65.5754 46.5848 65.7509 46.3312 65.9206 46.0767C65.937 46.0537 65.9518 46.029 65.9682 46.006C66.0076 45.945 66.0486 45.8849 66.0888 45.8249C66.279 45.5439 66.4742 45.2532 66.6456 44.9377C66.8236 44.6125 66.7703 44.2741 66.744 44.1107L66.7457 44.1098Z" fill="#0C88E0"/>
    <defs>
        <linearGradient id="paint0_linear_104_984" x1="45.5" y1="74" x2="45.5" y2="-6.14285" gradientUnits="userSpaceOnUse">
            <stop stop-color="#0C88E0" stop-opacity="0.17"/>
            <stop offset="1" stop-color="#0C88E0" stop-opacity="0"/>
        </linearGradient>
    </defs>
</svg>
