<svg width="80" height="81" viewBox="0 0 80 81" fill="none" xmlns="http://www.w3.org/2000/svg">
<circle cx="42" cy="38.5" r="30" fill="url(#paint0_linear_103_4967)"/>
<path d="M50.4306 72.5634C50.0136 72.5634 49.6436 72.4721 49.2834 72.3833C49.1033 72.3389 48.9174 72.2928 48.7283 72.26C47.9874 72.13 47.2374 71.9886 46.4998 71.8397C44.9324 71.5223 43.3362 71.1457 41.6208 70.6885L41.6134 70.686C40.8084 70.4549 40.185 70.311 39.4844 70.5585C38.8487 70.783 38.0042 70.6572 37.3825 70.246C36.8727 69.9081 36.5733 69.4237 36.5396 68.8818C36.4927 68.1121 36.4927 62.9017 37.0166 56.6799C37.4927 51.0165 38.5313 43.0826 40.7738 37.4027C40.9021 36.4216 42.4539 25.3866 47.4463 25.0322C47.6848 24.9689 48.5145 24.8184 49.5745 25.3924C51.0259 26.1777 53.0752 28.4375 54.5949 34.7424L54.6023 34.7827C54.6047 34.7975 54.8309 36.3246 55.8646 38.0942C56.4073 39.0227 58.191 43.5908 59.9976 49.4211C61.5395 54.3971 63.4852 61.5317 63.9983 67.2642L64 67.2873C64.0016 67.344 64.0263 68.682 62.1851 69.2921C61.9055 69.3851 61.5477 69.3291 61.2015 69.2757C61.0321 69.2494 60.8405 69.2198 60.7402 69.2255C60.0272 69.2658 59.4121 69.5281 58.7608 69.8061C58.5775 69.8842 58.3883 69.9648 58.1934 70.0421C56.969 70.5289 55.7157 70.9952 54.4682 71.4277C54.2076 71.5182 53.9461 71.6152 53.6689 71.718C52.7323 72.0651 51.7636 72.4244 50.7776 72.5428C50.6575 72.5576 50.5424 72.5642 50.4306 72.5642V72.5634ZM41.8396 69.8817C43.5369 70.334 45.1158 70.7066 46.6651 71.0207C47.3953 71.1687 48.1379 71.3085 48.8714 71.4368C49.0885 71.4746 49.2891 71.524 49.4824 71.5717C49.901 71.6744 50.262 71.7633 50.6756 71.7114C51.5654 71.6045 52.4872 71.2625 53.3778 70.9327C53.6467 70.8332 53.9238 70.7304 54.1936 70.6367C55.4287 70.2082 56.6705 69.7461 57.8842 69.2634C58.0693 69.1893 58.2543 69.1112 58.4319 69.0347C59.1202 68.7412 59.8323 68.4369 60.6917 68.3884C60.88 68.3785 61.0979 68.4114 61.329 68.4476C61.5157 68.4764 61.8282 68.5249 61.9219 68.4961C63.0839 68.1113 63.1587 67.4114 63.1636 67.3161C62.2237 56.8765 56.2108 40.3433 55.1426 38.5153C54.0768 36.6913 53.8095 35.1305 53.7775 34.9192C52.3433 28.9803 50.5078 26.8726 49.2201 26.1506C48.3073 25.6391 47.679 25.8332 47.6527 25.8414L47.5959 25.8611L47.5417 25.8628C45.2671 25.9927 43.7762 29.1086 42.9267 31.6997C41.9728 34.6084 41.6003 37.5293 41.5962 37.5589L41.5896 37.6115L41.5699 37.6609C37.4327 48.0848 37.2633 67.011 37.3743 68.83C37.3957 69.1803 37.6415 69.4138 37.8438 69.5479C38.2443 69.8135 38.8167 69.9064 39.2048 69.7691C40.134 69.441 40.9482 69.6252 41.8388 69.8801L41.8396 69.8817Z" fill="#0C88E0"/>
<path d="M47.0835 42.163C46.2003 42.163 45.2357 42.0652 44.1798 41.8703C44.1025 41.8563 43.943 41.8267 43.8106 41.6951C43.6568 41.543 43.6371 41.3473 43.6288 41.2642C43.2991 37.9962 43.6519 34.785 44.6485 31.9775L44.7012 31.8295C45.0013 30.9792 45.3418 30.0146 46.1337 29.3847C46.3837 29.1857 46.6674 29.036 46.9766 28.9398C47.7907 28.6865 48.6476 28.8428 49.2684 29.3584C49.7585 29.7654 50.048 30.3353 50.3021 30.8838C50.8934 32.1576 51.4213 33.4783 51.8728 34.8097C51.9139 34.9314 51.9567 35.0547 51.9994 35.1789C52.4065 36.354 52.867 37.6862 52.5973 38.9978C52.3464 40.2141 51.3917 41.2247 50.0431 41.7017C49.1714 42.0101 48.1912 42.1638 47.0835 42.1638V42.163ZM44.4495 41.0693C46.6254 41.4583 48.3655 41.4073 49.7643 40.9131C50.8342 40.5348 51.5874 39.756 51.7782 38.8293C52.0019 37.7429 51.5989 36.5785 51.2091 35.4527C51.1656 35.3269 51.122 35.2019 51.08 35.0786C50.6384 33.7752 50.1212 32.4824 49.5423 31.2358C49.3194 30.7547 49.0892 30.2983 48.7323 30.0023C48.3301 29.6684 47.766 29.5697 47.2233 29.7383C47.0136 29.8041 46.8211 29.9052 46.6526 30.0393C46.0481 30.5195 45.7636 31.3271 45.4881 32.1075L45.4355 32.2571C44.4906 34.9166 44.1502 37.9617 44.4487 41.0693H44.4495Z" fill="#0C88E0"/>
<path d="M57.7992 55.6633C57.7343 55.3763 57.6685 55.081 57.6084 54.7907C57.1718 52.6847 56.7253 50.6075 56.3848 49.0336C55.8462 46.5443 55.31 44.1061 54.7928 41.7871L53.9762 41.9688C54.4934 44.287 55.028 46.7228 55.5674 49.2112C55.9079 50.7843 56.3544 52.8583 56.7894 54.961C56.8511 55.2578 56.9185 55.558 56.9843 55.8475C57.3716 57.5719 57.7376 59.1993 57.0632 60.8127C56.9588 61.0627 56.8355 61.3127 56.6965 61.5561C56.0855 62.6227 55.1793 63.6959 53.8446 64.9343C53.2435 65.4918 52.5798 66.0527 51.871 66.6004C51.3858 66.9762 50.871 67.3388 50.3735 67.6883C50.2255 67.5543 50.0758 67.4235 49.9286 67.2961C49.6712 67.0716 49.4245 66.8577 49.1951 66.6291C48.7231 65.0453 47.9238 64.024 46.8194 63.5955C45.4773 63.0742 44.0933 63.5955 43.4905 63.8858C41.4487 61.2264 42.1238 49.3913 42.5728 44.921L41.7406 44.8372C41.7365 44.8791 41.3171 49.0993 41.262 53.6025C41.1872 59.6812 41.7965 63.4039 43.0711 64.6712C44.2126 66.4532 45.7289 67.0494 46.8037 67.236C47.1615 67.2985 47.4945 67.3207 47.7848 67.3207C48.145 67.3207 48.441 67.287 48.6392 67.2558C48.8801 67.4918 49.1334 67.7113 49.3793 67.9251C49.5775 68.0987 49.7839 68.2779 49.9755 68.4597C50.0183 68.4991 50.1441 68.6184 50.3423 68.6184H50.3604C50.5092 68.6134 50.612 68.5411 50.6506 68.5139L50.8242 68.3914C51.3398 68.0296 51.8726 67.6546 52.3825 67.2599C53.1103 66.6966 53.7928 66.1201 54.412 65.5453C55.8108 64.2476 56.7664 63.112 57.421 61.9706C57.5772 61.6968 57.717 61.4155 57.8346 61.1334C58.6117 59.2741 58.1989 57.4379 57.7992 55.6624V55.6633ZM44.0135 64.5667C44.5612 64.3307 45.5826 64.0092 46.5209 64.3759C47.2799 64.6728 47.8637 65.3751 48.2601 66.4647C47.395 66.5543 45.4543 66.5009 44.0135 64.5667Z" fill="#0C88E0"/>
<path d="M21.2226 72.0759C20.2366 71.9567 19.2679 71.5982 18.3312 71.2511C18.0541 71.1483 17.7934 71.0513 17.5319 70.9608C16.2844 70.5283 15.0312 70.062 13.8067 69.5752C13.6118 69.4979 13.4227 69.4173 13.2393 69.3392C12.588 69.0612 11.9729 68.7989 11.2599 68.7586C11.1596 68.7529 10.968 68.7825 10.7986 68.8088C10.4524 68.8622 10.0947 68.9182 9.81509 68.8252C7.97387 68.2151 7.99855 66.8771 8.00019 66.8204L8.00183 66.7973C8.51497 61.0648 10.4606 53.9302 12.0025 48.9542C13.8092 43.1239 15.5928 38.5566 16.1356 37.6273C17.1693 35.8577 17.3962 34.3306 17.3979 34.3158L17.4053 34.2755C18.925 27.9706 20.9742 25.7108 22.4257 24.9255C23.4856 24.3523 24.3146 24.5028 24.5539 24.5653C29.5463 24.9206 31.0989 35.9547 31.2263 36.9358C33.4688 42.6157 34.5066 50.5496 34.9836 56.213C35.5066 62.4348 35.5074 67.6452 35.4605 68.4149C35.4277 68.9568 35.1283 69.4412 34.6177 69.7791C33.996 70.1911 33.1514 70.3161 32.5158 70.0916C31.8151 69.8441 31.1918 69.988 30.3867 70.2191L30.3793 70.2216C28.6639 70.6788 27.0678 71.0554 25.5004 71.3728C24.7627 71.5217 24.0128 71.6631 23.2718 71.793C23.0827 71.8259 22.8969 71.872 22.7168 71.9164C22.3566 72.0052 21.9865 72.0965 21.5696 72.0965C21.4578 72.0965 21.3418 72.0899 21.2226 72.0751V72.0759ZM32.7945 69.3047C33.1827 69.442 33.755 69.3482 34.1555 69.0834C34.3578 68.9494 34.6037 68.7159 34.625 68.3655C34.7361 66.5465 34.5667 47.6204 30.4295 37.1964L30.4097 37.1471L30.4032 37.0945C30.3999 37.0657 30.0265 34.1447 29.0726 31.2353C28.2231 28.6441 26.7322 25.5283 24.4577 25.3983L24.4034 25.3967L24.3466 25.377C24.3203 25.3687 23.6921 25.1747 22.7793 25.6862C21.4915 26.4082 19.656 28.5158 18.2219 34.4548C18.1898 34.6661 17.9217 36.2269 16.8568 38.0508C15.7886 39.8789 9.77644 56.412 8.83569 66.8516C8.84062 66.947 8.91545 67.6468 10.0774 68.0317C10.1703 68.0596 10.4828 68.0119 10.6703 67.9832C10.9014 67.9478 11.1193 67.9141 11.3076 67.9239C12.1662 67.9725 12.8783 68.2767 13.5674 68.5703C13.7459 68.646 13.9301 68.7249 14.1151 68.7989C15.328 69.2808 16.5698 69.743 17.8058 70.1722C18.0747 70.266 18.3526 70.3688 18.6215 70.4683C19.5129 70.7988 20.4339 71.1401 21.3237 71.247C21.7374 71.2988 22.0984 71.21 22.5169 71.1072C22.711 71.0595 22.9108 71.0102 23.1279 70.9724C23.8615 70.8441 24.604 70.7043 25.3343 70.5563C26.8836 70.2429 28.4624 69.8704 30.1598 69.4173C31.0503 69.1624 31.8645 68.9782 32.7937 69.3063L32.7945 69.3047Z" fill="#0C88E0"/>
<path d="M21.957 41.2357C20.6084 40.7596 19.6537 39.749 19.4028 38.5319C19.1331 37.2203 19.5936 35.8881 20.0007 34.713C20.0434 34.5888 20.0862 34.4654 20.1273 34.3437C20.5788 33.0124 21.1076 31.6917 21.698 30.4179C21.9521 29.8694 22.2416 29.2995 22.7317 28.8924C23.3525 28.3768 24.2094 28.2198 25.0235 28.4739C25.3327 28.5701 25.6164 28.7197 25.8664 28.9188C26.6583 29.5487 26.9988 30.5133 27.2989 31.3636L27.3516 31.5116C28.3482 34.3182 28.701 37.5295 28.3713 40.7983C28.3631 40.8813 28.3433 41.077 28.1895 41.2292C28.0571 41.3607 27.8968 41.3903 27.8203 41.4043C26.7652 41.5992 25.8006 41.6971 24.9166 41.6971C23.8089 41.6971 22.8279 41.5433 21.957 41.2349V41.2357ZM26.5638 31.792L26.5111 31.6423C26.2357 30.8619 25.9511 30.0544 25.3467 29.5742C25.1781 29.4401 24.9857 29.3381 24.776 29.2732C24.2333 29.1038 23.67 29.2025 23.267 29.5372C22.9101 29.8332 22.6807 30.2896 22.457 30.7707C21.8789 32.0173 21.3617 33.31 20.9192 34.6135C20.8773 34.7368 20.8345 34.8618 20.7901 34.9876C20.4003 36.1134 19.9974 37.2778 20.2211 38.3641C20.4127 39.2909 21.1651 40.0697 22.235 40.4479C23.6338 40.9422 25.3738 40.994 27.5498 40.6042C27.8483 37.4966 27.5078 34.4515 26.5629 31.792H26.5638Z" fill="#0C88E0"/>
<path d="M14.1666 60.6691C14.2842 60.9512 14.4232 61.2324 14.5803 61.5062C15.2348 62.6476 16.1904 63.7841 17.5892 65.0809C18.2084 65.6558 18.8918 66.2322 19.6187 66.7955C20.1286 67.1911 20.6614 67.5652 21.1771 67.9271L21.3506 68.0496C21.3892 68.0759 21.492 68.1483 21.6409 68.154H21.6589C21.8571 68.154 21.9838 68.0348 22.0257 67.9953C22.2173 67.8136 22.4229 67.6343 22.6219 67.4608C22.8686 67.2462 23.1211 67.0266 23.362 66.7914C23.5602 66.8227 23.8562 66.8564 24.2164 66.8564C24.5067 66.8564 24.8398 66.8342 25.1975 66.7717C26.2723 66.5858 27.7878 65.9888 28.9301 64.2068C30.2047 62.9396 30.814 59.216 30.7392 53.1381C30.6841 48.635 30.2639 44.4147 30.2606 44.3728L29.4284 44.4567C29.8774 48.9269 30.5525 60.762 28.5107 63.4215C27.9079 63.132 26.5239 62.6098 25.1818 63.1312C24.0774 63.5596 23.2781 64.581 22.8061 66.1648C22.5767 66.3926 22.33 66.6072 22.0726 66.8317C21.9262 66.9592 21.7757 67.0899 21.6277 67.224C21.1302 66.8745 20.6154 66.5118 20.1302 66.136C19.4214 65.5883 18.7577 65.0267 18.1566 64.4699C16.8219 63.2315 15.9157 62.1583 15.3047 61.0918C15.1658 60.8484 15.0416 60.5984 14.938 60.3484C14.2637 58.7341 14.6296 57.1067 15.0169 55.3831C15.0819 55.0936 15.1501 54.7943 15.2118 54.4966C15.6468 52.3939 16.0925 50.3191 16.4338 48.7468C16.9724 46.2584 17.5078 43.8227 18.025 41.5045L17.2084 41.3228C16.6912 43.6417 16.1559 46.08 15.6164 48.5692C15.276 50.1432 14.8286 52.2212 14.3928 54.3264C14.3327 54.6167 14.2669 54.9127 14.202 55.1989C13.8031 56.9743 13.3903 58.8106 14.1666 60.6699V60.6691ZM23.7411 65.9995C24.1375 64.9091 24.7213 64.2076 25.4804 63.9108C26.4186 63.544 27.44 63.8655 27.9877 64.1015C26.5469 66.0365 24.6062 66.0891 23.7411 65.9995Z" fill="#0C88E0"/>
<defs>
<linearGradient id="paint0_linear_103_4967" x1="42" y1="68.5" x2="42" y2="-2.21428" gradientUnits="userSpaceOnUse">
<stop stop-color="#0C88E0" stop-opacity="0.17"/>
<stop offset="1" stop-color="#0C88E0" stop-opacity="0"/>
</linearGradient>
</defs>
</svg>
