<svg width="80" height="81" viewBox="0 0 80 81" fill="none" xmlns="http://www.w3.org/2000/svg">
<circle cx="40" cy="34.5" r="30" fill="url(#paint0_linear_103_5200)"/>
<path d="M37.0319 40.0876C39.1425 38.0122 41.4213 36.1943 44.1234 35.1689C45.7771 34.5414 46.0147 33.3446 46.2882 32.0154C47.0433 28.3509 47.1397 24.6465 46.8487 20.9269C46.7594 19.7819 46.9922 19.5053 48.1571 19.5045C48.7695 19.5045 49.3818 19.4989 49.995 19.5061C50.6839 19.514 50.9885 19.7493 51.0674 20.4174C51.2954 22.3414 51.537 24.2654 51.7021 26.1949C51.8847 28.3294 51.9732 30.471 52.1398 32.6063C52.1701 32.9906 52.3176 33.3988 52.5185 33.7305C53.8365 35.9056 54.7622 38.2139 54.9632 40.7702C55.2135 43.9571 54.181 46.7103 52.0688 49.0736C51.8783 49.2865 51.5657 49.4164 51.2851 49.5193C46.4811 51.2942 41.8773 50.8668 37.4944 48.2149C37.1356 47.998 36.8972 47.9757 36.5264 48.1989C32.059 50.8939 27.3802 51.3069 22.5125 49.4156C22.2422 49.3104 21.9767 49.1134 21.7877 48.8926C18.7411 45.3293 18.3233 41.3211 19.8956 37.0339C20.3063 35.9128 20.9521 34.8795 21.4544 33.7887C21.6522 33.3589 21.8395 32.8933 21.8826 32.4293C22.2462 28.5104 22.5699 24.5875 22.9175 20.667C23.0029 19.7054 23.2444 19.5053 24.1917 19.5029C24.8447 19.5013 25.4985 19.4965 26.1515 19.5045C26.9066 19.514 27.1968 19.8633 27.1936 20.6096C27.1817 23.2185 27.0693 25.8345 27.2383 28.4322C27.3571 30.2677 27.853 32.0808 28.2214 33.8955C28.2724 34.1459 28.51 34.4577 28.7413 34.5573C31.7544 35.8554 34.447 37.6255 36.8015 39.9106C36.8573 39.9648 36.9267 40.0063 37.0327 40.086L37.0319 40.0876ZM22.9678 34.4202C22.4439 35.554 21.8571 36.628 21.4393 37.7642C20.1683 41.223 20.4633 44.4953 22.8163 47.4494C23.0068 47.6886 23.2955 47.9047 23.5825 48.0052C27.9503 49.5281 32.0893 49.0305 35.9795 46.5317C37.024 45.8611 37.0008 45.8603 38.027 46.5221C41.9339 49.0441 46.0928 49.5241 50.4822 48.0012C50.6847 47.931 50.9015 47.8114 51.0363 47.6511C52.1916 46.2805 52.9483 44.7209 53.1859 42.9317C53.5822 39.9513 52.6405 37.3049 51.1647 34.7846C50.9558 34.4282 50.7126 34.5207 50.4463 34.5948C45.5913 35.9543 41.2012 38.1254 37.716 41.88C37.2536 42.3784 36.7592 42.3776 36.2944 41.8761C32.7048 38.0018 28.16 35.8339 22.9678 34.4202ZM26.3405 33.6268C25.2856 29.4791 25.166 25.3768 25.3869 21.2562H24.5537C24.4341 22.3175 24.2905 23.3452 24.2076 24.3786C23.9939 27.0624 23.8026 29.7478 23.6216 32.434C23.6112 32.5831 23.7436 32.8423 23.8656 32.8837C24.6493 33.1484 25.4499 33.3661 26.3397 33.6268H26.3405ZM48.6252 21.2403C48.8484 25.3848 48.7145 29.5102 47.6803 33.6268C48.4968 33.39 49.1921 33.1556 49.9041 32.993C50.341 32.8933 50.4343 32.6892 50.4008 32.2698C50.2031 29.7478 50.0476 27.2235 49.8451 24.7023C49.7526 23.5493 49.5852 22.4028 49.4504 21.2411H48.6244L48.6252 21.2403Z" fill="#0C88E0"/>
<path d="M37.0166 77.0829C36.2615 77.0829 35.5056 77.0829 34.7506 77.0829C33.7108 77.0829 33.5282 76.9275 33.3361 75.9021C32.8864 73.4965 31.9607 71.2951 30.4481 69.364C27.9326 66.1507 24.5917 64.2323 20.6808 63.2428C19.551 62.9566 19.4099 62.7979 19.602 61.6458C19.8468 60.1779 20.1027 58.7116 20.3595 57.2461C20.5078 56.3977 20.9376 56.1378 21.7461 56.3937C28.0346 58.3863 34.4779 58.9564 41.0343 58.4971C44.9158 58.2252 48.7214 57.5586 52.4274 56.3531C53.0175 56.1609 53.4672 56.389 53.5836 56.9917C53.9169 58.7124 54.2198 60.4394 54.5029 62.1696C54.593 62.7214 54.2677 63.0268 53.5302 63.1966C51.115 63.7507 48.8921 64.7386 46.8804 66.1826C43.5093 68.6033 41.4346 71.8572 40.6692 75.9404C40.4866 76.9163 40.2864 77.0822 39.2834 77.0829C38.5283 77.0829 37.7725 77.0829 37.0174 77.0829H37.0166ZM38.9956 75.3671C40.7098 67.9232 45.6987 63.7882 52.6642 61.6035C52.4689 60.4952 52.2799 59.4196 52.0814 58.2898C42.0103 61.1036 31.9894 61.0853 21.9278 58.2898C21.7277 59.434 21.5403 60.5096 21.3474 61.6171C21.577 61.6904 21.7684 61.751 21.9589 61.8124C25.6043 62.9813 28.812 64.8391 31.3308 67.7757C33.1057 69.844 34.2498 72.2272 34.8925 74.8664C34.9379 75.0529 35.1381 75.3408 35.2728 75.3448C36.5119 75.3822 37.7533 75.3663 38.9964 75.3663L38.9956 75.3671Z" fill="#0C88E0"/>
<defs>
<linearGradient id="paint0_linear_103_5200" x1="40" y1="64.5" x2="40" y2="-6.21428" gradientUnits="userSpaceOnUse">
<stop stop-color="#0C88E0" stop-opacity="0.17"/>
<stop offset="1" stop-color="#0C88E0" stop-opacity="0"/>
</linearGradient>
</defs>
</svg>
