<svg width="76" height="75" viewBox="0 0 76 75" fill="none" xmlns="http://www.w3.org/2000/svg">
<path d="M18.654 38.7858C18.5097 38.7858 18.3686 38.7431 18.2485 38.6629C18.1285 38.5827 18.035 38.4687 17.9797 38.3354C17.9245 38.202 17.9101 38.0553 17.9382 37.9138C17.9664 37.7722 18.0359 37.6422 18.138 37.5401L27.7081 27.9703C27.8457 27.8374 28.03 27.7639 28.2213 27.7655C28.4126 27.7672 28.5956 27.8439 28.7309 27.9792C28.8662 28.1145 28.943 28.2975 28.9446 28.4888C28.9463 28.6801 28.8727 28.8645 28.7398 29.0021L19.1697 38.5719C19.1021 38.6398 19.0218 38.6936 18.9332 38.7304C18.8447 38.7671 18.7498 38.7859 18.654 38.7858ZM37.3444 38.3588C37.2001 38.3588 37.059 38.316 36.9391 38.2358C36.8191 38.1556 36.7256 38.0416 36.6704 37.9083C36.6152 37.7749 36.6007 37.6282 36.6289 37.4867C36.6571 37.3451 36.7266 37.2151 36.8287 37.1131L46.174 27.7681C46.3116 27.6351 46.4959 27.5616 46.6873 27.5633C46.8786 27.5649 47.0616 27.6417 47.1969 27.7769C47.3322 27.9122 47.4089 28.0952 47.4106 28.2866C47.4122 28.4779 47.3387 28.6622 47.2058 28.7998L37.8604 38.1449C37.7928 38.2128 37.7124 38.2667 37.6238 38.3034C37.5352 38.3401 37.4403 38.359 37.3444 38.3588ZM23.7932 43.4493C23.649 43.4492 23.508 43.4064 23.3881 43.3262C23.2682 43.246 23.1747 43.1321 23.1195 42.9988C23.0643 42.8655 23.0499 42.7189 23.078 42.5774C23.1061 42.4359 23.1755 42.3059 23.2775 42.2039L37.5111 27.9703C37.5784 27.9006 37.6589 27.845 37.7479 27.8068C37.8369 27.7686 37.9327 27.7484 38.0296 27.7476C38.1264 27.7468 38.2225 27.7652 38.3122 27.8019C38.4019 27.8386 38.4833 27.8928 38.5519 27.9613C38.6204 28.0298 38.6745 28.1113 38.7112 28.2009C38.7479 28.2906 38.7664 28.3867 38.7655 28.4836C38.7647 28.5805 38.7446 28.6762 38.7063 28.7652C38.6681 28.8543 38.6125 28.9348 38.5428 29.0021L24.3092 43.2356C24.2415 43.3035 24.1611 43.3573 24.0726 43.3939C23.984 43.4306 23.8891 43.4494 23.7932 43.4493ZM46.8923 43.6612C46.748 43.6612 46.6069 43.6184 46.4868 43.5383C46.3668 43.4581 46.2733 43.3441 46.218 43.2108C46.1628 43.0774 46.1483 42.9307 46.1765 42.7891C46.2047 42.6476 46.2742 42.5175 46.3763 42.4155L56.3126 32.4791C56.4497 32.3432 56.6349 32.2672 56.8279 32.2676C57.0209 32.268 57.2058 32.3448 57.3423 32.4812C57.4788 32.6176 57.5556 32.8026 57.5561 32.9955C57.5565 33.1885 57.4805 33.3738 57.3447 33.5109L47.408 43.4472C47.3404 43.5152 47.26 43.569 47.1715 43.6057C47.083 43.6425 46.9881 43.6613 46.8923 43.6612ZM42.3893 43.1055C42.2451 43.1054 42.1041 43.0625 41.9842 42.9824C41.8643 42.9022 41.7708 42.7882 41.7156 42.655C41.6605 42.5217 41.646 42.375 41.6741 42.2336C41.7022 42.0921 41.7717 41.9621 41.8736 41.8601L54.2278 29.5076C54.3649 29.3717 54.5501 29.2957 54.7431 29.2961C54.9361 29.2965 55.121 29.3733 55.2575 29.5097C55.3939 29.6461 55.4708 29.8311 55.4713 30.024C55.4717 30.217 55.3957 30.4023 55.2599 30.5394L42.9068 42.8921C42.8389 42.9601 42.7582 43.0139 42.6694 43.0505C42.5806 43.0872 42.4854 43.1058 42.3893 43.1055Z" fill="#0C88E0" fill-opacity="0.09"/>
<path d="M42.1247 46.5798H33.4661C33.3544 46.5799 33.2442 46.5542 33.1439 46.5049C33.0437 46.4557 32.9561 46.384 32.8879 46.2955C32.8197 46.207 32.7728 46.1041 32.7506 45.9946C32.7285 45.8851 32.7319 45.772 32.7604 45.6639L34.4278 39.3447C34.7197 37.9262 36.1326 36.8994 37.7954 36.8994C39.4582 36.8994 40.8699 37.9262 41.163 39.3447L42.8304 45.6639C42.8589 45.772 42.8623 45.8851 42.8401 45.9946C42.818 46.1041 42.7711 46.207 42.7029 46.2955C42.6347 46.384 42.5471 46.4557 42.4469 46.5049C42.3466 46.5542 42.2364 46.5799 42.1247 46.5798ZM34.4132 45.1205H41.1776L39.7474 39.6964C39.7435 39.6814 39.74 39.6663 39.7369 39.6512C39.591 38.9142 38.7577 38.3588 37.7966 38.3588C36.8354 38.3588 36.001 38.9133 35.8562 39.6512C35.853 39.6663 35.8495 39.6803 35.8457 39.6964L34.4132 45.1205Z" fill="#0C88E0"/>
<path d="M50.049 43.6611C52.1791 43.6611 54.2219 42.8149 55.728 41.3088C57.2342 39.8026 58.0804 37.7598 58.0804 35.6297C58.0804 33.4997 57.2342 31.4569 55.728 29.9507C54.2219 28.4445 52.1791 27.5984 50.049 27.5984H25.542C23.4119 27.5984 21.3691 28.4445 19.8629 29.9507C18.3568 31.4569 17.5106 33.4997 17.5106 35.6297C17.5106 37.7598 18.3568 39.8026 19.8629 41.3088C21.3691 42.8149 23.4119 43.6611 25.542 43.6611H30.6978C31.8729 43.6604 33.0147 43.2713 33.9456 42.5542C34.8765 41.8371 35.5442 40.8323 35.8446 39.6963C35.8484 39.6815 35.8519 39.6672 35.8552 39.6511C36.0011 38.9141 36.8344 38.3587 37.7955 38.3587C38.7566 38.3587 39.5911 38.9133 39.7358 39.6511C39.739 39.6663 39.7426 39.6803 39.7463 39.6963C40.0468 40.8323 40.7145 41.8371 41.6454 42.5542C42.5762 43.2713 43.7181 43.6604 44.8932 43.6611H50.049ZM41.1628 39.3435C40.8692 37.9253 39.458 36.8991 37.7955 36.8991C36.133 36.8991 34.7218 37.9253 34.4282 39.3435C34.2066 40.1634 33.7212 40.8876 33.047 41.4041C32.3727 41.9207 31.5472 42.2009 30.6978 42.2015H25.542C23.799 42.2015 22.1274 41.509 20.8949 40.2766C19.6624 39.0441 18.97 37.3725 18.97 35.6294C18.97 33.8864 19.6624 32.2148 20.8949 30.9823C22.1274 29.7498 23.799 29.0574 25.542 29.0574H50.049C51.792 29.0574 53.4636 29.7498 54.6961 30.9823C55.9286 32.2148 56.621 33.8864 56.621 35.6294C56.621 37.3725 55.9286 39.0441 54.6961 40.2766C53.4636 41.509 51.792 42.2015 50.049 42.2015H44.8932C44.0438 42.2009 43.2183 41.9207 42.544 41.4041C41.8698 40.8876 41.3844 40.1634 41.1628 39.3435Z" fill="#43454D"/>
<path d="M64.0151 30.9581H62.8964V28.486C62.8964 28.2925 62.8195 28.1069 62.6827 27.97C62.5458 27.8332 62.3602 27.7563 62.1667 27.7563H57.648C55.6114 25.7818 52.8858 24.6781 50.0492 24.6794H25.5421C22.7055 24.6781 19.9799 25.7818 17.9433 27.7563H13.4246C13.2311 27.7563 13.0455 27.8332 12.9087 27.97C12.7718 28.1069 12.695 28.2925 12.695 28.486V30.9578H11.5762C11.2279 30.9578 10.8938 31.0962 10.6475 31.3425C10.4012 31.5888 10.2628 31.9229 10.2628 32.2712V38.932C10.2628 39.2803 10.4012 39.6144 10.6475 39.8607C10.8938 40.107 11.2279 40.2454 11.5762 40.2454H12.695V42.7292C12.695 42.9227 12.7718 43.1083 12.9087 43.2451C13.0455 43.382 13.2311 43.4589 13.4246 43.4589H17.8969C19.938 45.4607 22.6832 46.5815 25.5421 46.5801H31.2251C31.4186 46.5801 31.6042 46.5032 31.7411 46.3664C31.8779 46.2295 31.9548 46.044 31.9548 45.8504C31.9548 45.6569 31.8779 45.4713 31.7411 45.3345C31.6042 45.1976 31.4186 45.1208 31.2251 45.1208H25.5421C23.0251 45.1208 20.6111 44.1209 18.8312 42.341C17.0514 40.5612 16.0514 38.1472 16.0514 35.6301C16.0514 33.113 17.0514 30.699 18.8312 28.9191C20.6111 27.1393 23.0251 26.1394 25.5421 26.1394H50.0492C52.5663 26.1394 54.9803 27.1393 56.7601 28.9191C58.54 30.699 59.5399 33.113 59.5399 35.6301C59.5399 38.1472 58.54 40.5612 56.7601 42.341C54.9803 44.1209 52.5663 45.1208 50.0492 45.1208H44.3662C44.1727 45.1208 43.9871 45.1976 43.8503 45.3345C43.7134 45.4713 43.6365 45.6569 43.6365 45.8504C43.6365 46.044 43.7134 46.2295 43.8503 46.3664C43.9871 46.5032 44.1727 46.5801 44.3662 46.5801H50.0492C52.9081 46.5815 55.6533 45.4607 57.6944 43.4589H62.1667C62.3602 43.4589 62.5458 43.382 62.6827 43.2451C62.8195 43.1083 62.8964 42.9227 62.8964 42.7292V40.246H64.0151C64.3634 40.246 64.6975 40.1076 64.9438 39.8613C65.1901 39.615 65.3285 39.2809 65.3285 38.9326V32.2715C65.3285 31.9232 65.1901 31.5891 64.9438 31.3428C64.6975 31.0965 64.3634 30.9581 64.0151 30.9581ZM14.1543 29.2157H16.6752C16.2732 29.7693 15.924 30.3593 15.632 30.978C15.5782 30.965 15.5231 30.9583 15.4677 30.9578H14.1543V29.2157ZM11.7222 32.4175H15.0737C14.437 34.4919 14.4315 36.7088 15.0579 38.7863H11.7222V32.4175ZM14.1543 40.2457H15.4677C15.5153 40.2455 15.5629 40.2407 15.6096 40.2314C15.8982 40.8519 16.2445 41.4438 16.6439 41.9995H14.1543V40.2457ZM61.437 30.9581H60.1236C60.0683 30.9586 60.0131 30.9653 59.9593 30.9783C59.6673 30.3596 59.3181 29.7696 58.9162 29.216H61.437V30.9581ZM61.437 41.9992H58.9474C59.3468 41.4436 59.6931 40.8518 59.9818 40.2314C60.0285 40.2407 60.076 40.2455 60.1236 40.2457H61.437V41.9992ZM63.8692 38.7863H60.5322C61.1586 36.7088 61.1532 34.4919 60.5165 32.4175H63.868L63.8692 38.7863Z" fill="#43454D"/>
<path d="M43.2572 67.8592H32.3337C29.8561 67.8669 27.4334 67.1291 25.3807 65.7416C23.328 64.3542 21.7401 62.3813 20.8235 60.0794L15.0092 45.6086C14.9371 45.429 14.9392 45.2281 15.0152 45.0501C15.0912 44.8721 15.2348 44.7316 15.4143 44.6594C15.5939 44.5873 15.7948 44.5894 15.9728 44.6654C16.1508 44.7414 16.2914 44.885 16.3635 45.0645L22.1775 59.5354C22.9863 61.5666 24.3875 63.3075 26.199 64.5317C28.0104 65.756 30.1482 66.4069 32.3346 66.3998H43.258C45.4443 66.4069 47.5822 65.756 49.3936 64.5317C51.2051 63.3075 52.6063 61.5666 53.4151 59.5354L59.2291 45.0645C59.2648 44.9756 59.3177 44.8946 59.3847 44.8261C59.4518 44.7576 59.5316 44.703 59.6198 44.6654C59.7079 44.6278 59.8026 44.6079 59.8984 44.6069C59.9942 44.6058 60.0893 44.6237 60.1782 44.6594C60.2672 44.6952 60.3482 44.748 60.4167 44.8151C60.4851 44.8821 60.5398 44.962 60.5774 45.0501C60.615 45.1382 60.6349 45.2329 60.6359 45.3287C60.6369 45.4246 60.6191 45.5197 60.5834 45.6086L54.769 60.0794C53.8523 62.3816 52.2642 64.3546 50.2112 65.7421C48.1581 67.1296 45.7351 67.8672 43.2572 67.8592ZM59.9045 27.1435C59.7109 27.1435 59.5253 27.0666 59.3885 26.9298C59.2517 26.793 59.1748 26.6074 59.1748 26.4138C59.1694 21.6162 57.2611 17.0166 53.8687 13.6241C50.4762 10.2317 45.8766 8.32339 41.0789 8.31799H34.293C29.4953 8.32339 24.8957 10.2317 21.5033 13.6241C18.1108 17.0166 16.2025 21.6162 16.1971 26.4138C16.1971 26.6074 16.1203 26.793 15.9834 26.9298C15.8466 27.0666 15.661 27.1435 15.4675 27.1435C15.2739 27.1435 15.0883 27.0666 14.9515 26.9298C14.8147 26.793 14.7378 26.6074 14.7378 26.4138C14.7437 21.2293 16.8058 16.2588 20.4719 12.5927C24.1379 8.92667 29.1084 6.86451 34.293 6.85864H41.0789C46.2635 6.86451 51.234 8.92667 54.9001 12.5927C58.5661 16.2588 60.6283 21.2293 60.6341 26.4138C60.6341 26.6074 60.5573 26.793 60.4204 26.9298C60.2836 27.0666 60.098 27.1435 59.9045 27.1435Z" fill="#0C88E0"/>
</svg>
