<svg width="75" height="75" viewBox="0 0 75 75" fill="none" xmlns="http://www.w3.org/2000/svg">
<path d="M14.8111 27.7128C12.6556 27.7128 11.5474 26.7303 10.5696 25.8638C9.67302 25.0684 8.8984 24.382 7.29663 24.382C7.10311 24.382 6.91751 24.3051 6.78067 24.1682C6.64383 24.0314 6.56696 23.8458 6.56696 23.6523C6.56696 23.4588 6.64383 23.2732 6.78067 23.1363C6.91751 22.9995 7.10311 22.9226 7.29663 22.9226C9.45208 22.9226 10.5603 23.905 11.5381 24.7719C12.4335 25.5675 13.2093 26.2534 14.8111 26.2534C16.4129 26.2534 17.1872 25.5675 18.0841 24.7716C19.0619 23.9047 20.1701 22.9226 22.3255 22.9226C22.519 22.9226 22.7046 22.9995 22.8415 23.1363C22.9783 23.2732 23.0552 23.4588 23.0552 23.6523C23.0552 23.8458 22.9783 24.0314 22.8415 24.1682C22.7046 24.3051 22.519 24.382 22.3255 24.382C20.7238 24.382 19.9491 25.0687 19.0522 25.8638C18.0745 26.7303 16.9665 27.7128 14.8111 27.7128ZM59.9048 27.7128C57.7488 27.7128 56.6402 26.7303 55.6622 25.8638C54.765 25.0687 53.9901 24.382 52.3877 24.382C52.1942 24.382 52.0086 24.3051 51.8718 24.1682C51.7349 24.0314 51.658 23.8458 51.658 23.6523C51.658 23.4588 51.7349 23.2732 51.8718 23.1363C52.0086 22.9995 52.1942 22.9226 52.3877 22.9226C54.5437 22.9226 55.6523 23.9047 56.6303 24.7716C57.5275 25.5666 58.3021 26.2534 59.9048 26.2534C61.5074 26.2534 62.2821 25.5666 63.1793 24.7716C64.157 23.9047 65.2655 22.9226 67.4216 22.9226C67.6151 22.9226 67.8007 22.9995 67.9375 23.1363C68.0744 23.2732 68.1512 23.4588 68.1512 23.6523C68.1512 23.8458 68.0744 24.0314 67.9375 24.1682C67.8007 24.3051 67.6151 24.382 67.4216 24.382C65.8192 24.382 65.0443 25.0687 64.1471 25.8638C63.1693 26.7303 62.0608 27.7128 59.9048 27.7128ZM14.8111 34.3971C12.6556 34.3971 11.5474 33.4147 10.5696 32.5481C9.67302 31.7528 8.8984 31.066 7.29663 31.066C7.10311 31.066 6.91751 30.9892 6.78067 30.8523C6.64383 30.7155 6.56696 30.5299 6.56696 30.3364C6.56696 30.1428 6.64383 29.9572 6.78067 29.8204C6.91751 29.6836 7.10311 29.6067 7.29663 29.6067C9.45208 29.6067 10.5603 30.5891 11.5381 31.456C12.4347 32.2513 13.2093 32.9378 14.8111 32.9378C15.0046 32.9378 15.1902 33.0147 15.327 33.1515C15.4639 33.2883 15.5407 33.4739 15.5407 33.6675C15.5407 33.861 15.4639 34.0466 15.327 34.1834C15.1902 34.3203 15.0046 34.3971 14.8111 34.3971ZM59.9048 34.3971C59.7113 34.3971 59.5257 34.3203 59.3888 34.1834C59.252 34.0466 59.1751 33.861 59.1751 33.6675C59.1751 33.4739 59.252 33.2883 59.3888 33.1515C59.5257 33.0147 59.7113 32.9378 59.9048 32.9378C61.5071 32.9378 62.2821 32.251 63.1793 31.456C64.157 30.5891 65.2655 29.6067 67.4216 29.6067C67.6151 29.6067 67.8007 29.6836 67.9375 29.8204C68.0744 29.9572 68.1512 30.1428 68.1512 30.3364C68.1512 30.5299 68.0744 30.7155 67.9375 30.8523C67.8007 30.9892 67.6151 31.066 67.4216 31.066C65.8192 31.066 65.0443 31.7528 64.1471 32.5481C63.1693 33.4147 62.0608 34.3971 59.9048 34.3971Z" fill="#43454D"/>
<path d="M59.9048 41.0812C57.7488 41.0812 56.6402 40.099 55.6622 39.2322C54.765 38.4368 53.9901 37.7501 52.3877 37.7501C50.7853 37.7501 50.011 38.4368 49.1138 39.2319C48.1361 40.0987 47.0278 41.0812 44.8721 41.0812C42.7163 41.0812 41.6081 40.099 40.6304 39.2319C39.7332 38.4368 38.9585 37.7501 37.3565 37.7501C35.7544 37.7501 34.9798 38.4368 34.0826 39.2319C33.1048 40.0987 31.9966 41.0812 29.8409 41.0812C27.6851 41.0812 26.5769 40.0987 25.5991 39.2319C24.7022 38.4368 23.9276 37.7501 22.3255 37.7501C20.7235 37.7501 19.9491 38.4368 19.0522 39.2319C18.0745 40.0987 16.9665 41.0812 14.8111 41.0812C12.6556 41.0812 11.5474 40.0987 10.5696 39.2319C9.67302 38.4368 8.8984 37.7501 7.29663 37.7501C7.10311 37.7501 6.91751 37.6732 6.78067 37.5363C6.64383 37.3995 6.56696 37.2139 6.56696 37.0204C6.56696 36.8269 6.64383 36.6413 6.78067 36.5044C6.91751 36.3676 7.10311 36.2907 7.29663 36.2907C9.45208 36.2907 10.5603 37.2734 11.5381 38.14C12.4347 38.9351 13.2093 39.6218 14.8111 39.6218C16.4129 39.6218 17.1872 38.9351 18.0841 38.14C19.0619 37.2734 20.1701 36.2907 22.3255 36.2907C24.481 36.2907 25.5895 37.2734 26.5673 38.14C27.4642 38.9351 28.2388 39.6218 29.8409 39.6218C31.4429 39.6218 32.2175 38.9351 33.1147 38.14C34.0925 37.2734 35.2007 36.2907 37.3565 36.2907C39.5122 36.2907 40.6204 37.2734 41.5982 38.14C42.4954 38.9351 43.27 39.6218 44.8721 39.6218C46.4742 39.6218 47.2488 38.9351 48.146 38.14C49.1237 37.2732 50.232 36.2907 52.3877 36.2907C54.5434 36.2907 55.6523 37.2734 56.6303 38.14C57.5275 38.9351 58.3024 39.6218 59.9048 39.6218C61.5071 39.6218 62.2821 38.9351 63.1793 38.14C64.157 37.2732 65.2655 36.2907 67.4216 36.2907C67.6151 36.2907 67.8007 36.3676 67.9375 36.5044C68.0744 36.6413 68.1512 36.8269 68.1512 37.0204C68.1512 37.2139 68.0744 37.3995 67.9375 37.5363C67.8007 37.6732 67.6151 37.7501 67.4216 37.7501C65.8192 37.7501 65.0443 38.4368 64.1471 39.2319C63.1693 40.0987 62.0608 41.0812 59.9048 41.0812ZM59.9048 47.7527C57.7488 47.7527 56.6402 46.7703 55.6622 45.9034C54.765 45.1084 53.9901 44.4216 52.3877 44.4216C50.7853 44.4216 50.011 45.1084 49.1138 45.9034C48.1361 46.7703 47.0278 47.7527 44.8721 47.7527C42.7163 47.7527 41.6081 46.7703 40.6304 45.9034C39.7332 45.1084 38.9585 44.4216 37.3565 44.4216C35.7544 44.4216 34.9798 45.1084 34.0826 45.9034C33.1048 46.7703 31.9966 47.7527 29.8409 47.7527C27.6851 47.7527 26.5772 46.7703 25.5991 45.9034C24.7022 45.1084 23.9276 44.4216 22.3255 44.4216C20.7235 44.4216 19.9491 45.1084 19.0522 45.9034C18.0745 46.7703 16.9665 47.7527 14.8111 47.7527C12.6556 47.7527 11.5474 46.7703 10.5696 45.9034C9.67302 45.1084 8.8984 44.4219 7.29663 44.4219C7.10311 44.4219 6.91751 44.345 6.78067 44.2082C6.64383 44.0713 6.56696 43.8857 6.56696 43.6922C6.56696 43.4987 6.64383 43.3131 6.78067 43.1763C6.91751 43.0394 7.10311 42.9625 7.29663 42.9625C9.45208 42.9625 10.5603 43.945 11.5381 44.8118C12.4347 45.6069 13.2093 46.2936 14.8111 46.2936C16.4129 46.2936 17.1872 45.6069 18.0841 44.8118C19.0619 43.945 20.1701 42.9625 22.3255 42.9625C24.481 42.9625 25.5895 43.945 26.5673 44.8118C27.4642 45.6069 28.2388 46.2936 29.8409 46.2936C31.4429 46.2936 32.2175 45.6069 33.1147 44.8118C34.0925 43.945 35.2007 42.9625 37.3565 42.9625C39.5122 42.9625 40.6204 43.945 41.5982 44.8118C42.4954 45.6069 43.27 46.2936 44.8721 46.2936C46.4742 46.2936 47.2488 45.6069 48.146 44.8118C49.1237 43.945 50.232 42.9625 52.3877 42.9625C54.5434 42.9625 55.6523 43.945 56.6303 44.8118C57.5275 45.6069 58.3021 46.2936 59.9048 46.2936C61.5074 46.2936 62.2821 45.6069 63.1793 44.8118C64.157 43.945 65.2655 42.9625 67.4216 42.9625C67.6151 42.9625 67.8007 43.0394 67.9375 43.1763C68.0744 43.3131 68.1512 43.4987 68.1512 43.6922C68.1512 43.8857 68.0744 44.0713 67.9375 44.2082C67.8007 44.345 67.6151 44.4219 67.4216 44.4219C65.8192 44.4219 65.0443 45.1087 64.1471 45.9037C63.1693 46.7703 62.0608 47.7527 59.9048 47.7527ZM59.9048 54.4242C57.7488 54.4242 56.6402 53.4418 55.6622 52.575C54.765 51.7799 53.9901 51.0931 52.3877 51.0931C50.7853 51.0931 50.011 51.7799 49.1138 52.575C48.1361 53.4418 47.0278 54.4242 44.8721 54.4242C42.7163 54.4242 41.6081 53.4418 40.6304 52.575C39.7332 51.7799 38.9585 51.0931 37.3565 51.0931C35.7544 51.0931 34.9798 51.7799 34.0826 52.575C33.1048 53.4418 31.9966 54.4242 29.8409 54.4242C27.6851 54.4242 26.5772 53.4418 25.5991 52.575C24.7022 51.7799 23.9276 51.0931 22.3255 51.0931C20.7235 51.0931 19.9491 51.7799 19.0522 52.575C18.0745 53.4418 16.9665 54.4242 14.8111 54.4242C12.6556 54.4242 11.5474 53.4418 10.5696 52.575C9.67302 51.7799 8.8984 51.0931 7.29663 51.0931C7.10311 51.0931 6.91751 51.0163 6.78067 50.8794C6.64383 50.7426 6.56696 50.557 6.56696 50.3635C6.56696 50.1699 6.64383 49.9843 6.78067 49.8475C6.91751 49.7107 7.10311 49.6338 7.29663 49.6338C9.45208 49.6338 10.5603 50.6162 11.5381 51.4831C12.4347 52.2781 13.2093 52.9649 14.8111 52.9649C16.4129 52.9649 17.1872 52.2781 18.0841 51.4831C19.0619 50.6162 20.1701 49.6338 22.3255 49.6338C24.481 49.6338 25.5895 50.6162 26.5673 51.4831C27.4642 52.2781 28.2388 52.9649 29.8409 52.9649C31.4429 52.9649 32.2175 52.2781 33.1147 51.4831C34.0925 50.6162 35.2007 49.6338 37.3565 49.6338C39.5122 49.6338 40.6204 50.6162 41.5982 51.4831C42.4954 52.2781 43.27 52.9649 44.8721 52.9649C46.4742 52.9649 47.2488 52.2781 48.146 51.4831C49.1237 50.6162 50.232 49.6338 52.3877 49.6338C54.5434 49.6338 55.6523 50.6162 56.6303 51.4831C57.5275 52.2781 58.3021 52.9649 59.9048 52.9649C61.5074 52.9649 62.2821 52.2781 63.1793 51.4831C64.157 50.6162 65.2655 49.6338 67.4216 49.6338C67.6151 49.6338 67.8007 49.7107 67.9375 49.8475C68.0744 49.9843 68.1512 50.1699 68.1512 50.3635C68.1512 50.557 68.0744 50.7426 67.9375 50.8794C67.8007 51.0163 67.6151 51.0931 67.4216 51.0931C65.8192 51.0931 65.0443 51.7799 64.1471 52.575C63.1693 53.4406 62.0608 54.4242 59.9048 54.4242ZM33.4883 21.8771C33.4008 21.8771 33.3132 21.875 33.2257 21.8712C33.0321 21.8626 32.85 21.7774 32.7193 21.6344C32.5886 21.4914 32.52 21.3024 32.5287 21.1089C32.5373 20.9154 32.6225 20.7332 32.7655 20.6025C32.9085 20.4718 33.0975 20.4032 33.291 20.4119C34.1685 20.4502 35.0372 20.2235 35.7841 19.7613C36.531 19.2991 37.1216 18.6229 37.4789 17.8205C37.8362 17.0182 37.9438 16.1269 37.7877 15.2625C37.6316 14.3982 37.2189 13.6008 36.6035 12.9742C36.4712 12.8354 36.3989 12.6501 36.4022 12.4584C36.4054 12.2668 36.484 12.0841 36.6209 11.9498C36.7578 11.8156 36.942 11.7407 37.1337 11.7412C37.3255 11.7417 37.5093 11.8177 37.6454 11.9527C38.4504 12.7726 38.9954 13.8119 39.2122 14.9402C39.4289 16.0686 39.3077 17.2359 38.8637 18.2957C38.4197 19.3554 37.6727 20.2605 36.7164 20.8975C35.7601 21.5345 34.6371 21.8749 33.488 21.8762L33.4883 21.8771Z" fill="#0C88E0" fill-opacity="0.08"/>
<path d="M33.7592 22.5203C34.6385 23.027 35.6353 23.2941 36.6501 23.2949C37.1695 23.2946 37.6864 23.2252 38.1874 23.0886C39.4899 22.7351 40.6294 21.9408 41.4119 20.8413C42.1944 19.7417 42.5715 18.4049 42.4788 17.0585C42.3861 15.7121 41.8295 14.4395 40.9037 13.4575C39.978 12.4756 38.7403 11.845 37.4018 11.6732C36.0632 11.5014 34.7064 11.7991 33.5627 12.5155C32.419 13.2319 31.5591 14.3227 31.1295 15.6021C30.6998 16.8814 30.7271 18.2702 31.2066 19.5317C31.6861 20.7932 32.5882 21.8494 33.7592 22.5203ZM32.8643 15.284C33.1487 14.7847 33.5292 14.3467 33.984 13.9954C34.4387 13.6441 34.9586 13.3865 35.5136 13.2374C36.0678 13.0856 36.6466 13.045 37.2166 13.1182C37.7865 13.1913 38.3363 13.3767 38.8342 13.6636C39.5849 14.0937 40.1911 14.7367 40.5763 15.5114C40.9615 16.2861 41.1083 17.1576 40.9982 18.0157C40.8881 18.8738 40.526 19.68 39.9577 20.3323C39.3893 20.9846 38.6404 21.4538 37.8054 21.6804C36.9705 21.9071 36.0871 21.881 35.2669 21.6056C34.4468 21.3301 33.7268 20.8177 33.1979 20.133C32.669 19.4484 32.355 18.6222 32.2956 17.7591C32.2362 16.896 32.4342 16.0347 32.8643 15.284ZM29.7892 29.5628C30.4482 29.4917 31.0521 29.1617 31.4678 28.6454C31.8836 28.1291 32.0772 27.4688 32.0061 26.8098C31.935 26.1507 31.605 25.5469 31.0887 25.1312C30.5724 24.7154 29.9121 24.5218 29.253 24.5929L24.7583 25.0777C24.3782 25.1176 24.0124 25.2446 23.6894 25.4489C23.3665 25.6532 23.095 25.9293 22.8961 26.2557L18.444 33.5124C18.0973 34.0775 17.9893 34.7571 18.1437 35.4018C18.2982 36.0465 18.7024 36.6035 19.2675 36.9502C19.8326 37.2968 20.5122 37.4048 21.1569 37.2504C21.8016 37.096 22.3586 36.6917 22.7052 36.1267L26.5159 29.9163L29.7892 29.5628ZM25.4593 28.8472L21.4607 35.3626C21.3904 35.4811 21.2972 35.5845 21.1865 35.6667C21.0759 35.7489 20.95 35.8083 20.8162 35.8414C20.6824 35.8746 20.5433 35.8808 20.4071 35.8597C20.2708 35.8386 20.1402 35.7907 20.0226 35.7186C19.9051 35.6466 19.803 35.5519 19.7224 35.4401C19.6418 35.3283 19.5842 35.2016 19.553 35.0673C19.5217 34.9331 19.5175 34.7939 19.5405 34.658C19.5635 34.5221 19.6133 34.3921 19.687 34.2756L24.1409 27.0192C24.2236 26.8833 24.3366 26.7683 24.471 26.6833C24.6054 26.5982 24.7577 26.5454 24.9159 26.5289L29.4083 26.0438C29.4452 26.0398 29.4824 26.0379 29.5195 26.0379C29.7761 26.0381 30.0236 26.1329 30.2146 26.3041C30.4057 26.4754 30.5269 26.7111 30.5551 26.9661C30.5698 27.1019 30.5576 27.2392 30.5192 27.3703C30.4808 27.5014 30.4169 27.6236 30.3313 27.73C30.2456 27.8363 30.1398 27.9248 30.02 27.9903C29.9001 28.0558 29.7685 28.097 29.6327 28.1117L26.0031 28.5036C25.8922 28.5155 25.7856 28.5527 25.6913 28.6123C25.597 28.6718 25.5177 28.7522 25.4593 28.8472ZM56.4864 29.0369C56.4254 28.7144 56.3014 28.407 56.1216 28.1324C55.9417 27.8578 55.7095 27.6213 55.4383 27.4365C55.167 27.2516 54.862 27.122 54.5406 27.0551C54.2193 26.9881 53.8879 26.9852 53.5654 27.0463L46.0469 28.4718L38.2055 24.2917C37.8899 24.1235 37.5418 24.0251 37.1849 24.003C36.8279 23.9809 36.4704 24.0357 36.1364 24.1637C35.8025 24.2917 35.4999 24.4898 35.2491 24.7448C34.9983 24.9997 34.8051 25.3056 34.6827 25.6416L28.8129 41.7346C28.696 42.0546 28.6458 42.3952 28.6654 42.7353C28.685 43.0754 28.7739 43.408 28.9267 43.7124C29.0795 44.0169 29.293 44.287 29.554 44.5059C29.815 44.7249 30.118 44.8882 30.4444 44.9858L43.1924 48.8002L48.573 55.8564C48.9772 56.377 49.5708 56.7169 50.2244 56.8021C50.8781 56.8872 51.5389 56.7107 52.063 56.311C52.5871 55.9113 52.9322 55.3207 53.023 54.6678C53.1138 54.015 52.9431 53.3527 52.5479 52.8251L46.6741 45.1226C46.3546 44.7023 45.9096 44.3946 45.4036 44.2441L34.4171 40.9568L38.3923 30.0561L44.4716 33.2958C44.9744 33.5635 45.5534 33.6518 46.1131 33.546L54.4962 31.957C55.1472 31.8332 55.7224 31.456 56.0956 30.9084C56.4687 30.3608 56.6093 29.6875 56.4864 29.0363V29.0369ZM54.8896 30.0876C54.8132 30.201 54.7151 30.2981 54.6009 30.3732C54.4867 30.4484 54.3588 30.5001 54.2244 30.5254L45.8417 32.1143C45.6087 32.1583 45.3677 32.1215 45.1584 32.0101L38.3374 28.3749C38.2453 28.3258 38.1437 28.2971 38.0395 28.2906C37.9353 28.2841 37.831 28.3001 37.7335 28.3374C37.636 28.3748 37.5476 28.4326 37.4744 28.507C37.4011 28.5813 37.3447 28.6706 37.3089 28.7687L32.7808 41.1824C32.7468 41.2758 32.7321 41.3753 32.7379 41.4745C32.7436 41.5738 32.7696 41.6709 32.8142 41.7598C32.8588 41.8487 32.9211 41.9275 32.9973 41.9914C33.0734 42.0554 33.1619 42.1031 33.2572 42.1316L44.9847 45.6392C45.1955 45.7018 45.3809 45.8299 45.5139 46.005L51.3872 53.7074C51.5545 53.9267 51.6278 54.2034 51.591 54.4768C51.5542 54.7501 51.4103 54.9977 51.191 55.165C50.9717 55.3322 50.695 55.4056 50.4216 55.3688C50.1483 55.332 49.9007 55.1881 49.7335 54.9688L44.209 47.7241C44.1154 47.6015 43.9855 47.5117 43.8377 47.4675L30.8624 43.5857C30.7266 43.545 30.6006 43.477 30.492 43.3859C30.3835 43.2948 30.2947 43.1824 30.2311 43.0557C30.1676 42.929 30.1306 42.7907 30.1225 42.6492C30.1143 42.5077 30.1352 42.366 30.1838 42.2328L36.0524 26.1389C36.1035 25.9992 36.1839 25.872 36.2884 25.766C36.3928 25.66 36.5187 25.5777 36.6576 25.5245C36.7966 25.4713 36.9453 25.4485 37.0938 25.4577C37.2423 25.4668 37.3871 25.5078 37.5185 25.5777L45.5872 29.8783C45.7338 29.9569 45.903 29.9826 46.0664 29.9513L53.8368 28.4782C53.971 28.4528 54.1089 28.454 54.2426 28.4818C54.3763 28.5096 54.5032 28.5635 54.6161 28.6403C54.729 28.7172 54.8256 28.8156 54.9005 28.9298C54.9754 29.044 55.027 29.1718 55.0525 29.306C55.0784 29.4405 55.0774 29.5788 55.0494 29.7129C55.0215 29.8469 54.9672 29.9741 54.8896 30.087V30.0876ZM32.6892 48.3005C32.2692 47.7876 31.6627 47.4626 31.0031 47.3969C30.3435 47.3312 29.6848 47.5303 29.1719 47.9503C28.659 48.3702 28.334 48.9768 28.2683 49.6364C28.2026 50.296 28.4017 50.9547 28.8216 51.4676L29.9348 52.828L23.7239 58.7929C23.2458 59.252 22.9697 59.8822 22.9563 60.5449C22.9428 61.2075 23.1931 61.8484 23.6521 62.3266C24.0335 62.7219 24.534 62.9814 25.077 63.0653C25.2015 63.0846 25.3274 63.0944 25.4535 63.0945C26.0995 63.0963 26.7209 62.8469 27.1863 62.3989L35.0624 54.8346C35.5131 54.3976 35.7839 53.8078 35.8214 53.1811C35.859 52.5545 35.6606 51.9365 35.2652 51.4489L32.6892 48.3005ZM34.0516 53.7806L26.1756 61.345C26.1082 61.4097 26.0325 61.4652 25.9505 61.5099C25.7294 61.6287 25.4727 61.6636 25.2278 61.608C24.983 61.5524 24.7665 61.4101 24.6184 61.2074C24.4702 61.0047 24.4004 60.7552 24.4217 60.5051C24.4431 60.2549 24.5542 60.0209 24.7346 59.8463L31.4318 53.4117C31.5641 53.2845 31.6436 53.1121 31.6544 52.9289C31.6652 52.7456 31.6066 52.5651 31.4902 52.4232L29.9497 50.5418C29.8252 50.3895 29.7464 50.205 29.7225 50.0098C29.6985 49.8146 29.7304 49.6166 29.8143 49.4387C29.8983 49.2608 30.031 49.1104 30.1969 49.0048C30.3629 48.8992 30.5554 48.8429 30.7521 48.8422C30.7865 48.8422 30.8212 48.844 30.856 48.8472C30.9922 48.8603 31.1245 48.9004 31.2452 48.965C31.3659 49.0297 31.4726 49.1176 31.5591 49.2237L34.1354 52.3706C34.3003 52.5736 34.3832 52.8309 34.3676 53.092C34.3521 53.353 34.2395 53.5987 34.0516 53.7806Z" fill="#0C88E0"/>
</svg>
