<svg width="76" height="75" viewBox="0 0 76 75" fill="none" xmlns="http://www.w3.org/2000/svg">
<path d="M30.1614 50.9255C30.0261 50.9255 29.8934 50.8879 29.7782 50.8169C29.663 50.7459 29.5698 50.6442 29.5091 50.5233C29.3865 50.2802 26.5061 44.5187 25.8607 40.7457C25.035 35.9007 29.9781 32.3235 30.1889 32.1735C30.3466 32.0625 30.5418 32.0184 30.7319 32.0508C30.922 32.0833 31.0915 32.1898 31.2034 32.3469C31.3153 32.504 31.3604 32.699 31.3289 32.8893C31.2974 33.0795 31.1918 33.2496 31.0353 33.3623C30.9915 33.3938 26.6281 36.5647 27.2994 40.5002C27.9067 44.061 30.7825 49.8108 30.8111 49.8692C30.8978 50.0417 30.9125 50.2416 30.8521 50.4249C30.7917 50.6083 30.6611 50.7603 30.4889 50.8475C30.3874 50.899 30.2752 50.9257 30.1614 50.9255ZM11.8907 50.9252C11.7772 50.9254 11.6652 50.8988 11.5639 50.8475C11.391 50.7606 11.2597 50.6086 11.1989 50.4249C11.1381 50.2412 11.1527 50.0409 11.2396 49.868C11.2688 49.8097 14.1448 44.0578 14.7513 40.5005C15.4253 36.5504 11.0607 33.3944 11.0154 33.3632C10.9373 33.3076 10.871 33.2372 10.8201 33.1559C10.7692 33.0747 10.7348 32.9842 10.7189 32.8897C10.703 32.7952 10.7058 32.6985 10.7273 32.6051C10.7487 32.5116 10.7884 32.4234 10.844 32.3453C10.8995 32.2672 10.9699 32.2008 11.0512 32.1499C11.1324 32.099 11.2229 32.0646 11.3174 32.0487C11.4119 32.0328 11.5086 32.0356 11.6021 32.0571C11.6955 32.0786 11.7838 32.1182 11.8618 32.1738C12.0723 32.3238 17.0154 35.9021 16.1897 40.7457C15.5476 44.5187 12.6654 50.2802 12.5428 50.5233C12.482 50.6441 12.3889 50.7457 12.2737 50.8167C12.1586 50.8876 12.026 50.9252 11.8907 50.9252ZM41.9415 48.31C41.8982 48.31 41.8549 48.3061 41.8122 48.2984C41.6218 48.2643 41.4527 48.156 41.3421 47.9973C41.2315 47.8386 41.1884 47.6424 41.2224 47.4519L42.938 37.8716C43.0002 37.5243 42.9776 37.167 42.8719 36.8302C42.7663 36.4935 42.5807 36.1873 42.3312 35.9377L40.3789 33.9851C40.3092 33.9178 40.2536 33.8373 40.2154 33.7483C40.1771 33.6593 40.157 33.5635 40.1561 33.4666C40.1553 33.3697 40.1738 33.2737 40.2105 33.184C40.2471 33.0943 40.3013 33.0128 40.3698 32.9443C40.4383 32.8758 40.5198 32.8216 40.6095 32.7849C40.6992 32.7483 40.7952 32.7298 40.8921 32.7306C40.989 32.7315 41.0848 32.7516 41.1738 32.7899C41.2628 32.8281 41.3433 32.8837 41.4106 32.9534L43.3629 34.906C43.7789 35.3219 44.0881 35.8322 44.2643 36.3934C44.4404 36.9546 44.4783 37.5501 44.3746 38.1291L42.6598 47.7088C42.6297 47.8774 42.5412 48.03 42.4099 48.1399C42.2786 48.2498 42.1128 48.31 41.9415 48.31ZM64.897 48.31C64.7259 48.3098 64.5603 48.2495 64.4292 48.1396C64.2981 48.0297 64.2097 47.8772 64.1796 47.7088L62.464 38.1285C62.3603 37.5495 62.3981 36.954 62.5743 36.3928C62.7504 35.8316 63.0597 35.3213 63.4756 34.9054L65.4279 32.9531C65.4952 32.8834 65.5758 32.8278 65.6648 32.7896C65.7538 32.7513 65.8495 32.7312 65.9464 32.7303C66.0433 32.7295 66.1394 32.748 66.2291 32.7847C66.3187 32.8213 66.4002 32.8755 66.4687 32.944C66.5372 33.0125 66.5914 33.094 66.6281 33.1837C66.6648 33.2734 66.6833 33.3694 66.6824 33.4663C66.6816 33.5632 66.6614 33.659 66.6232 33.748C66.585 33.837 66.5294 33.9175 66.4597 33.9848L64.5074 35.9374C64.2579 36.187 64.0724 36.4931 63.9667 36.8298C63.8611 37.1665 63.8384 37.5237 63.9006 37.8711L65.6162 47.4517C65.6502 47.6421 65.6071 47.8383 65.4965 47.997C65.3859 48.1557 65.2168 48.264 65.0263 48.2981C64.9837 48.3059 64.9404 48.3099 64.897 48.31Z" fill="#0C88E0"/>
<path d="M32.9348 18.6426V11.1804C32.9348 10.9868 32.858 10.8012 32.7211 10.6644C32.5843 10.5276 32.3987 10.4507 32.2052 10.4507H29.2316C29.0381 10.4507 28.8525 10.5276 28.7157 10.6644C28.5788 10.8012 28.5019 10.9868 28.5019 11.1804V17.5008C28.5019 19.4834 27.7143 21.3849 26.3124 22.7868C24.9104 24.1888 23.009 24.9764 21.0263 24.9764C19.0437 24.9764 17.1422 24.1888 15.7402 22.7868C14.3383 21.3849 13.5507 19.4834 13.5507 17.5008V11.1804C13.5507 10.9868 13.4738 10.8012 13.337 10.6644C13.2001 10.5276 13.0145 10.4507 12.821 10.4507H9.84745C9.65393 10.4507 9.46833 10.5276 9.33149 10.6644C9.19465 10.8012 9.11778 10.9868 9.11778 11.1804V18.6426C9.11778 18.8136 8.98323 19.8188 8.48617 22.4952C7.83115 23.3231 7.36745 24.2857 7.12833 25.3139C6.88922 26.3422 6.88061 27.4106 7.10312 28.4425C7.32564 29.4745 7.77377 30.4444 8.41537 31.2828C9.05697 32.1211 9.87613 32.8071 10.8141 33.2915C11.0229 33.8935 11.1729 34.5144 11.2618 35.1454C11.3538 35.8036 11.4761 36.6085 11.6252 37.5387C11.8968 39.2491 11.5983 41.0014 10.7756 42.5253L9.98113 43.9899C9.38064 45.1109 9.19651 46.4083 9.4614 47.652C9.72629 48.8958 10.4231 50.0056 11.4282 50.7846C14.3569 53.0826 16.4683 56.2621 17.45 59.853L18.0212 61.9252C18.188 62.5952 18.5743 63.19 19.1185 63.6148C19.6628 64.0396 20.3336 64.2699 21.024 64.2689C21.7023 64.2693 22.3619 64.047 22.9017 63.6363C23.4415 63.2256 23.8316 62.6491 24.0121 61.9953L24.6251 59.775C25.5722 56.3394 27.6847 53.2007 30.733 50.6979C31.701 49.9011 32.362 48.7926 32.6027 47.5621C32.8434 46.3316 32.6489 45.0557 32.0525 43.9528L31.277 42.5253C30.4548 41.0018 30.1562 39.2503 30.4274 37.5405C30.5768 36.6065 30.6991 35.8015 30.7908 35.1471C30.88 34.5162 31.0298 33.8954 31.2382 33.2932C32.1763 32.8089 32.9956 32.123 33.6373 31.2847C34.279 30.4464 34.7272 29.4764 34.9497 28.4444C35.1723 27.4124 35.1636 26.344 34.9245 25.3157C34.6853 24.2874 34.2216 23.3248 33.5665 22.497C33.0694 19.8179 32.9351 18.8136 32.9348 18.6426ZM33.626 27.4669C33.5307 28.4595 33.1775 29.4099 32.6016 30.224C32.0257 31.038 31.247 31.6873 30.3428 32.1076C30.1706 32.188 30.0367 32.3326 29.9698 32.5104C29.672 33.2958 29.4627 34.112 29.3457 34.9437C29.2553 35.5882 29.1341 36.3838 28.9864 37.3079C28.6647 39.3355 29.019 41.4127 29.9946 43.2191L30.7683 44.6469C31.2034 45.4516 31.3452 46.3826 31.1695 47.2804C30.9938 48.1782 30.5115 48.987 29.8051 49.5684C26.5225 52.2632 24.2439 55.6579 23.2162 59.3857L22.6033 61.6059C22.4953 61.9955 22.2473 62.3315 21.9068 62.5495C21.5663 62.7674 21.1574 62.8521 20.7584 62.7871C20.4399 62.7278 20.1452 62.5784 19.9091 62.3566C19.6731 62.1348 19.5056 61.85 19.4266 61.5359L18.8551 59.4636C17.7917 55.5727 15.5046 52.1273 12.3318 49.6367C11.5976 49.0705 11.0875 48.2626 10.8921 47.3562C10.6967 46.4499 10.8285 45.5036 11.2642 44.6851L12.0586 43.2205C13.0335 41.4139 13.3877 39.3369 13.0665 37.3093C12.9188 36.3891 12.798 35.5934 12.7069 34.9452C12.5898 34.1133 12.3805 33.2971 12.0829 32.5116C12.0156 32.3338 11.8817 32.1893 11.7096 32.1088C10.9154 31.742 10.2164 31.1971 9.66673 30.5166C9.11707 29.836 8.73152 29.038 8.53999 28.1845C8.34846 27.3309 8.35608 26.4447 8.56227 25.5945C8.76845 24.7443 9.16767 23.9531 9.72895 23.2821C9.80941 23.1859 9.86378 23.0706 9.88685 22.9473C10.3448 20.4915 10.5771 19.0436 10.5771 18.6437V11.91H12.0913V17.5008C12.0913 19.8705 13.0327 22.1431 14.7083 23.8188C16.384 25.4944 18.6566 26.4357 21.0263 26.4357C23.396 26.4357 25.6687 25.4944 27.3443 23.8188C29.0199 22.1431 29.9613 19.8705 29.9613 17.5008V11.91H31.4755V18.6426C31.4755 19.0424 31.709 20.4904 32.1658 22.9462C32.1888 23.0694 32.2432 23.1847 32.3237 23.2809C32.8072 23.8577 33.1712 24.5247 33.3948 25.2433C33.6184 25.9619 33.697 26.7177 33.626 27.4669ZM69.201 47.5688L66.2934 31.1894V27.0221C66.2934 26.8286 66.2165 26.643 66.0797 26.5062C65.9428 26.3693 65.7572 26.2924 65.5637 26.2924H41.1927C40.9992 26.2924 40.8136 26.3693 40.6767 26.5062C40.5399 26.643 40.463 26.8286 40.463 27.0221V31.1894L37.5554 47.5688C37.5368 47.6738 37.5414 47.7816 37.5689 47.8846C37.5964 47.9876 37.6462 48.0834 37.7147 48.1651C37.7832 48.2468 37.8688 48.3125 37.9654 48.3576C38.062 48.4027 38.1674 48.426 38.274 48.426H50.4595C50.6309 48.426 50.7969 48.3657 50.9283 48.2556C51.0597 48.1455 51.1481 47.9927 51.1781 47.8239L52.4836 40.4688C52.5208 40.2586 52.6308 40.0682 52.7944 39.931C52.9579 39.7938 53.1646 39.7186 53.3781 39.7186C53.5915 39.7186 53.7982 39.7938 53.9618 39.931C54.1253 40.0682 54.2353 40.2586 54.2725 40.4688L55.5783 47.8239C55.6083 47.9927 55.6967 48.1455 55.8281 48.2556C55.9595 48.3657 56.1255 48.426 56.2969 48.426H68.4824C68.589 48.426 68.6944 48.4027 68.791 48.3576C68.8877 48.3125 68.9732 48.2468 69.0417 48.1651C69.1102 48.0834 69.16 47.9876 69.1875 47.8846C69.215 47.7816 69.2196 47.6738 69.201 47.5688ZM41.9224 27.7509H64.8341V30.5237H56.9361C56.5085 29.7953 55.9654 29.1412 55.3282 28.5868C55.1817 28.4636 54.9927 28.403 54.8018 28.4179C54.611 28.4328 54.4337 28.522 54.3081 28.6664C54.1825 28.8109 54.1186 28.9988 54.1303 29.1899C54.142 29.3809 54.2283 29.5597 54.3706 29.6877C54.6613 29.9416 54.9283 30.2214 55.1682 30.5237H51.5879C51.8278 30.2214 52.0947 29.9416 52.3853 29.6877C52.4594 29.6254 52.5204 29.549 52.5647 29.4628C52.6089 29.3767 52.6356 29.2826 52.6432 29.186C52.6507 29.0895 52.6389 28.9924 52.6086 28.9004C52.5782 28.8084 52.5298 28.7234 52.4662 28.6504C52.4027 28.5773 52.3252 28.5176 52.2383 28.4748C52.1515 28.4319 52.0569 28.4068 51.9603 28.4009C51.8636 28.395 51.7667 28.4084 51.6753 28.4403C51.5838 28.4722 51.4996 28.522 51.4276 28.5868C50.7906 29.1413 50.2477 29.7954 49.82 30.5237H41.9224V27.7509ZM56.9086 46.9658L55.7097 40.2122C55.6124 39.6646 55.3255 39.1687 54.8992 38.8114C54.4729 38.4542 53.9344 38.2584 53.3782 38.2584C52.822 38.2584 52.2835 38.4542 51.8572 38.8114C51.431 39.1687 51.144 39.6646 51.0468 40.2122L49.8478 46.9658H39.1444L41.8044 31.983H49.1546C48.8837 32.7867 48.7457 33.6292 48.746 34.4773V34.7558C48.746 34.9493 48.8228 35.1349 48.9597 35.2717C49.0965 35.4086 49.2821 35.4854 49.4756 35.4854C49.6692 35.4854 49.8547 35.4086 49.9916 35.2717C50.1284 35.1349 50.2053 34.9493 50.2053 34.7558V34.4773C50.2059 33.6198 50.3803 32.7713 50.7178 31.983H56.0406C56.3784 32.7712 56.5528 33.6198 56.5534 34.4773V34.7558C56.5534 34.9493 56.6303 35.1349 56.7672 35.2717C56.904 35.4086 57.0896 35.4854 57.2831 35.4854C57.4766 35.4854 57.6622 35.4086 57.7991 35.2717C57.9359 35.1349 58.0128 34.9493 58.0128 34.7558V34.4773C58.0131 33.6292 57.875 32.7867 57.6042 31.983H64.9543L67.6141 46.9658H56.9086Z" fill="#43454D"/>
</svg>
