<svg width="62" height="62" viewBox="0 0 62 62" fill="none" xmlns="http://www.w3.org/2000/svg">
<path d="M49.2604 54.0547C47.488 54.0547 46.5771 53.2472 45.7731 52.5347C45.0357 51.8812 44.3987 51.3167 43.0817 51.3167C41.7646 51.3167 41.1281 51.8812 40.3907 52.5347C39.587 53.2472 38.6761 54.0547 36.9039 54.0547C35.1317 54.0547 34.2213 53.2472 33.4176 52.5347C32.6804 51.8812 32.0434 51.3167 30.7266 51.3167C29.4098 51.3167 28.7731 51.8812 28.0356 52.5347C27.2322 53.2472 26.321 54.0547 24.5491 54.0547C22.7771 54.0547 21.8665 53.2472 21.0628 52.5347C20.3256 51.8812 19.6886 51.3167 18.3718 51.3167C17.0549 51.3167 16.4187 51.8812 15.6813 52.5347C14.8778 53.2472 13.9669 54.0547 12.1952 54.0547C10.4235 54.0547 9.51261 53.2472 8.70917 52.5347C7.97194 51.8812 7.33524 51.3167 6.01864 51.3167C5.85958 51.3167 5.70703 51.2535 5.59455 51.141C5.48207 51.0285 5.41888 50.876 5.41888 50.7169C5.41888 50.5579 5.48207 50.4053 5.59455 50.2928C5.70703 50.1804 5.85958 50.1172 6.01864 50.1172C7.79034 50.1172 8.70125 50.9247 9.50469 51.6372C10.2419 52.2907 10.8786 52.8552 12.1952 52.8552C13.5118 52.8552 14.1485 52.2907 14.8857 51.6372C15.6894 50.9247 16.6001 50.1172 18.3718 50.1172C20.1435 50.1172 21.0549 50.9247 21.8583 51.6372C22.5958 52.2907 23.2325 52.8552 24.5491 52.8552C25.8657 52.8552 26.5028 52.2907 27.2401 51.6372C28.0438 50.9247 28.9547 50.1172 30.7266 50.1172C32.4985 50.1172 33.4097 50.9247 34.2131 51.6372C34.9506 52.2907 35.5873 52.8552 36.9039 52.8552C38.2205 52.8552 38.8579 52.2907 39.5951 51.637C40.399 50.9244 41.3097 50.1172 43.0817 50.1172C44.8536 50.1172 45.765 50.9244 46.5687 51.637C47.3064 52.2907 47.9433 52.8552 49.2604 52.8552C50.5775 52.8552 51.2144 52.2907 51.9519 51.637C52.7555 50.9244 53.6667 50.1172 55.4389 50.1172C55.5979 50.1172 55.7505 50.1804 55.863 50.2928C55.9754 50.4053 56.0386 50.5579 56.0386 50.7169C56.0386 50.876 55.9754 51.0285 55.863 51.141C55.7505 51.2535 55.5979 51.3167 55.4389 51.3167C54.1218 51.3167 53.4849 51.8812 52.7474 52.5347C51.9437 53.2479 51.0326 54.0547 49.2604 54.0547ZM24.6268 24.2924C24.4816 24.2924 24.3413 24.2398 24.232 24.1442C24.1227 24.0486 24.0518 23.9166 24.0324 23.7727C24.0131 23.6288 24.0466 23.4827 24.1267 23.3617C24.2068 23.2406 24.3282 23.1527 24.4682 23.1143C25.4546 22.8425 26.3252 22.2562 26.9479 21.4443C27.5706 20.6325 27.9112 19.6396 27.918 18.6165C27.9248 17.5935 27.5975 16.5961 26.9857 15.7761C26.3739 14.956 25.5111 14.3581 24.5284 14.0733C24.3807 14.0248 24.2576 13.921 24.185 13.7836C24.1123 13.6462 24.0959 13.4859 24.1391 13.3366C24.1823 13.1873 24.2818 13.0606 24.4166 12.9832C24.5514 12.9058 24.7109 12.8838 24.8617 12.9217C26.0955 13.2792 27.1788 14.0297 27.947 15.0592C28.7152 16.0887 29.1263 17.3409 29.1177 18.6254C29.1092 19.9099 28.6815 21.1564 27.8996 22.1756C27.1178 23.1948 26.0245 23.9308 24.7861 24.2718C24.7342 24.2859 24.6806 24.2929 24.6268 24.2924Z" fill="white" fill-opacity="0.39"/>
<path d="M44.835 14.0386C43.5323 14.0385 42.2589 14.4248 41.1757 15.1485C40.0925 15.8722 39.2482 16.9009 38.7497 18.1044C38.2511 19.3079 38.1206 20.6323 38.3748 21.91C38.6289 23.1877 39.2562 24.3613 40.1773 25.2825C41.0984 26.2036 42.2721 26.831 43.5497 27.0851C44.8274 27.3393 46.1518 27.2089 47.3553 26.7104C48.5589 26.2118 49.5876 25.3676 50.3113 24.2845C51.0351 23.2013 51.4214 21.9278 51.4214 20.6251C51.4194 18.8789 50.7249 17.2048 49.4901 15.97C48.2554 14.7352 46.5813 14.0406 44.835 14.0386ZM41.106 24.5068C40.5916 22.232 41.6736 19.8006 43.7778 18.4665C44.0332 19.0461 44.1841 19.6663 44.2235 20.2984C43.4652 20.7975 42.8175 21.4472 42.3209 22.2071C41.8242 22.9671 41.4892 23.8211 41.3365 24.716C41.2577 24.6485 41.1808 24.5788 41.106 24.5068ZM43.3335 15.4514C44.4747 15.8092 45.4735 16.5188 46.187 17.4786C46.9005 18.4384 47.2922 19.5993 47.3061 20.7952C46.6502 20.7331 46.0113 20.5511 45.4211 20.2583C45.3682 19.3513 45.1291 18.465 44.7187 17.6544C44.3083 16.8438 43.7354 16.1264 43.0358 15.5469C43.1341 15.5123 43.2334 15.4805 43.3335 15.4514ZM44.8576 21.3158C45.669 21.7248 46.5561 21.9617 47.4633 22.0116C48.3706 22.0616 49.2784 21.9235 50.1297 21.6061C50.111 21.708 50.0895 21.8089 50.0652 21.9089C48.3475 23.5071 45.6915 23.7878 43.4976 22.613C43.8712 22.1041 44.3316 21.665 44.8576 21.3158ZM50.2074 20.271C49.6718 20.534 49.0962 20.7062 48.5041 20.7806C48.4859 19.7135 48.2226 18.6648 47.7347 17.7156C47.2467 16.7664 46.5471 15.942 45.6898 15.3062C46.8932 15.5016 47.9949 16.0987 48.8155 17.0003C49.6361 17.9018 50.1272 19.0547 50.2089 20.271H50.2074ZM41.8427 16.1469C42.3583 16.4937 42.8101 16.9271 43.178 17.4279C42.2689 17.9862 41.4961 18.7407 40.9161 19.6361C40.336 20.5315 39.9635 21.5452 39.8256 22.6031C39.372 21.4586 39.3248 20.1931 39.692 19.018C40.0591 17.8429 40.8183 16.8296 41.8427 16.1469ZM44.8343 26.011C44.0082 26.0118 43.193 25.8213 42.4528 25.4544C42.4952 24.8326 42.6453 24.2229 42.8964 23.6525C43.9527 24.2289 45.1363 24.5325 46.3397 24.5356C47.267 24.5372 48.1849 24.3506 49.0379 23.9872C48.5343 24.6184 47.8949 25.1281 47.1673 25.4785C46.4397 25.8288 45.6426 26.0108 44.835 26.011H44.8343Z" fill="#0C88E0"/>
<path d="M6.01864 40.3288C7.33524 40.3288 7.97194 40.8933 8.70917 41.5468C9.51261 42.2593 10.4235 43.0668 12.1952 43.0668C13.9669 43.0668 14.8778 42.2593 15.6813 41.5468C16.4187 40.8933 17.0552 40.3288 18.3718 40.3288C19.6884 40.3288 20.3256 40.8933 21.0628 41.5468C21.8665 42.2593 22.7771 43.0668 24.5491 43.0668C26.321 43.0668 27.2322 42.2593 28.0356 41.5468C28.7731 40.8933 29.4098 40.3288 30.7266 40.3288C32.0434 40.3288 32.6804 40.8933 33.4176 41.5468C34.2213 42.2593 35.132 43.0668 36.9039 43.0668C38.6758 43.0668 39.587 42.2593 40.3907 41.5468C41.1281 40.8933 41.7648 40.3288 43.0817 40.3288C44.3985 40.3288 45.0357 40.8933 45.7731 41.5468C46.5771 42.2593 47.488 43.0668 49.2604 43.0668C51.0328 43.0668 51.9437 42.2593 52.7474 41.5468C53.4849 40.8933 54.1218 40.3288 55.4389 40.3288C55.5979 40.3288 55.7505 40.2656 55.863 40.1531C55.9754 40.0407 56.0386 39.8881 56.0386 39.729C56.0386 39.57 55.9754 39.4174 55.863 39.3049C55.7505 39.1925 55.5979 39.1293 55.4389 39.1293C53.6667 39.1293 52.7555 39.9368 51.9519 40.6491C51.2144 41.3028 50.5775 41.8673 49.2604 41.8673C47.9433 41.8673 47.3064 41.3028 46.5687 40.6491C45.765 39.9368 44.8538 39.1293 43.0817 39.1293C41.3095 39.1293 40.399 39.9368 39.5951 40.6491C38.8579 41.3028 38.2207 41.8673 36.9039 41.8673C35.5871 41.8673 34.9506 41.3028 34.2131 40.6491C33.4097 39.9368 32.4985 39.1293 30.7266 39.1293C28.9547 39.1293 28.0438 39.9368 27.2401 40.6491C26.5028 41.3028 25.8659 41.8673 24.5491 41.8673C23.2322 41.8673 22.5958 41.3028 21.8583 40.6491C21.0549 39.9368 20.1437 39.1293 18.3718 39.1293C16.5998 39.1293 15.6894 39.9368 14.8857 40.6491C14.1485 41.3028 13.5118 41.8673 12.1952 41.8673C10.8786 41.8673 10.2419 41.3028 9.50469 40.6491C8.70125 39.9368 7.79034 39.1293 6.01864 39.1293C5.85958 39.1293 5.70703 39.1925 5.59455 39.3049C5.48207 39.4174 5.41888 39.57 5.41888 39.729C5.41888 39.8881 5.48207 40.0407 5.59455 40.1531C5.70703 40.2656 5.85958 40.3288 6.01864 40.3288ZM55.4389 44.6236C53.6667 44.6236 52.7555 45.4311 51.9519 46.1434C51.2144 46.7969 50.5775 47.3613 49.2604 47.3613C47.9433 47.3613 47.3064 46.7969 46.5687 46.1434C45.765 45.4311 44.8538 44.6236 43.0817 44.6236C41.3095 44.6236 40.399 45.4311 39.5951 46.1434C38.8579 46.7969 38.2207 47.3613 36.9039 47.3613C35.5871 47.3613 34.9506 46.7971 34.2131 46.1434C33.4097 45.4311 32.4985 44.6236 30.7266 44.6236C28.9547 44.6236 28.0438 45.4311 27.2401 46.1434C26.5028 46.7969 25.8659 47.3613 24.5491 47.3613C23.2322 47.3613 22.5958 46.7971 21.8583 46.1434C21.0549 45.4311 20.1437 44.6236 18.3718 44.6236C16.5998 44.6236 15.6894 45.4311 14.8857 46.1434C14.1485 46.7971 13.5118 47.3613 12.1952 47.3613C10.8786 47.3613 10.2419 46.7971 9.50469 46.1434C8.70125 45.4311 7.79034 44.6236 6.01864 44.6236C5.85958 44.6236 5.70703 44.6867 5.59455 44.7992C5.48207 44.9117 5.41888 45.0643 5.41888 45.2233C5.41888 45.3824 5.48207 45.5349 5.59455 45.6474C5.70703 45.7599 5.85958 45.8231 6.01864 45.8231C7.33524 45.8231 7.97194 46.3873 8.70917 47.0411C9.51261 47.7536 10.4235 48.5609 12.1952 48.5609C13.9669 48.5609 14.8778 47.7536 15.6813 47.0411C16.4187 46.3873 17.0552 45.8231 18.3718 45.8231C19.6884 45.8231 20.3256 46.3876 21.0628 47.0411C21.8665 47.7536 22.7771 48.5609 24.5491 48.5609C26.321 48.5609 27.2322 47.7536 28.0356 47.0411C28.7731 46.3876 29.4098 45.8231 30.7266 45.8231C32.0434 45.8231 32.6804 46.3876 33.4176 47.0411C34.2213 47.7536 35.132 48.5609 36.9039 48.5609C38.6758 48.5609 39.587 47.7536 40.3907 47.0411C41.1281 46.3873 41.7648 45.8231 43.0817 45.8231C44.3985 45.8231 45.0357 46.3876 45.7731 47.0411C46.5771 47.7536 47.488 48.5609 49.2604 48.5609C51.0328 48.5609 51.9437 47.7536 52.7474 47.0411C53.4849 46.3876 54.1218 45.8231 55.4389 45.8231C55.5979 45.8231 55.7505 45.7599 55.863 45.6474C55.9754 45.5349 56.0386 45.3824 56.0386 45.2233C56.0386 45.0643 55.9754 44.9117 55.863 44.7992C55.7505 44.6867 55.5979 44.6236 55.4389 44.6236ZM25.9247 24.4807C27.0907 24.4807 28.2306 24.135 29.2001 23.4871C30.1697 22.8393 30.9253 21.9185 31.3716 20.8412C31.8178 19.7639 31.9345 18.5785 31.707 17.4348C31.4795 16.2912 30.918 15.2407 30.0934 14.4162C29.2689 13.5917 28.2184 13.0302 27.0747 12.8027C25.9311 12.5753 24.7456 12.692 23.6683 13.1383C22.5911 13.5846 21.6703 14.3403 21.0225 15.3098C20.3747 16.2794 20.029 17.4193 20.029 18.5853C20.0307 20.1484 20.6524 21.647 21.7577 22.7523C22.863 23.8575 24.3616 24.4792 25.9247 24.4807ZM25.9247 13.8892C26.8535 13.8892 27.7614 14.1646 28.5337 14.6807C29.306 15.1967 29.9079 15.9301 30.2633 16.7882C30.6188 17.6463 30.7118 18.5905 30.5306 19.5015C30.3494 20.4125 29.9021 21.2492 29.2453 21.906C28.5886 22.5628 27.7518 23.01 26.8408 23.1912C25.9299 23.3724 24.9857 23.2794 24.1276 22.924C23.2694 22.5685 22.536 21.9666 22.02 21.1944C21.504 20.4221 21.2286 19.5141 21.2286 18.5853C21.2301 17.3403 21.7254 16.1468 22.6058 15.2664C23.4861 14.3861 24.6797 13.8908 25.9247 13.8892Z" fill="#43454D"/>
<path d="M11.2006 25.4869C11.2342 25.8736 11.383 26.2414 11.6278 26.5426C11.8725 26.8439 12.2019 27.0649 12.5735 27.1771L17.1051 28.5846V37.5654C17.1051 37.7245 17.1683 37.877 17.2808 37.9895C17.3932 38.102 17.5458 38.1652 17.7048 38.1652C17.8639 38.1652 18.0165 38.102 18.1289 37.9895C18.2414 37.877 18.3046 37.7245 18.3046 37.5654V28.9572L20.1504 29.5305C20.3022 29.5774 20.4664 29.5621 20.607 29.488C20.7475 29.4139 20.8529 29.287 20.9 29.1353C20.9471 28.9836 20.9321 28.8194 20.8583 28.6787C20.7845 28.538 20.6578 28.4324 20.5062 28.385L12.9252 26.0301C12.7819 25.9871 12.6548 25.902 12.5603 25.7859C12.4658 25.6698 12.4083 25.5281 12.3953 25.379L11.2397 12.635C11.2285 12.5356 11.2373 12.435 11.2655 12.339C11.2938 12.243 11.3409 12.1537 11.4041 12.0762C11.4673 11.9986 11.5454 11.9345 11.6338 11.8876C11.7221 11.8407 11.8189 11.8118 11.9186 11.8028C12.0182 11.7938 12.1186 11.8047 12.214 11.835C12.3093 11.8653 12.3976 11.9144 12.4738 11.9793C12.5499 12.0442 12.6123 12.1236 12.6573 12.2129C12.7024 12.3023 12.7291 12.3997 12.736 12.4995L13.8086 24.3361C13.8193 24.4551 13.8654 24.5681 13.9407 24.6607C14.0161 24.7533 14.1175 24.8213 14.2318 24.856L38.3162 32.1596C38.4887 32.212 38.6366 32.3245 38.733 32.4767C38.8295 32.629 38.868 32.8108 38.8417 32.9891C38.8153 33.1674 38.7258 33.3303 38.5894 33.4481C38.453 33.5659 38.2788 33.6308 38.0986 33.631C38.0255 33.6311 37.9527 33.6203 37.8827 33.5991L27.3068 30.3153C27.217 30.2874 27.122 30.281 27.0293 30.2966C26.9367 30.3123 26.849 30.3494 26.7733 30.4051C26.6977 30.4609 26.6362 30.5336 26.5938 30.6174C26.5514 30.7013 26.5293 30.7939 26.5292 30.8879V38.7248C26.5292 38.8839 26.5924 39.0365 26.7049 39.1489C26.8174 39.2614 26.9699 39.3246 27.129 39.3246C27.2881 39.3246 27.4406 39.2614 27.5531 39.1489C27.6656 39.0365 27.7288 38.8839 27.7288 38.7248V31.7024L37.5303 34.7458C38.0254 34.8961 38.56 34.8435 39.0164 34.5996C39.4729 34.3558 39.8137 33.9406 39.964 33.4454C40.1143 32.9502 40.0617 32.4156 39.8178 31.9592C39.5739 31.5028 39.1588 31.162 38.6636 31.0117L14.9671 23.8268L13.9312 12.3911C13.908 12.1359 13.8349 11.8877 13.7158 11.6608C13.5968 11.4339 13.4343 11.2327 13.2375 11.0686C13.0407 10.9045 12.8135 10.7808 12.5689 10.7045C12.3243 10.6282 12.067 10.6008 11.8118 10.6239C11.5567 10.6471 11.3085 10.7202 11.0816 10.8392C10.8547 10.9583 10.6534 11.1208 10.4894 11.3176C10.158 11.715 9.99801 12.2279 10.0447 12.7432L11.2006 25.4869Z" fill="#0C88E0"/>
</svg>
