<svg width="75" height="75" viewBox="0 0 75 75" fill="none" xmlns="http://www.w3.org/2000/svg">
<path d="M31.5516 17.244H20.2227C20.0292 17.244 19.8436 17.1671 19.7068 17.0303C19.5699 16.8935 19.493 16.7079 19.493 16.5143C19.493 16.3208 19.5699 16.1352 19.7068 15.9984C19.8436 15.8615 20.0292 15.7847 20.2227 15.7847H31.5516C31.7451 15.7847 31.9307 15.8615 32.0676 15.9984C32.2044 16.1352 32.2813 16.3208 32.2813 16.5143C32.2813 16.7079 32.2044 16.8935 32.0676 17.0303C31.9307 17.1671 31.7451 17.244 31.5516 17.244ZM54.8062 17.244H43.4773C43.2838 17.244 43.0982 17.1671 42.9614 17.0303C42.8246 16.8935 42.7477 16.7079 42.7477 16.5143C42.7477 16.3208 42.8246 16.1352 42.9614 15.9984C43.0982 15.8615 43.2838 15.7847 43.4773 15.7847H54.8062C54.9998 15.7847 55.1854 15.8615 55.3222 15.9984C55.459 16.1352 55.5359 16.3208 55.5359 16.5143C55.5359 16.7079 55.459 16.8935 55.3222 17.0303C55.1854 17.1671 54.9998 17.244 54.8062 17.244Z" fill="#0C88E0" fill-opacity="0.19"/>
<path d="M61.4118 50.9916H13.6171C13.4236 50.9916 13.238 50.9148 13.1012 50.7779C12.9643 50.6411 12.8875 50.4555 12.8875 50.262V46.5514C12.8875 46.3579 12.9643 46.1723 13.1012 46.0355C13.238 45.8987 13.4236 45.8218 13.6171 45.8218H61.4118C61.6053 45.8218 61.7909 45.8987 61.9277 46.0355C62.0646 46.1723 62.1415 46.3579 62.1415 46.5514V50.262C62.1415 50.4555 62.0646 50.6411 61.9277 50.7779C61.7909 50.9148 61.6053 50.9916 61.4118 50.9916ZM14.3468 49.5323H60.6821V47.2811H14.3468V49.5323ZM61.4118 59.8986H13.6171C13.4236 59.8986 13.238 59.8217 13.1012 59.6849C12.9643 59.548 12.8875 59.3625 12.8875 59.1689V55.4584C12.8875 55.2649 12.9643 55.0793 13.1012 54.9425C13.238 54.8056 13.4236 54.7287 13.6171 54.7287H61.4118C61.6053 54.7287 61.7909 54.8056 61.9277 54.9425C62.0646 55.0793 62.1415 55.2649 62.1415 55.4584V59.1689C62.1415 59.3625 62.0646 59.548 61.9277 59.6849C61.7909 59.8217 61.6053 59.8986 61.4118 59.8986ZM14.3468 58.4393H60.6821V56.1881H14.3468V58.4393Z" fill="#0C88E0"/>
<path d="M60.9142 41.8911L56.3435 37.7224C56.1069 37.5064 55.918 37.2434 55.7886 36.9504C55.6592 36.6573 55.5922 36.3406 55.5919 36.0202V14.9234C55.5906 13.7913 55.1403 12.7059 54.3398 11.9054C53.5393 11.1049 52.454 10.6546 51.3219 10.6533H44.9492C44.7973 10.6533 44.6492 10.7007 44.5255 10.7889C44.4018 10.8771 44.3087 11.0018 44.2592 11.1454L37.5145 30.7091L30.7697 11.1454C30.7202 11.0018 30.6271 10.8771 30.5034 10.7889C30.3797 10.7007 30.2316 10.6533 30.0797 10.6533H23.707C22.5749 10.6546 21.4896 11.1049 20.6891 11.9054C19.8886 12.7059 19.4383 13.7913 19.437 14.9234V36.0202C19.4367 36.3406 19.3697 36.6574 19.2403 36.9505C19.1109 37.2436 18.922 37.5066 18.6854 37.7227L14.1148 41.8911C13.7285 42.2441 13.4199 42.6737 13.2086 43.1524C12.9973 43.6311 12.888 44.1485 12.8875 44.6718V63.3356C12.8875 63.5291 12.9643 63.7147 13.1012 63.8516C13.238 63.9884 13.4236 64.0653 13.6171 64.0653H61.4118C61.6053 64.0653 61.7909 63.9884 61.9277 63.8516C62.0646 63.7147 62.1415 63.5291 62.1415 63.3356V44.6718C62.141 44.1485 62.0316 43.6311 61.8203 43.1524C61.609 42.6737 61.3004 42.2441 60.9142 41.8911ZM34.3763 50.724V45.7858H40.6515V50.724H34.3763ZM14.3468 44.6718C14.3472 44.3515 14.4141 44.0347 14.5435 43.7417C14.6728 43.4487 14.8617 43.1857 15.0981 42.9696L19.6687 38.8008C20.0551 38.4479 20.3637 38.0184 20.5751 37.5397C20.7864 37.061 20.8958 36.5435 20.8963 36.0202V14.9234C20.8973 14.1782 21.1937 13.4638 21.7206 12.9369C22.2475 12.41 22.9619 12.1136 23.707 12.1127H29.5596L36.7848 33.0688V44.3256H33.6466C33.4531 44.3256 33.2675 44.4025 33.1307 44.5393C32.9938 44.6762 32.9169 44.8618 32.9169 45.0553V51.4536C32.9169 51.6472 32.9938 51.8328 33.1307 51.9696C33.2675 52.1064 33.4531 52.1833 33.6466 52.1833H36.7848V53.3852H33.6466C33.4531 53.3852 33.2675 53.4621 33.1307 53.5989C32.9938 53.7358 32.9169 53.9214 32.9169 54.1149V60.5124C32.9169 60.7059 32.9938 60.8915 33.1307 61.0283C33.2675 61.1652 33.4531 61.242 33.6466 61.242H36.7848V62.6059H14.3468V44.6718ZM34.3763 59.7827V54.8446H40.6515V59.7827H34.3763ZM60.6821 62.6059H38.2441V61.242H41.3823C41.5758 61.242 41.7614 61.1652 41.8983 61.0283C42.0351 60.8915 42.112 60.7059 42.112 60.5124V54.1149C42.112 53.9214 42.0351 53.7358 41.8983 53.5989C41.7614 53.4621 41.5758 53.3852 41.3823 53.3852H38.2441V52.1833H41.3823C41.5758 52.1833 41.7614 52.1064 41.8983 51.9696C42.0351 51.8328 42.112 51.6472 42.112 51.4536V45.0562C42.112 44.8627 42.0351 44.6771 41.8983 44.5402C41.7614 44.4034 41.5758 44.3265 41.3823 44.3265H38.2441V33.0688L45.4693 12.1127H51.3219C52.067 12.1136 52.7814 12.41 53.3083 12.9369C53.8352 13.4638 54.1317 14.1782 54.1326 14.9234V36.0202C54.1331 36.5435 54.2425 37.061 54.4538 37.5397C54.6652 38.0184 54.9738 38.4479 55.3602 38.8008L59.9308 42.9693C60.1672 43.1855 60.3561 43.4485 60.4854 43.7416C60.6147 44.0347 60.6817 44.3514 60.6821 44.6718V62.6059Z" fill="#43454D"/>
<path d="M30.6603 35.1207H44.3688V32.8693H30.6603V35.1207ZM45.0984 36.5801H29.9306C29.7371 36.5801 29.5515 36.5032 29.4146 36.3664C29.2778 36.2295 29.2009 36.0439 29.2009 35.8504V32.1396C29.2009 31.9461 29.2778 31.7605 29.4146 31.6236C29.5515 31.4868 29.7371 31.4099 29.9306 31.4099H45.0984C45.2919 31.4099 45.4775 31.4868 45.6144 31.6236C45.7512 31.7605 45.8281 31.9461 45.8281 32.1396V35.8504C45.8281 36.0439 45.7512 36.2295 45.6144 36.3664C45.4775 36.5032 45.2919 36.5801 45.0984 36.5801Z" fill="#0C88E0"/>
</svg>
